<ttFont>
    <TTGlyph name="A" xMin="10" yMin="0" xMax="1129" yMax="700">
      <contour>
        <pt x="10" y="0" on="1"/>
        <pt x="254" y="558" on="1"/>
        <pt x="130" y="558" on="1"/>
        <pt x="130" y="700" on="1"/>
        <pt x="825" y="700" on="1"/>
        <pt x="1129" y="0" on="1"/>
        <pt x="859" y="0" on="1"/>
        <pt x="783" y="175" on="1"/>
        <pt x="357" y="175" on="1"/>
        <pt x="281" y="0" on="1"/>
      </contour>
      <contour>
        <pt x="419" y="317" on="1"/>
        <pt x="721" y="317" on="1"/>
        <pt x="615" y="558" on="1"/>
        <pt x="525" y="558" on="1"/>
      </contour>
    </TTGlyph>
    <TTGlyph name="AE" xMin="10" yMin="0" xMax="1768" yMax="700">
      <contour>
        <pt x="10" y="0" on="1"/>
        <pt x="254" y="558" on="1"/>
        <pt x="130" y="558" on="1"/>
        <pt x="130" y="700" on="1"/>
        <pt x="1768" y="700" on="1"/>
        <pt x="1768" y="442" on="1"/>
        <pt x="1507" y="478" on="1"/>
        <pt x="1507" y="558" on="1"/>
        <pt x="1060" y="558" on="1"/>
        <pt x="1060" y="421" on="1"/>
        <pt x="1415" y="421" on="1"/>
        <pt x="1415" y="279" on="1"/>
        <pt x="1060" y="279" on="1"/>
        <pt x="1060" y="142" on="1"/>
        <pt x="1507" y="142" on="1"/>
        <pt x="1507" y="222" on="1"/>
        <pt x="1768" y="258" on="1"/>
        <pt x="1768" y="0" on="1"/>
        <pt x="799" y="0" on="1"/>
        <pt x="799" y="175" on="1"/>
        <pt x="357" y="175" on="1"/>
        <pt x="281" y="0" on="1"/>
      </contour>
      <contour>
        <pt x="419" y="317" on="1"/>
        <pt x="799" y="317" on="1"/>
        <pt x="799" y="558" on="1"/>
        <pt x="525" y="558" on="1"/>
      </contour>
    </TTGlyph>
    <TTGlyph name="Aacute" xMin="10" yMin="0" xMax="1129" yMax="1020">
      <contour>
        <pt x="10" y="0" on="1"/>
        <pt x="254" y="558" on="1"/>
        <pt x="130" y="558" on="1"/>
        <pt x="130" y="700" on="1"/>
        <pt x="825" y="700" on="1"/>
        <pt x="1129" y="0" on="1"/>
        <pt x="859" y="0" on="1"/>
        <pt x="783" y="175" on="1"/>
        <pt x="357" y="175" on="1"/>
        <pt x="281" y="0" on="1"/>
      </contour>
      <contour>
        <pt x="407" y="790" on="1"/>
        <pt x="497" y="1020" on="1"/>
        <pt x="747" y="1020" on="1"/>
        <pt x="607" y="790" on="1"/>
      </contour>
      <contour>
        <pt x="419" y="317" on="1"/>
        <pt x="721" y="317" on="1"/>
        <pt x="615" y="558" on="1"/>
        <pt x="525" y="558" on="1"/>
      </contour>
    </TTGlyph>
    <TTGlyph name="Acircumflex" xMin="10" yMin="0" xMax="1129" yMax="994">
      <contour>
        <pt x="10" y="0" on="1"/>
        <pt x="254" y="558" on="1"/>
        <pt x="130" y="558" on="1"/>
        <pt x="130" y="700" on="1"/>
        <pt x="825" y="700" on="1"/>
        <pt x="1129" y="0" on="1"/>
        <pt x="859" y="0" on="1"/>
        <pt x="783" y="175" on="1"/>
        <pt x="357" y="175" on="1"/>
        <pt x="281" y="0" on="1"/>
      </contour>
      <contour>
        <pt x="330" y="745" on="1"/>
        <pt x="330" y="914" on="1"/>
        <pt x="570" y="994" on="1"/>
        <pt x="810" y="914" on="1"/>
        <pt x="810" y="745" on="1"/>
        <pt x="570" y="834" on="1"/>
      </contour>
      <contour>
        <pt x="419" y="317" on="1"/>
        <pt x="721" y="317" on="1"/>
        <pt x="615" y="558" on="1"/>
        <pt x="525" y="558" on="1"/>
      </contour>
    </TTGlyph>
    <TTGlyph name="Adieresis" xMin="10" yMin="0" xMax="1129" yMax="964">
      <contour>
        <pt x="10" y="0" on="1"/>
        <pt x="254" y="558" on="1"/>
        <pt x="130" y="558" on="1"/>
        <pt x="130" y="700" on="1"/>
        <pt x="825" y="700" on="1"/>
        <pt x="1129" y="0" on="1"/>
        <pt x="859" y="0" on="1"/>
        <pt x="783" y="175" on="1"/>
        <pt x="357" y="175" on="1"/>
        <pt x="281" y="0" on="1"/>
      </contour>
      <contour>
        <pt x="273" y="755" on="1"/>
        <pt x="273" y="964" on="1"/>
        <pt x="535" y="964" on="1"/>
        <pt x="535" y="874" on="1"/>
      </contour>
      <contour>
        <pt x="419" y="317" on="1"/>
        <pt x="721" y="317" on="1"/>
        <pt x="615" y="558" on="1"/>
        <pt x="525" y="558" on="1"/>
      </contour>
      <contour>
        <pt x="600" y="755" on="1"/>
        <pt x="600" y="964" on="1"/>
        <pt x="862" y="964" on="1"/>
        <pt x="862" y="874" on="1"/>
      </contour>
    </TTGlyph>
    <TTGlyph name="Agrave" xMin="10" yMin="0" xMax="1129" yMax="1020">
      <contour>
        <pt x="10" y="0" on="1"/>
        <pt x="254" y="558" on="1"/>
        <pt x="130" y="558" on="1"/>
        <pt x="130" y="700" on="1"/>
        <pt x="825" y="700" on="1"/>
        <pt x="1129" y="0" on="1"/>
        <pt x="859" y="0" on="1"/>
        <pt x="783" y="175" on="1"/>
        <pt x="357" y="175" on="1"/>
        <pt x="281" y="0" on="1"/>
      </contour>
      <contour>
        <pt x="307" y="1020" on="1"/>
        <pt x="557" y="1020" on="1"/>
        <pt x="647" y="790" on="1"/>
        <pt x="447" y="790" on="1"/>
      </contour>
      <contour>
        <pt x="419" y="317" on="1"/>
        <pt x="721" y="317" on="1"/>
        <pt x="615" y="558" on="1"/>
        <pt x="525" y="558" on="1"/>
      </contour>
    </TTGlyph>
    <TTGlyph name="Aring" xMin="10" yMin="0" xMax="1129" yMax="1037">
      <contour>
        <pt x="10" y="0" on="1"/>
        <pt x="254" y="558" on="1"/>
        <pt x="130" y="558" on="1"/>
        <pt x="130" y="700" on="1"/>
        <pt x="825" y="700" on="1"/>
        <pt x="1129" y="0" on="1"/>
        <pt x="859" y="0" on="1"/>
        <pt x="783" y="175" on="1"/>
        <pt x="357" y="175" on="1"/>
        <pt x="281" y="0" on="1"/>
      </contour>
      <contour>
        <pt x="410" y="787" on="1"/>
        <pt x="410" y="1037" on="1"/>
        <pt x="725" y="1037" on="1"/>
        <pt x="725" y="787" on="1"/>
      </contour>
      <contour>
        <pt x="419" y="317" on="1"/>
        <pt x="721" y="317" on="1"/>
        <pt x="615" y="558" on="1"/>
        <pt x="525" y="558" on="1"/>
      </contour>
      <contour>
        <pt x="515" y="870" on="1"/>
        <pt x="620" y="870" on="1"/>
        <pt x="620" y="954" on="1"/>
        <pt x="515" y="954" on="1"/>
      </contour>
    </TTGlyph>
    <TTGlyph name="Atilde" xMin="10" yMin="0" xMax="1129" yMax="974">
      <contour>
        <pt x="10" y="0" on="1"/>
        <pt x="254" y="558" on="1"/>
        <pt x="130" y="558" on="1"/>
        <pt x="130" y="700" on="1"/>
        <pt x="825" y="700" on="1"/>
        <pt x="1129" y="0" on="1"/>
        <pt x="859" y="0" on="1"/>
        <pt x="783" y="175" on="1"/>
        <pt x="357" y="175" on="1"/>
        <pt x="281" y="0" on="1"/>
      </contour>
      <contour>
        <pt x="350" y="750" on="1"/>
        <pt x="350" y="899" on="1"/>
        <pt x="490" y="974" on="1"/>
        <pt x="630" y="900" on="1"/>
        <pt x="770" y="974" on="1"/>
        <pt x="770" y="825" on="1"/>
        <pt x="630" y="750" on="1"/>
        <pt x="490" y="824" on="1"/>
      </contour>
      <contour>
        <pt x="419" y="317" on="1"/>
        <pt x="721" y="317" on="1"/>
        <pt x="615" y="558" on="1"/>
        <pt x="525" y="558" on="1"/>
      </contour>
    </TTGlyph>
    <TTGlyph name="B" xMin="0" yMin="0" xMax="1188" yMax="700">
      <contour>
        <pt x="0" y="558" on="1"/>
        <pt x="0" y="700" on="1"/>
        <pt x="1188" y="700" on="1"/>
        <pt x="1188" y="425" on="1"/>
        <pt x="959" y="350" on="1"/>
        <pt x="1188" y="275" on="1"/>
        <pt x="1188" y="0" on="1"/>
        <pt x="149" y="0" on="1"/>
        <pt x="149" y="558" on="1"/>
      </contour>
      <contour>
        <pt x="410" y="142" on="1"/>
        <pt x="927" y="142" on="1"/>
        <pt x="927" y="193" on="1"/>
        <pt x="730" y="279" on="1"/>
        <pt x="410" y="279" on="1"/>
      </contour>
      <contour>
        <pt x="410" y="421" on="1"/>
        <pt x="730" y="421" on="1"/>
        <pt x="927" y="507" on="1"/>
        <pt x="927" y="558" on="1"/>
        <pt x="410" y="558" on="1"/>
      </contour>
    </TTGlyph>
    <TTGlyph name="C" xMin="0" yMin="0" xMax="1188" yMax="700">
      <contour>
        <pt x="0" y="558" on="1"/>
        <pt x="0" y="700" on="1"/>
        <pt x="1188" y="700" on="1"/>
        <pt x="1188" y="442" on="1"/>
        <pt x="927" y="478" on="1"/>
        <pt x="927" y="558" on="1"/>
        <pt x="410" y="558" on="1"/>
        <pt x="410" y="142" on="1"/>
        <pt x="927" y="142" on="1"/>
        <pt x="927" y="222" on="1"/>
        <pt x="1188" y="258" on="1"/>
        <pt x="1188" y="0" on="1"/>
        <pt x="149" y="0" on="1"/>
        <pt x="149" y="558" on="1"/>
      </contour>
    </TTGlyph>
    <TTGlyph name="Ccedilla" xMin="0" yMin="-290" xMax="1188" yMax="700">
      <contour>
        <pt x="0" y="558" on="1"/>
        <pt x="0" y="700" on="1"/>
        <pt x="1188" y="700" on="1"/>
        <pt x="1188" y="442" on="1"/>
        <pt x="927" y="478" on="1"/>
        <pt x="927" y="558" on="1"/>
        <pt x="410" y="558" on="1"/>
        <pt x="410" y="142" on="1"/>
        <pt x="927" y="142" on="1"/>
        <pt x="927" y="222" on="1"/>
        <pt x="1188" y="258" on="1"/>
        <pt x="1188" y="0" on="1"/>
        <pt x="694" y="0" on="1"/>
        <pt x="694" y="-30" on="1"/>
        <pt x="860" y="-70" on="1"/>
        <pt x="860" y="-290" on="1"/>
        <pt x="549" y="-290" on="1"/>
        <pt x="549" y="-187" on="1"/>
        <pt x="735" y="-187" on="1"/>
        <pt x="735" y="-153" on="1"/>
        <pt x="569" y="-113" on="1"/>
        <pt x="569" y="0" on="1"/>
        <pt x="149" y="0" on="1"/>
        <pt x="149" y="558" on="1"/>
      </contour>
    </TTGlyph>
    <TTGlyph name="D" xMin="0" yMin="0" xMax="1187" yMax="700">
      <contour>
        <pt x="0" y="558" on="1"/>
        <pt x="0" y="700" on="1"/>
        <pt x="868" y="700" on="1"/>
        <pt x="1187" y="530" on="1"/>
        <pt x="1187" y="0" on="1"/>
        <pt x="149" y="0" on="1"/>
        <pt x="149" y="558" on="1"/>
      </contour>
      <contour>
        <pt x="411" y="142" on="1"/>
        <pt x="927" y="142" on="1"/>
        <pt x="927" y="490" on="1"/>
        <pt x="799" y="558" on="1"/>
        <pt x="411" y="558" on="1"/>
      </contour>
    </TTGlyph>
    <TTGlyph name="E" xMin="0" yMin="0" xMax="1189" yMax="700">
      <contour>
        <pt x="0" y="558" on="1"/>
        <pt x="0" y="700" on="1"/>
        <pt x="1189" y="700" on="1"/>
        <pt x="1189" y="442" on="1"/>
        <pt x="928" y="478" on="1"/>
        <pt x="928" y="558" on="1"/>
        <pt x="411" y="558" on="1"/>
        <pt x="411" y="421" on="1"/>
        <pt x="836" y="421" on="1"/>
        <pt x="836" y="279" on="1"/>
        <pt x="411" y="279" on="1"/>
        <pt x="411" y="142" on="1"/>
        <pt x="928" y="142" on="1"/>
        <pt x="928" y="222" on="1"/>
        <pt x="1189" y="258" on="1"/>
        <pt x="1189" y="0" on="1"/>
        <pt x="150" y="0" on="1"/>
        <pt x="150" y="558" on="1"/>
      </contour>
    </TTGlyph>
    <TTGlyph name="Eacute" xMin="0" yMin="0" xMax="1189" yMax="1020">
      <contour>
        <pt x="0" y="558" on="1"/>
        <pt x="0" y="700" on="1"/>
        <pt x="1189" y="700" on="1"/>
        <pt x="1189" y="442" on="1"/>
        <pt x="928" y="478" on="1"/>
        <pt x="928" y="558" on="1"/>
        <pt x="411" y="558" on="1"/>
        <pt x="411" y="421" on="1"/>
        <pt x="836" y="421" on="1"/>
        <pt x="836" y="279" on="1"/>
        <pt x="411" y="279" on="1"/>
        <pt x="411" y="142" on="1"/>
        <pt x="928" y="142" on="1"/>
        <pt x="928" y="222" on="1"/>
        <pt x="1189" y="258" on="1"/>
        <pt x="1189" y="0" on="1"/>
        <pt x="150" y="0" on="1"/>
        <pt x="150" y="558" on="1"/>
      </contour>
      <contour>
        <pt x="557" y="790" on="1"/>
        <pt x="647" y="1020" on="1"/>
        <pt x="897" y="1020" on="1"/>
        <pt x="757" y="790" on="1"/>
      </contour>
    </TTGlyph>
    <TTGlyph name="Ecircumflex" xMin="0" yMin="0" xMax="1189" yMax="994">
      <contour>
        <pt x="0" y="558" on="1"/>
        <pt x="0" y="700" on="1"/>
        <pt x="1189" y="700" on="1"/>
        <pt x="1189" y="442" on="1"/>
        <pt x="928" y="478" on="1"/>
        <pt x="928" y="558" on="1"/>
        <pt x="411" y="558" on="1"/>
        <pt x="411" y="421" on="1"/>
        <pt x="836" y="421" on="1"/>
        <pt x="836" y="279" on="1"/>
        <pt x="411" y="279" on="1"/>
        <pt x="411" y="142" on="1"/>
        <pt x="928" y="142" on="1"/>
        <pt x="928" y="222" on="1"/>
        <pt x="1189" y="258" on="1"/>
        <pt x="1189" y="0" on="1"/>
        <pt x="150" y="0" on="1"/>
        <pt x="150" y="558" on="1"/>
      </contour>
      <contour>
        <pt x="420" y="745" on="1"/>
        <pt x="420" y="914" on="1"/>
        <pt x="660" y="994" on="1"/>
        <pt x="900" y="914" on="1"/>
        <pt x="900" y="745" on="1"/>
        <pt x="660" y="834" on="1"/>
      </contour>
    </TTGlyph>
    <TTGlyph name="Edieresis" xMin="0" yMin="0" xMax="1189" yMax="964">
      <contour>
        <pt x="0" y="558" on="1"/>
        <pt x="0" y="700" on="1"/>
        <pt x="1189" y="700" on="1"/>
        <pt x="1189" y="442" on="1"/>
        <pt x="928" y="478" on="1"/>
        <pt x="928" y="558" on="1"/>
        <pt x="411" y="558" on="1"/>
        <pt x="411" y="421" on="1"/>
        <pt x="836" y="421" on="1"/>
        <pt x="836" y="279" on="1"/>
        <pt x="411" y="279" on="1"/>
        <pt x="411" y="142" on="1"/>
        <pt x="928" y="142" on="1"/>
        <pt x="928" y="222" on="1"/>
        <pt x="1189" y="258" on="1"/>
        <pt x="1189" y="0" on="1"/>
        <pt x="150" y="0" on="1"/>
        <pt x="150" y="558" on="1"/>
      </contour>
      <contour>
        <pt x="393" y="755" on="1"/>
        <pt x="393" y="964" on="1"/>
        <pt x="655" y="964" on="1"/>
        <pt x="655" y="874" on="1"/>
      </contour>
      <contour>
        <pt x="720" y="755" on="1"/>
        <pt x="720" y="964" on="1"/>
        <pt x="982" y="964" on="1"/>
        <pt x="982" y="874" on="1"/>
      </contour>
    </TTGlyph>
    <TTGlyph name="Egrave" xMin="0" yMin="0" xMax="1189" yMax="1020">
      <contour>
        <pt x="0" y="558" on="1"/>
        <pt x="0" y="700" on="1"/>
        <pt x="1189" y="700" on="1"/>
        <pt x="1189" y="442" on="1"/>
        <pt x="928" y="478" on="1"/>
        <pt x="928" y="558" on="1"/>
        <pt x="411" y="558" on="1"/>
        <pt x="411" y="421" on="1"/>
        <pt x="836" y="421" on="1"/>
        <pt x="836" y="279" on="1"/>
        <pt x="411" y="279" on="1"/>
        <pt x="411" y="142" on="1"/>
        <pt x="928" y="142" on="1"/>
        <pt x="928" y="222" on="1"/>
        <pt x="1189" y="258" on="1"/>
        <pt x="1189" y="0" on="1"/>
        <pt x="150" y="0" on="1"/>
        <pt x="150" y="558" on="1"/>
      </contour>
      <contour>
        <pt x="437" y="1020" on="1"/>
        <pt x="687" y="1020" on="1"/>
        <pt x="777" y="790" on="1"/>
        <pt x="577" y="790" on="1"/>
      </contour>
    </TTGlyph>
    <TTGlyph name="Eth" xMin="50" yMin="0" xMax="1198" yMax="700">
      <contour>
        <pt x="50" y="279" on="1"/>
        <pt x="50" y="421" on="1"/>
        <pt x="160" y="421" on="1"/>
        <pt x="160" y="700" on="1"/>
        <pt x="879" y="700" on="1"/>
        <pt x="1198" y="530" on="1"/>
        <pt x="1198" y="0" on="1"/>
        <pt x="160" y="0" on="1"/>
        <pt x="160" y="279" on="1"/>
      </contour>
      <contour>
        <pt x="421" y="142" on="1"/>
        <pt x="937" y="142" on="1"/>
        <pt x="937" y="490" on="1"/>
        <pt x="809" y="558" on="1"/>
        <pt x="421" y="558" on="1"/>
        <pt x="421" y="421" on="1"/>
        <pt x="528" y="421" on="1"/>
        <pt x="528" y="279" on="1"/>
        <pt x="421" y="279" on="1"/>
      </contour>
    </TTGlyph>
    <TTGlyph name="Euro" xMin="0" yMin="0" xMax="1189" yMax="700">
      <contour>
        <pt x="0" y="216" on="1"/>
        <pt x="20" y="319" on="1"/>
        <pt x="150" y="319" on="1"/>
        <pt x="150" y="371" on="1"/>
        <pt x="29" y="371" on="1"/>
        <pt x="49" y="474" on="1"/>
        <pt x="150" y="474" on="1"/>
        <pt x="150" y="700" on="1"/>
        <pt x="1189" y="700" on="1"/>
        <pt x="1189" y="442" on="1"/>
        <pt x="928" y="478" on="1"/>
        <pt x="928" y="558" on="1"/>
        <pt x="411" y="558" on="1"/>
        <pt x="411" y="474" on="1"/>
        <pt x="763" y="474" on="1"/>
        <pt x="743" y="371" on="1"/>
        <pt x="411" y="371" on="1"/>
        <pt x="411" y="319" on="1"/>
        <pt x="734" y="319" on="1"/>
        <pt x="714" y="216" on="1"/>
        <pt x="411" y="216" on="1"/>
        <pt x="411" y="142" on="1"/>
        <pt x="928" y="142" on="1"/>
        <pt x="928" y="222" on="1"/>
        <pt x="1189" y="258" on="1"/>
        <pt x="1189" y="0" on="1"/>
        <pt x="150" y="0" on="1"/>
        <pt x="150" y="216" on="1"/>
      </contour>
    </TTGlyph>
    <TTGlyph name="F" xMin="0" yMin="0" xMax="1105" yMax="700">
      <contour>
        <pt x="0" y="558" on="1"/>
        <pt x="0" y="700" on="1"/>
        <pt x="1105" y="700" on="1"/>
        <pt x="1105" y="447" on="1"/>
        <pt x="844" y="483" on="1"/>
        <pt x="844" y="558" on="1"/>
        <pt x="410" y="558" on="1"/>
        <pt x="410" y="372" on="1"/>
        <pt x="844" y="372" on="1"/>
        <pt x="844" y="230" on="1"/>
        <pt x="410" y="230" on="1"/>
        <pt x="410" y="0" on="1"/>
        <pt x="149" y="0" on="1"/>
        <pt x="149" y="558" on="1"/>
      </contour>
    </TTGlyph>
    <TTGlyph name="G" xMin="0" yMin="0" xMax="1188" yMax="700">
      <contour>
        <pt x="0" y="558" on="1"/>
        <pt x="0" y="700" on="1"/>
        <pt x="1188" y="700" on="1"/>
        <pt x="1188" y="452" on="1"/>
        <pt x="927" y="488" on="1"/>
        <pt x="927" y="558" on="1"/>
        <pt x="410" y="558" on="1"/>
        <pt x="410" y="142" on="1"/>
        <pt x="927" y="142" on="1"/>
        <pt x="927" y="237" on="1"/>
        <pt x="716" y="237" on="1"/>
        <pt x="716" y="379" on="1"/>
        <pt x="1188" y="379" on="1"/>
        <pt x="1188" y="0" on="1"/>
        <pt x="149" y="0" on="1"/>
        <pt x="149" y="558" on="1"/>
      </contour>
    </TTGlyph>
    <TTGlyph name="H" xMin="0" yMin="0" xMax="1187" yMax="700">
      <contour>
        <pt x="0" y="558" on="1"/>
        <pt x="0" y="700" on="1"/>
        <pt x="410" y="700" on="1"/>
        <pt x="410" y="423" on="1"/>
        <pt x="926" y="423" on="1"/>
        <pt x="926" y="700" on="1"/>
        <pt x="1187" y="700" on="1"/>
        <pt x="1187" y="0" on="1"/>
        <pt x="926" y="0" on="1"/>
        <pt x="926" y="281" on="1"/>
        <pt x="410" y="281" on="1"/>
        <pt x="410" y="0" on="1"/>
        <pt x="149" y="0" on="1"/>
        <pt x="149" y="558" on="1"/>
      </contour>
    </TTGlyph>
    <TTGlyph name="I" xMin="0" yMin="0" xMax="410" yMax="700">
      <contour>
        <pt x="0" y="558" on="1"/>
        <pt x="0" y="700" on="1"/>
        <pt x="410" y="700" on="1"/>
        <pt x="410" y="0" on="1"/>
        <pt x="149" y="0" on="1"/>
        <pt x="149" y="558" on="1"/>
      </contour>
    </TTGlyph>
    <TTGlyph name="Iacute" xMin="0" yMin="0" xMax="514" yMax="1020">
      <contour>
        <pt x="0" y="558" on="1"/>
        <pt x="0" y="700" on="1"/>
        <pt x="410" y="700" on="1"/>
        <pt x="410" y="0" on="1"/>
        <pt x="149" y="0" on="1"/>
        <pt x="149" y="558" on="1"/>
      </contour>
      <contour>
        <pt x="174" y="790" on="1"/>
        <pt x="264" y="1020" on="1"/>
        <pt x="514" y="1020" on="1"/>
        <pt x="374" y="790" on="1"/>
      </contour>
    </TTGlyph>
    <TTGlyph name="Icircumflex" xMin="0" yMin="0" xMax="519" yMax="1004">
      <contour>
        <pt x="0" y="558" on="1"/>
        <pt x="0" y="700" on="1"/>
        <pt x="410" y="700" on="1"/>
        <pt x="410" y="0" on="1"/>
        <pt x="149" y="0" on="1"/>
        <pt x="149" y="558" on="1"/>
      </contour>
      <contour>
        <pt x="39" y="755" on="1"/>
        <pt x="39" y="924" on="1"/>
        <pt x="279" y="1004" on="1"/>
        <pt x="519" y="924" on="1"/>
        <pt x="519" y="755" on="1"/>
        <pt x="279" y="844" on="1"/>
      </contour>
    </TTGlyph>
    <TTGlyph name="Idieresis" xMin="0" yMin="0" xMax="589" yMax="964">
      <contour>
        <pt x="0" y="755" on="1"/>
        <pt x="0" y="964" on="1"/>
        <pt x="262" y="964" on="1"/>
        <pt x="262" y="874" on="1"/>
      </contour>
      <contour>
        <pt x="8" y="558" on="1"/>
        <pt x="8" y="700" on="1"/>
        <pt x="418" y="700" on="1"/>
        <pt x="418" y="0" on="1"/>
        <pt x="157" y="0" on="1"/>
        <pt x="157" y="558" on="1"/>
      </contour>
      <contour>
        <pt x="327" y="755" on="1"/>
        <pt x="327" y="964" on="1"/>
        <pt x="589" y="964" on="1"/>
        <pt x="589" y="874" on="1"/>
      </contour>
    </TTGlyph>
    <TTGlyph name="Igrave" xMin="0" yMin="0" xMax="410" yMax="1020">
      <contour>
        <pt x="0" y="558" on="1"/>
        <pt x="0" y="700" on="1"/>
        <pt x="410" y="700" on="1"/>
        <pt x="410" y="0" on="1"/>
        <pt x="149" y="0" on="1"/>
        <pt x="149" y="558" on="1"/>
      </contour>
      <contour>
        <pt x="45" y="1020" on="1"/>
        <pt x="295" y="1020" on="1"/>
        <pt x="385" y="790" on="1"/>
        <pt x="185" y="790" on="1"/>
      </contour>
    </TTGlyph>
    <TTGlyph name="Itilde" xMin="0" yMin="0" xMax="472" yMax="984">
      <contour>
        <pt x="0" y="558" on="1"/>
        <pt x="0" y="700" on="1"/>
        <pt x="410" y="700" on="1"/>
        <pt x="410" y="0" on="1"/>
        <pt x="149" y="0" on="1"/>
        <pt x="149" y="558" on="1"/>
      </contour>
      <contour>
        <pt x="52" y="760" on="1"/>
        <pt x="52" y="909" on="1"/>
        <pt x="192" y="984" on="1"/>
        <pt x="332" y="910" on="1"/>
        <pt x="472" y="984" on="1"/>
        <pt x="472" y="835" on="1"/>
        <pt x="332" y="760" on="1"/>
        <pt x="192" y="834" on="1"/>
      </contour>
    </TTGlyph>
    <TTGlyph name="J" xMin="40" yMin="0" xMax="950" yMax="700">
      <contour>
        <pt x="40" y="0" on="1"/>
        <pt x="40" y="263" on="1"/>
        <pt x="301" y="227" on="1"/>
        <pt x="301" y="142" on="1"/>
        <pt x="689" y="142" on="1"/>
        <pt x="689" y="558" on="1"/>
        <pt x="540" y="558" on="1"/>
        <pt x="540" y="700" on="1"/>
        <pt x="950" y="700" on="1"/>
        <pt x="950" y="0" on="1"/>
      </contour>
    </TTGlyph>
    <TTGlyph name="Jcircumflex" xMin="40" yMin="0" xMax="1040" yMax="1014">
      <contour>
        <pt x="40" y="0" on="1"/>
        <pt x="40" y="263" on="1"/>
        <pt x="301" y="227" on="1"/>
        <pt x="301" y="142" on="1"/>
        <pt x="689" y="142" on="1"/>
        <pt x="689" y="558" on="1"/>
        <pt x="540" y="558" on="1"/>
        <pt x="540" y="700" on="1"/>
        <pt x="950" y="700" on="1"/>
        <pt x="950" y="0" on="1"/>
      </contour>
      <contour>
        <pt x="560" y="765" on="1"/>
        <pt x="560" y="934" on="1"/>
        <pt x="800" y="1014" on="1"/>
        <pt x="1040" y="934" on="1"/>
        <pt x="1040" y="765" on="1"/>
        <pt x="800" y="854" on="1"/>
      </contour>
    </TTGlyph>
    <TTGlyph name="K" xMin="0" yMin="0" xMax="1188" yMax="700">
      <contour>
        <pt x="0" y="115" on="1"/>
        <pt x="0" y="294" on="1"/>
        <pt x="149" y="334" on="1"/>
        <pt x="149" y="700" on="1"/>
        <pt x="410" y="700" on="1"/>
        <pt x="410" y="405" on="1"/>
        <pt x="921" y="543" on="1"/>
        <pt x="921" y="700" on="1"/>
        <pt x="1182" y="700" on="1"/>
        <pt x="1182" y="434" on="1"/>
        <pt x="790" y="328" on="1"/>
        <pt x="1015" y="150" on="1"/>
        <pt x="1188" y="150" on="1"/>
        <pt x="1188" y="0" on="1"/>
        <pt x="860" y="0" on="1"/>
        <pt x="531" y="259" on="1"/>
        <pt x="410" y="226" on="1"/>
        <pt x="410" y="0" on="1"/>
        <pt x="149" y="0" on="1"/>
        <pt x="149" y="155" on="1"/>
      </contour>
    </TTGlyph>
    <TTGlyph name="L" xMin="0" yMin="0" xMax="1089" yMax="700">
      <contour>
        <pt x="0" y="558" on="1"/>
        <pt x="0" y="700" on="1"/>
        <pt x="410" y="700" on="1"/>
        <pt x="410" y="142" on="1"/>
        <pt x="828" y="142" on="1"/>
        <pt x="828" y="227" on="1"/>
        <pt x="1089" y="263" on="1"/>
        <pt x="1089" y="0" on="1"/>
        <pt x="149" y="0" on="1"/>
        <pt x="149" y="558" on="1"/>
      </contour>
    </TTGlyph>
    <TTGlyph name="Lslash" xMin="20" yMin="0" xMax="1060" yMax="700">
      <contour>
        <pt x="20" y="90" on="1"/>
        <pt x="20" y="280" on="1"/>
        <pt x="120" y="357" on="1"/>
        <pt x="120" y="700" on="1"/>
        <pt x="381" y="700" on="1"/>
        <pt x="381" y="557" on="1"/>
        <pt x="501" y="650" on="1"/>
        <pt x="501" y="460" on="1"/>
        <pt x="381" y="367" on="1"/>
        <pt x="381" y="142" on="1"/>
        <pt x="799" y="142" on="1"/>
        <pt x="799" y="227" on="1"/>
        <pt x="1060" y="263" on="1"/>
        <pt x="1060" y="0" on="1"/>
        <pt x="120" y="0" on="1"/>
        <pt x="120" y="167" on="1"/>
      </contour>
    </TTGlyph>
    <TTGlyph name="M" xMin="100" yMin="0" xMax="1369" yMax="728">
      <contour>
        <pt x="100" y="0" on="1"/>
        <pt x="100" y="728" on="1"/>
        <pt x="735" y="541" on="1"/>
        <pt x="1369" y="728" on="1"/>
        <pt x="1369" y="0" on="1"/>
        <pt x="1023" y="0" on="1"/>
        <pt x="1023" y="142" on="1"/>
        <pt x="1108" y="142" on="1"/>
        <pt x="1108" y="484" on="1"/>
        <pt x="865" y="415" on="1"/>
        <pt x="865" y="0" on="1"/>
        <pt x="604" y="0" on="1"/>
        <pt x="604" y="415" on="1"/>
        <pt x="361" y="484" on="1"/>
        <pt x="361" y="142" on="1"/>
        <pt x="446" y="142" on="1"/>
        <pt x="446" y="0" on="1"/>
      </contour>
    </TTGlyph>
    <TTGlyph name="N" xMin="100" yMin="0" xMax="1139" yMax="728">
      <contour>
        <pt x="100" y="0" on="1"/>
        <pt x="100" y="728" on="1"/>
        <pt x="878" y="293" on="1"/>
        <pt x="878" y="558" on="1"/>
        <pt x="793" y="558" on="1"/>
        <pt x="793" y="700" on="1"/>
        <pt x="1139" y="700" on="1"/>
        <pt x="1139" y="0" on="1"/>
        <pt x="918" y="0" on="1"/>
        <pt x="361" y="320" on="1"/>
        <pt x="361" y="142" on="1"/>
        <pt x="446" y="142" on="1"/>
        <pt x="446" y="0" on="1"/>
      </contour>
    </TTGlyph>
    <TTGlyph name="Nacute" xMin="100" yMin="0" xMax="1139" yMax="960">
      <contour>
        <pt x="100" y="0" on="1"/>
        <pt x="100" y="728" on="1"/>
        <pt x="878" y="293" on="1"/>
        <pt x="878" y="558" on="1"/>
        <pt x="793" y="558" on="1"/>
        <pt x="793" y="700" on="1"/>
        <pt x="1139" y="700" on="1"/>
        <pt x="1139" y="0" on="1"/>
        <pt x="918" y="0" on="1"/>
        <pt x="361" y="320" on="1"/>
        <pt x="361" y="142" on="1"/>
        <pt x="446" y="142" on="1"/>
        <pt x="446" y="0" on="1"/>
      </contour>
      <contour>
        <pt x="497" y="730" on="1"/>
        <pt x="587" y="960" on="1"/>
        <pt x="837" y="960" on="1"/>
        <pt x="697" y="730" on="1"/>
      </contour>
    </TTGlyph>
    <TTGlyph name="Ntilde" xMin="100" yMin="0" xMax="1139" yMax="954">
      <contour>
        <pt x="100" y="0" on="1"/>
        <pt x="100" y="728" on="1"/>
        <pt x="878" y="293" on="1"/>
        <pt x="878" y="558" on="1"/>
        <pt x="793" y="558" on="1"/>
        <pt x="793" y="700" on="1"/>
        <pt x="1139" y="700" on="1"/>
        <pt x="1139" y="0" on="1"/>
        <pt x="918" y="0" on="1"/>
        <pt x="361" y="320" on="1"/>
        <pt x="361" y="142" on="1"/>
        <pt x="446" y="142" on="1"/>
        <pt x="446" y="0" on="1"/>
      </contour>
      <contour>
        <pt x="410" y="730" on="1"/>
        <pt x="410" y="879" on="1"/>
        <pt x="550" y="954" on="1"/>
        <pt x="690" y="880" on="1"/>
        <pt x="830" y="954" on="1"/>
        <pt x="830" y="805" on="1"/>
        <pt x="690" y="730" on="1"/>
        <pt x="550" y="804" on="1"/>
      </contour>
    </TTGlyph>
    <TTGlyph name="O" xMin="100" yMin="0" xMax="1139" yMax="700">
      <contour>
        <pt x="100" y="0" on="1"/>
        <pt x="100" y="700" on="1"/>
        <pt x="1139" y="700" on="1"/>
        <pt x="1139" y="0" on="1"/>
      </contour>
      <contour>
        <pt x="361" y="142" on="1"/>
        <pt x="878" y="142" on="1"/>
        <pt x="878" y="558" on="1"/>
        <pt x="361" y="558" on="1"/>
      </contour>
    </TTGlyph>
    <TTGlyph name="OE" xMin="100" yMin="0" xMax="1777" yMax="700">
      <contour>
        <pt x="100" y="0" on="1"/>
        <pt x="100" y="700" on="1"/>
        <pt x="1777" y="700" on="1"/>
        <pt x="1777" y="442" on="1"/>
        <pt x="1516" y="478" on="1"/>
        <pt x="1516" y="558" on="1"/>
        <pt x="1069" y="558" on="1"/>
        <pt x="1069" y="421" on="1"/>
        <pt x="1424" y="421" on="1"/>
        <pt x="1424" y="279" on="1"/>
        <pt x="1069" y="279" on="1"/>
        <pt x="1069" y="142" on="1"/>
        <pt x="1516" y="142" on="1"/>
        <pt x="1516" y="222" on="1"/>
        <pt x="1777" y="258" on="1"/>
        <pt x="1777" y="0" on="1"/>
      </contour>
      <contour>
        <pt x="361" y="142" on="1"/>
        <pt x="808" y="142" on="1"/>
        <pt x="808" y="558" on="1"/>
        <pt x="361" y="558" on="1"/>
      </contour>
    </TTGlyph>
    <TTGlyph name="Oacute" xMin="100" yMin="0" xMax="1139" yMax="1020">
      <contour>
        <pt x="100" y="0" on="1"/>
        <pt x="100" y="700" on="1"/>
        <pt x="1139" y="700" on="1"/>
        <pt x="1139" y="0" on="1"/>
      </contour>
      <contour>
        <pt x="361" y="142" on="1"/>
        <pt x="878" y="142" on="1"/>
        <pt x="878" y="558" on="1"/>
        <pt x="361" y="558" on="1"/>
      </contour>
      <contour>
        <pt x="507" y="790" on="1"/>
        <pt x="597" y="1020" on="1"/>
        <pt x="847" y="1020" on="1"/>
        <pt x="707" y="790" on="1"/>
      </contour>
    </TTGlyph>
    <TTGlyph name="Ocircumflex" xMin="100" yMin="0" xMax="1139" yMax="994">
      <contour>
        <pt x="100" y="0" on="1"/>
        <pt x="100" y="700" on="1"/>
        <pt x="1139" y="700" on="1"/>
        <pt x="1139" y="0" on="1"/>
      </contour>
      <contour>
        <pt x="361" y="142" on="1"/>
        <pt x="878" y="142" on="1"/>
        <pt x="878" y="558" on="1"/>
        <pt x="361" y="558" on="1"/>
      </contour>
      <contour>
        <pt x="370" y="745" on="1"/>
        <pt x="370" y="914" on="1"/>
        <pt x="610" y="994" on="1"/>
        <pt x="850" y="914" on="1"/>
        <pt x="850" y="745" on="1"/>
        <pt x="610" y="834" on="1"/>
      </contour>
    </TTGlyph>
    <TTGlyph name="Odieresis" xMin="100" yMin="0" xMax="1139" yMax="964">
      <contour>
        <pt x="100" y="0" on="1"/>
        <pt x="100" y="700" on="1"/>
        <pt x="1139" y="700" on="1"/>
        <pt x="1139" y="0" on="1"/>
      </contour>
      <contour>
        <pt x="333" y="755" on="1"/>
        <pt x="333" y="964" on="1"/>
        <pt x="595" y="964" on="1"/>
        <pt x="595" y="874" on="1"/>
      </contour>
      <contour>
        <pt x="361" y="142" on="1"/>
        <pt x="878" y="142" on="1"/>
        <pt x="878" y="558" on="1"/>
        <pt x="361" y="558" on="1"/>
      </contour>
      <contour>
        <pt x="660" y="755" on="1"/>
        <pt x="660" y="964" on="1"/>
        <pt x="922" y="964" on="1"/>
        <pt x="922" y="874" on="1"/>
      </contour>
    </TTGlyph>
    <TTGlyph name="Ograve" xMin="100" yMin="0" xMax="1139" yMax="1020">
      <contour>
        <pt x="100" y="0" on="1"/>
        <pt x="100" y="700" on="1"/>
        <pt x="1139" y="700" on="1"/>
        <pt x="1139" y="0" on="1"/>
      </contour>
      <contour>
        <pt x="361" y="142" on="1"/>
        <pt x="878" y="142" on="1"/>
        <pt x="878" y="558" on="1"/>
        <pt x="361" y="558" on="1"/>
      </contour>
      <contour>
        <pt x="387" y="1020" on="1"/>
        <pt x="637" y="1020" on="1"/>
        <pt x="727" y="790" on="1"/>
        <pt x="527" y="790" on="1"/>
      </contour>
    </TTGlyph>
    <TTGlyph name="Oslash" xMin="100" yMin="0" xMax="1129" yMax="700">
      <contour>
        <pt x="100" y="0" on="1"/>
        <pt x="100" y="700" on="1"/>
        <pt x="1129" y="700" on="1"/>
        <pt x="1129" y="0" on="1"/>
      </contour>
      <contour>
        <pt x="361" y="251" on="1"/>
        <pt x="759" y="558" on="1"/>
        <pt x="361" y="558" on="1"/>
      </contour>
      <contour>
        <pt x="470" y="142" on="1"/>
        <pt x="868" y="142" on="1"/>
        <pt x="868" y="449" on="1"/>
      </contour>
    </TTGlyph>
    <TTGlyph name="Otilde" xMin="100" yMin="0" xMax="1139" yMax="974">
      <contour>
        <pt x="100" y="0" on="1"/>
        <pt x="100" y="700" on="1"/>
        <pt x="1139" y="700" on="1"/>
        <pt x="1139" y="0" on="1"/>
      </contour>
      <contour>
        <pt x="361" y="142" on="1"/>
        <pt x="878" y="142" on="1"/>
        <pt x="878" y="558" on="1"/>
        <pt x="361" y="558" on="1"/>
      </contour>
      <contour>
        <pt x="400" y="750" on="1"/>
        <pt x="400" y="899" on="1"/>
        <pt x="540" y="974" on="1"/>
        <pt x="680" y="900" on="1"/>
        <pt x="820" y="974" on="1"/>
        <pt x="820" y="825" on="1"/>
        <pt x="680" y="750" on="1"/>
        <pt x="540" y="824" on="1"/>
      </contour>
    </TTGlyph>
    <TTGlyph name="P" xMin="0" yMin="0" xMax="1188" yMax="700">
      <contour>
        <pt x="0" y="138" on="1"/>
        <pt x="0" y="295" on="1"/>
        <pt x="149" y="320" on="1"/>
        <pt x="149" y="700" on="1"/>
        <pt x="1188" y="700" on="1"/>
        <pt x="1188" y="338" on="1"/>
        <pt x="410" y="207" on="1"/>
        <pt x="410" y="0" on="1"/>
        <pt x="149" y="0" on="1"/>
        <pt x="149" y="163" on="1"/>
      </contour>
      <contour>
        <pt x="410" y="364" on="1"/>
        <pt x="927" y="451" on="1"/>
        <pt x="927" y="558" on="1"/>
        <pt x="410" y="558" on="1"/>
      </contour>
    </TTGlyph>
    <TTGlyph name="Q" xMin="100" yMin="-150" xMax="1138" yMax="700">
      <contour>
        <pt x="100" y="0" on="1"/>
        <pt x="100" y="700" on="1"/>
        <pt x="819" y="700" on="1"/>
        <pt x="1138" y="530" on="1"/>
        <pt x="1138" y="0" on="1"/>
        <pt x="745" y="0" on="1"/>
        <pt x="745" y="-115" on="1"/>
        <pt x="493" y="-150" on="1"/>
        <pt x="493" y="0" on="1"/>
      </contour>
      <contour>
        <pt x="361" y="142" on="1"/>
        <pt x="496" y="142" on="1"/>
        <pt x="496" y="220" on="1"/>
        <pt x="742" y="220" on="1"/>
        <pt x="742" y="142" on="1"/>
        <pt x="877" y="142" on="1"/>
        <pt x="877" y="490" on="1"/>
        <pt x="749" y="558" on="1"/>
        <pt x="361" y="558" on="1"/>
      </contour>
    </TTGlyph>
    <TTGlyph name="R" xMin="0" yMin="0" xMax="1229" yMax="700">
      <contour>
        <pt x="0" y="156" on="1"/>
        <pt x="0" y="311" on="1"/>
        <pt x="149" y="336" on="1"/>
        <pt x="149" y="700" on="1"/>
        <pt x="1188" y="700" on="1"/>
        <pt x="1188" y="356" on="1"/>
        <pt x="886" y="305" on="1"/>
        <pt x="1229" y="0" on="1"/>
        <pt x="868" y="0" on="1"/>
        <pt x="583" y="254" on="1"/>
        <pt x="410" y="225" on="1"/>
        <pt x="410" y="0" on="1"/>
        <pt x="149" y="0" on="1"/>
        <pt x="149" y="181" on="1"/>
      </contour>
      <contour>
        <pt x="410" y="382" on="1"/>
        <pt x="927" y="469" on="1"/>
        <pt x="927" y="558" on="1"/>
        <pt x="410" y="558" on="1"/>
      </contour>
    </TTGlyph>
    <TTGlyph name="Racute" xMin="0" yMin="0" xMax="1229" yMax="1020">
      <contour>
        <pt x="0" y="156" on="1"/>
        <pt x="0" y="311" on="1"/>
        <pt x="149" y="336" on="1"/>
        <pt x="149" y="700" on="1"/>
        <pt x="1188" y="700" on="1"/>
        <pt x="1188" y="356" on="1"/>
        <pt x="886" y="305" on="1"/>
        <pt x="1229" y="0" on="1"/>
        <pt x="868" y="0" on="1"/>
        <pt x="583" y="254" on="1"/>
        <pt x="410" y="225" on="1"/>
        <pt x="410" y="0" on="1"/>
        <pt x="149" y="0" on="1"/>
        <pt x="149" y="181" on="1"/>
      </contour>
      <contour>
        <pt x="410" y="382" on="1"/>
        <pt x="927" y="469" on="1"/>
        <pt x="927" y="558" on="1"/>
        <pt x="410" y="558" on="1"/>
      </contour>
      <contour>
        <pt x="526" y="790" on="1"/>
        <pt x="616" y="1020" on="1"/>
        <pt x="866" y="1020" on="1"/>
        <pt x="726" y="790" on="1"/>
      </contour>
    </TTGlyph>
    <TTGlyph name="Rcaron" xMin="0" yMin="0" xMax="1229" yMax="994">
      <contour>
        <pt x="0" y="156" on="1"/>
        <pt x="0" y="311" on="1"/>
        <pt x="149" y="336" on="1"/>
        <pt x="149" y="700" on="1"/>
        <pt x="1188" y="700" on="1"/>
        <pt x="1188" y="356" on="1"/>
        <pt x="886" y="305" on="1"/>
        <pt x="1229" y="0" on="1"/>
        <pt x="868" y="0" on="1"/>
        <pt x="583" y="254" on="1"/>
        <pt x="410" y="225" on="1"/>
        <pt x="410" y="0" on="1"/>
        <pt x="149" y="0" on="1"/>
        <pt x="149" y="181" on="1"/>
      </contour>
      <contour>
        <pt x="409" y="825" on="1"/>
        <pt x="409" y="994" on="1"/>
        <pt x="649" y="905" on="1"/>
        <pt x="889" y="994" on="1"/>
        <pt x="889" y="825" on="1"/>
        <pt x="649" y="745" on="1"/>
      </contour>
      <contour>
        <pt x="410" y="382" on="1"/>
        <pt x="927" y="469" on="1"/>
        <pt x="927" y="558" on="1"/>
        <pt x="410" y="558" on="1"/>
      </contour>
    </TTGlyph>
    <TTGlyph name="Rcommaaccent" xMin="0" yMin="-255" xMax="1229" yMax="700">
      <contour>
        <pt x="0" y="156" on="1"/>
        <pt x="0" y="311" on="1"/>
        <pt x="149" y="336" on="1"/>
        <pt x="149" y="700" on="1"/>
        <pt x="1188" y="700" on="1"/>
        <pt x="1188" y="356" on="1"/>
        <pt x="886" y="305" on="1"/>
        <pt x="1229" y="0" on="1"/>
        <pt x="868" y="0" on="1"/>
        <pt x="583" y="254" on="1"/>
        <pt x="410" y="225" on="1"/>
        <pt x="410" y="0" on="1"/>
        <pt x="149" y="0" on="1"/>
        <pt x="149" y="181" on="1"/>
      </contour>
      <contour>
        <pt x="410" y="382" on="1"/>
        <pt x="927" y="469" on="1"/>
        <pt x="927" y="558" on="1"/>
        <pt x="410" y="558" on="1"/>
      </contour>
      <contour>
        <pt x="489" y="0" on="1"/>
        <pt x="750" y="0" on="1"/>
        <pt x="750" y="-122" on="1"/>
        <pt x="489" y="-255" on="1"/>
      </contour>
    </TTGlyph>
    <TTGlyph name="S" xMin="90" yMin="0" xMax="1118" yMax="700">
      <contour>
        <pt x="90" y="0" on="1"/>
        <pt x="90" y="230" on="1"/>
        <pt x="351" y="192" on="1"/>
        <pt x="351" y="142" on="1"/>
        <pt x="857" y="142" on="1"/>
        <pt x="857" y="230" on="1"/>
        <pt x="90" y="351" on="1"/>
        <pt x="90" y="700" on="1"/>
        <pt x="1118" y="700" on="1"/>
        <pt x="1118" y="457" on="1"/>
        <pt x="857" y="497" on="1"/>
        <pt x="857" y="558" on="1"/>
        <pt x="351" y="558" on="1"/>
        <pt x="351" y="463" on="1"/>
        <pt x="1118" y="342" on="1"/>
        <pt x="1118" y="0" on="1"/>
      </contour>
    </TTGlyph>
    <TTGlyph name="Scaron" xMin="90" yMin="0" xMax="1118" yMax="1014">
      <contour>
        <pt x="90" y="0" on="1"/>
        <pt x="90" y="230" on="1"/>
        <pt x="351" y="192" on="1"/>
        <pt x="351" y="142" on="1"/>
        <pt x="857" y="142" on="1"/>
        <pt x="857" y="230" on="1"/>
        <pt x="90" y="351" on="1"/>
        <pt x="90" y="700" on="1"/>
        <pt x="1118" y="700" on="1"/>
        <pt x="1118" y="457" on="1"/>
        <pt x="857" y="497" on="1"/>
        <pt x="857" y="558" on="1"/>
        <pt x="351" y="558" on="1"/>
        <pt x="351" y="463" on="1"/>
        <pt x="1118" y="342" on="1"/>
        <pt x="1118" y="0" on="1"/>
      </contour>
      <contour>
        <pt x="360" y="845" on="1"/>
        <pt x="360" y="1014" on="1"/>
        <pt x="600" y="925" on="1"/>
        <pt x="840" y="1014" on="1"/>
        <pt x="840" y="845" on="1"/>
        <pt x="600" y="765" on="1"/>
      </contour>
    </TTGlyph>
    <TTGlyph name="T" xMin="30" yMin="0" xMax="1149" yMax="700">
      <contour>
        <pt x="30" y="420" on="1"/>
        <pt x="30" y="700" on="1"/>
        <pt x="1149" y="700" on="1"/>
        <pt x="1149" y="420" on="1"/>
        <pt x="888" y="456" on="1"/>
        <pt x="888" y="558" on="1"/>
        <pt x="720" y="558" on="1"/>
        <pt x="720" y="0" on="1"/>
        <pt x="459" y="0" on="1"/>
        <pt x="459" y="558" on="1"/>
        <pt x="291" y="558" on="1"/>
        <pt x="291" y="456" on="1"/>
      </contour>
    </TTGlyph>
    <TTGlyph name="Thorn" xMin="100" yMin="0" xMax="1139" yMax="700">
      <contour>
        <pt x="100" y="0" on="1"/>
        <pt x="100" y="700" on="1"/>
        <pt x="361" y="700" on="1"/>
        <pt x="361" y="600" on="1"/>
        <pt x="1139" y="600" on="1"/>
        <pt x="1139" y="208" on="1"/>
        <pt x="361" y="77" on="1"/>
        <pt x="361" y="0" on="1"/>
      </contour>
      <contour>
        <pt x="361" y="234" on="1"/>
        <pt x="878" y="321" on="1"/>
        <pt x="878" y="458" on="1"/>
        <pt x="361" y="458" on="1"/>
      </contour>
    </TTGlyph>
    <TTGlyph name="U" xMin="0" yMin="0" xMax="1187" yMax="700">
      <contour>
        <pt x="0" y="558" on="1"/>
        <pt x="0" y="700" on="1"/>
        <pt x="410" y="700" on="1"/>
        <pt x="410" y="210" on="1"/>
        <pt x="538" y="142" on="1"/>
        <pt x="926" y="142" on="1"/>
        <pt x="926" y="700" on="1"/>
        <pt x="1187" y="700" on="1"/>
        <pt x="1187" y="0" on="1"/>
        <pt x="468" y="0" on="1"/>
        <pt x="149" y="170" on="1"/>
        <pt x="149" y="558" on="1"/>
      </contour>
    </TTGlyph>
    <TTGlyph name="Uacute" xMin="0" yMin="0" xMax="1187" yMax="960">
      <contour>
        <pt x="0" y="558" on="1"/>
        <pt x="0" y="700" on="1"/>
        <pt x="410" y="700" on="1"/>
        <pt x="410" y="210" on="1"/>
        <pt x="538" y="142" on="1"/>
        <pt x="926" y="142" on="1"/>
        <pt x="926" y="700" on="1"/>
        <pt x="1187" y="700" on="1"/>
        <pt x="1187" y="0" on="1"/>
        <pt x="468" y="0" on="1"/>
        <pt x="149" y="170" on="1"/>
        <pt x="149" y="558" on="1"/>
      </contour>
      <contour>
        <pt x="566" y="730" on="1"/>
        <pt x="656" y="960" on="1"/>
        <pt x="906" y="960" on="1"/>
        <pt x="766" y="730" on="1"/>
      </contour>
    </TTGlyph>
    <TTGlyph name="Ucircumflex" xMin="0" yMin="0" xMax="1187" yMax="974">
      <contour>
        <pt x="0" y="558" on="1"/>
        <pt x="0" y="700" on="1"/>
        <pt x="410" y="700" on="1"/>
        <pt x="410" y="210" on="1"/>
        <pt x="538" y="142" on="1"/>
        <pt x="926" y="142" on="1"/>
        <pt x="926" y="700" on="1"/>
        <pt x="1187" y="700" on="1"/>
        <pt x="1187" y="0" on="1"/>
        <pt x="468" y="0" on="1"/>
        <pt x="149" y="170" on="1"/>
        <pt x="149" y="558" on="1"/>
      </contour>
      <contour>
        <pt x="428" y="725" on="1"/>
        <pt x="428" y="894" on="1"/>
        <pt x="668" y="974" on="1"/>
        <pt x="908" y="894" on="1"/>
        <pt x="908" y="725" on="1"/>
        <pt x="668" y="814" on="1"/>
      </contour>
    </TTGlyph>
    <TTGlyph name="Udieresis" xMin="0" yMin="0" xMax="1187" yMax="954">
      <contour>
        <pt x="0" y="558" on="1"/>
        <pt x="0" y="700" on="1"/>
        <pt x="410" y="700" on="1"/>
        <pt x="410" y="210" on="1"/>
        <pt x="538" y="142" on="1"/>
        <pt x="926" y="142" on="1"/>
        <pt x="926" y="700" on="1"/>
        <pt x="1187" y="700" on="1"/>
        <pt x="1187" y="0" on="1"/>
        <pt x="468" y="0" on="1"/>
        <pt x="149" y="170" on="1"/>
        <pt x="149" y="558" on="1"/>
      </contour>
      <contour>
        <pt x="412" y="745" on="1"/>
        <pt x="412" y="954" on="1"/>
        <pt x="674" y="954" on="1"/>
        <pt x="674" y="864" on="1"/>
      </contour>
      <contour>
        <pt x="739" y="745" on="1"/>
        <pt x="739" y="954" on="1"/>
        <pt x="1001" y="954" on="1"/>
        <pt x="1001" y="864" on="1"/>
      </contour>
    </TTGlyph>
    <TTGlyph name="Ugrave" xMin="0" yMin="0" xMax="1187" yMax="960">
      <contour>
        <pt x="0" y="558" on="1"/>
        <pt x="0" y="700" on="1"/>
        <pt x="410" y="700" on="1"/>
        <pt x="410" y="210" on="1"/>
        <pt x="538" y="142" on="1"/>
        <pt x="926" y="142" on="1"/>
        <pt x="926" y="700" on="1"/>
        <pt x="1187" y="700" on="1"/>
        <pt x="1187" y="0" on="1"/>
        <pt x="468" y="0" on="1"/>
        <pt x="149" y="170" on="1"/>
        <pt x="149" y="558" on="1"/>
      </contour>
      <contour>
        <pt x="456" y="960" on="1"/>
        <pt x="706" y="960" on="1"/>
        <pt x="796" y="730" on="1"/>
        <pt x="596" y="730" on="1"/>
      </contour>
    </TTGlyph>
    <TTGlyph name="V" xMin="-10" yMin="0" xMax="1171" yMax="700">
      <contour>
        <pt x="-10" y="558" on="1"/>
        <pt x="-10" y="700" on="1"/>
        <pt x="330" y="700" on="1"/>
        <pt x="614" y="237" on="1"/>
        <pt x="896" y="700" on="1"/>
        <pt x="1171" y="700" on="1"/>
        <pt x="739" y="0" on="1"/>
        <pt x="485" y="0" on="1"/>
        <pt x="139" y="558" on="1"/>
      </contour>
    </TTGlyph>
    <TTGlyph name="W" xMin="-10" yMin="0" xMax="1558" yMax="700">
      <contour>
        <pt x="-10" y="558" on="1"/>
        <pt x="-10" y="700" on="1"/>
        <pt x="338" y="700" on="1"/>
        <pt x="523" y="231" on="1"/>
        <pt x="701" y="700" on="1"/>
        <pt x="945" y="700" on="1"/>
        <pt x="1123" y="224" on="1"/>
        <pt x="1308" y="700" on="1"/>
        <pt x="1558" y="700" on="1"/>
        <pt x="1286" y="0" on="1"/>
        <pt x="969" y="0" on="1"/>
        <pt x="823" y="395" on="1"/>
        <pt x="677" y="0" on="1"/>
        <pt x="360" y="0" on="1"/>
        <pt x="139" y="558" on="1"/>
      </contour>
    </TTGlyph>
    <TTGlyph name="X" xMin="20" yMin="0" xMax="1160" yMax="700">
      <contour>
        <pt x="20" y="558" on="1"/>
        <pt x="20" y="700" on="1"/>
        <pt x="360" y="700" on="1"/>
        <pt x="600" y="485" on="1"/>
        <pt x="830" y="700" on="1"/>
        <pt x="1155" y="700" on="1"/>
        <pt x="780" y="350" on="1"/>
        <pt x="1010" y="142" on="1"/>
        <pt x="1160" y="142" on="1"/>
        <pt x="1160" y="0" on="1"/>
        <pt x="820" y="0" on="1"/>
        <pt x="580" y="215" on="1"/>
        <pt x="350" y="0" on="1"/>
        <pt x="25" y="0" on="1"/>
        <pt x="400" y="350" on="1"/>
        <pt x="170" y="558" on="1"/>
      </contour>
    </TTGlyph>
    <TTGlyph name="Y" xMin="-10" yMin="0" xMax="1148" yMax="700">
      <contour>
        <pt x="-10" y="558" on="1"/>
        <pt x="-10" y="700" on="1"/>
        <pt x="317" y="700" on="1"/>
        <pt x="592" y="409" on="1"/>
        <pt x="841" y="700" on="1"/>
        <pt x="1148" y="700" on="1"/>
        <pt x="722" y="202" on="1"/>
        <pt x="722" y="0" on="1"/>
        <pt x="461" y="0" on="1"/>
        <pt x="461" y="215" on="1"/>
        <pt x="137" y="558" on="1"/>
      </contour>
    </TTGlyph>
    <TTGlyph name="Yacute" xMin="-10" yMin="0" xMax="1148" yMax="950">
      <contour>
        <pt x="-10" y="558" on="1"/>
        <pt x="-10" y="700" on="1"/>
        <pt x="317" y="700" on="1"/>
        <pt x="592" y="409" on="1"/>
        <pt x="841" y="700" on="1"/>
        <pt x="1148" y="700" on="1"/>
        <pt x="722" y="202" on="1"/>
        <pt x="722" y="0" on="1"/>
        <pt x="461" y="0" on="1"/>
        <pt x="461" y="215" on="1"/>
        <pt x="137" y="558" on="1"/>
      </contour>
      <contour>
        <pt x="477" y="720" on="1"/>
        <pt x="567" y="950" on="1"/>
        <pt x="817" y="950" on="1"/>
        <pt x="677" y="720" on="1"/>
      </contour>
    </TTGlyph>
    <TTGlyph name="Ydieresis" xMin="-10" yMin="0" xMax="1148" yMax="954">
      <contour>
        <pt x="-10" y="558" on="1"/>
        <pt x="-10" y="700" on="1"/>
        <pt x="317" y="700" on="1"/>
        <pt x="592" y="409" on="1"/>
        <pt x="841" y="700" on="1"/>
        <pt x="1148" y="700" on="1"/>
        <pt x="722" y="202" on="1"/>
        <pt x="722" y="0" on="1"/>
        <pt x="461" y="0" on="1"/>
        <pt x="461" y="215" on="1"/>
        <pt x="137" y="558" on="1"/>
      </contour>
      <contour>
        <pt x="313" y="745" on="1"/>
        <pt x="313" y="954" on="1"/>
        <pt x="575" y="954" on="1"/>
        <pt x="575" y="864" on="1"/>
      </contour>
      <contour>
        <pt x="640" y="745" on="1"/>
        <pt x="640" y="954" on="1"/>
        <pt x="902" y="954" on="1"/>
        <pt x="902" y="864" on="1"/>
      </contour>
    </TTGlyph>
    <TTGlyph name="Z" xMin="90" yMin="0" xMax="1138" yMax="700">
      <contour>
        <pt x="90" y="0" on="1"/>
        <pt x="90" y="229" on="1"/>
        <pt x="852" y="558" on="1"/>
        <pt x="351" y="558" on="1"/>
        <pt x="351" y="477" on="1"/>
        <pt x="90" y="437" on="1"/>
        <pt x="90" y="700" on="1"/>
        <pt x="1138" y="700" on="1"/>
        <pt x="1138" y="471" on="1"/>
        <pt x="376" y="142" on="1"/>
        <pt x="877" y="142" on="1"/>
        <pt x="877" y="212" on="1"/>
        <pt x="1138" y="250" on="1"/>
        <pt x="1138" y="0" on="1"/>
      </contour>
    </TTGlyph>
    <TTGlyph name="Zcaron" xMin="90" yMin="0" xMax="1138" yMax="1014">
      <contour>
        <pt x="90" y="0" on="1"/>
        <pt x="90" y="229" on="1"/>
        <pt x="852" y="558" on="1"/>
        <pt x="351" y="558" on="1"/>
        <pt x="351" y="477" on="1"/>
        <pt x="90" y="437" on="1"/>
        <pt x="90" y="700" on="1"/>
        <pt x="1138" y="700" on="1"/>
        <pt x="1138" y="471" on="1"/>
        <pt x="376" y="142" on="1"/>
        <pt x="877" y="142" on="1"/>
        <pt x="877" y="212" on="1"/>
        <pt x="1138" y="250" on="1"/>
        <pt x="1138" y="0" on="1"/>
      </contour>
      <contour>
        <pt x="360" y="845" on="1"/>
        <pt x="360" y="1014" on="1"/>
        <pt x="600" y="925" on="1"/>
        <pt x="840" y="1014" on="1"/>
        <pt x="840" y="845" on="1"/>
        <pt x="600" y="765" on="1"/>
      </contour>
    </TTGlyph>
    <TTGlyph name="a" xMin="90" yMin="0" xMax="985" yMax="530">
      <contour>
        <pt x="90" y="0" on="1"/>
        <pt x="90" y="265" on="1"/>
        <pt x="735" y="345" on="1"/>
        <pt x="735" y="400" on="1"/>
        <pt x="340" y="400" on="1"/>
        <pt x="340" y="355" on="1"/>
        <pt x="90" y="330" on="1"/>
        <pt x="90" y="530" on="1"/>
        <pt x="985" y="530" on="1"/>
        <pt x="985" y="0" on="1"/>
        <pt x="806" y="0" on="1"/>
        <pt x="755" y="50" on="1"/>
        <pt x="705" y="0" on="1"/>
      </contour>
      <contour>
        <pt x="340" y="130" on="1"/>
        <pt x="735" y="130" on="1"/>
        <pt x="735" y="224" on="1"/>
        <pt x="340" y="175" on="1"/>
      </contour>
    </TTGlyph>
    <TTGlyph name="aacute" xMin="90" yMin="0" xMax="985" yMax="830">
      <contour>
        <pt x="90" y="0" on="1"/>
        <pt x="90" y="265" on="1"/>
        <pt x="735" y="345" on="1"/>
        <pt x="735" y="400" on="1"/>
        <pt x="340" y="400" on="1"/>
        <pt x="340" y="355" on="1"/>
        <pt x="90" y="330" on="1"/>
        <pt x="90" y="530" on="1"/>
        <pt x="985" y="530" on="1"/>
        <pt x="985" y="0" on="1"/>
        <pt x="806" y="0" on="1"/>
        <pt x="755" y="50" on="1"/>
        <pt x="705" y="0" on="1"/>
      </contour>
      <contour>
        <pt x="340" y="130" on="1"/>
        <pt x="735" y="130" on="1"/>
        <pt x="735" y="224" on="1"/>
        <pt x="340" y="175" on="1"/>
      </contour>
      <contour>
        <pt x="442" y="610" on="1"/>
        <pt x="522" y="830" on="1"/>
        <pt x="762" y="830" on="1"/>
        <pt x="632" y="610" on="1"/>
      </contour>
    </TTGlyph>
    <TTGlyph name="acircumflex" xMin="90" yMin="0" xMax="985" yMax="813">
      <contour>
        <pt x="90" y="0" on="1"/>
        <pt x="90" y="265" on="1"/>
        <pt x="735" y="345" on="1"/>
        <pt x="735" y="400" on="1"/>
        <pt x="340" y="400" on="1"/>
        <pt x="340" y="355" on="1"/>
        <pt x="90" y="330" on="1"/>
        <pt x="90" y="530" on="1"/>
        <pt x="985" y="530" on="1"/>
        <pt x="985" y="0" on="1"/>
        <pt x="806" y="0" on="1"/>
        <pt x="755" y="50" on="1"/>
        <pt x="705" y="0" on="1"/>
      </contour>
      <contour>
        <pt x="309" y="584" on="1"/>
        <pt x="309" y="743" on="1"/>
        <pt x="529" y="813" on="1"/>
        <pt x="749" y="743" on="1"/>
        <pt x="749" y="584" on="1"/>
        <pt x="529" y="663" on="1"/>
      </contour>
      <contour>
        <pt x="340" y="130" on="1"/>
        <pt x="735" y="130" on="1"/>
        <pt x="735" y="224" on="1"/>
        <pt x="340" y="175" on="1"/>
      </contour>
    </TTGlyph>
    <TTGlyph name="acute" xMin="0" yMin="730" xMax="340" yMax="960">
      <contour>
        <pt x="0" y="730" on="1"/>
        <pt x="90" y="960" on="1"/>
        <pt x="340" y="960" on="1"/>
        <pt x="200" y="730" on="1"/>
      </contour>
    </TTGlyph>
    <TTGlyph name="adieresis" xMin="90" yMin="0" xMax="985" yMax="784">
      <contour>
        <pt x="90" y="0" on="1"/>
        <pt x="90" y="265" on="1"/>
        <pt x="735" y="345" on="1"/>
        <pt x="735" y="400" on="1"/>
        <pt x="340" y="400" on="1"/>
        <pt x="340" y="355" on="1"/>
        <pt x="90" y="330" on="1"/>
        <pt x="90" y="530" on="1"/>
        <pt x="985" y="530" on="1"/>
        <pt x="985" y="0" on="1"/>
        <pt x="806" y="0" on="1"/>
        <pt x="755" y="50" on="1"/>
        <pt x="705" y="0" on="1"/>
      </contour>
      <contour>
        <pt x="273" y="575" on="1"/>
        <pt x="273" y="784" on="1"/>
        <pt x="525" y="784" on="1"/>
        <pt x="525" y="694" on="1"/>
      </contour>
      <contour>
        <pt x="340" y="130" on="1"/>
        <pt x="735" y="130" on="1"/>
        <pt x="735" y="224" on="1"/>
        <pt x="340" y="175" on="1"/>
      </contour>
      <contour>
        <pt x="590" y="575" on="1"/>
        <pt x="590" y="784" on="1"/>
        <pt x="842" y="784" on="1"/>
        <pt x="842" y="694" on="1"/>
      </contour>
    </TTGlyph>
    <TTGlyph name="ae" xMin="90" yMin="0" xMax="1510" yMax="530">
      <contour>
        <pt x="90" y="0" on="1"/>
        <pt x="90" y="265" on="1"/>
        <pt x="675" y="345" on="1"/>
        <pt x="675" y="400" on="1"/>
        <pt x="340" y="400" on="1"/>
        <pt x="340" y="355" on="1"/>
        <pt x="90" y="330" on="1"/>
        <pt x="90" y="530" on="1"/>
        <pt x="1510" y="530" on="1"/>
        <pt x="1510" y="266" on="1"/>
        <pt x="925" y="176" on="1"/>
        <pt x="925" y="130" on="1"/>
        <pt x="1260" y="130" on="1"/>
        <pt x="1260" y="175" on="1"/>
        <pt x="1510" y="200" on="1"/>
        <pt x="1510" y="0" on="1"/>
      </contour>
      <contour>
        <pt x="340" y="130" on="1"/>
        <pt x="675" y="130" on="1"/>
        <pt x="675" y="224" on="1"/>
        <pt x="340" y="175" on="1"/>
      </contour>
      <contour>
        <pt x="925" y="305" on="1"/>
        <pt x="1260" y="356" on="1"/>
        <pt x="1260" y="400" on="1"/>
        <pt x="925" y="400" on="1"/>
      </contour>
    </TTGlyph>
    <TTGlyph name="afii10017" xMin="10" yMin="0" xMax="1129" yMax="700">
      <contour>
        <pt x="10" y="0" on="1"/>
        <pt x="254" y="558" on="1"/>
        <pt x="130" y="558" on="1"/>
        <pt x="130" y="700" on="1"/>
        <pt x="825" y="700" on="1"/>
        <pt x="1129" y="0" on="1"/>
        <pt x="859" y="0" on="1"/>
        <pt x="783" y="175" on="1"/>
        <pt x="357" y="175" on="1"/>
        <pt x="281" y="0" on="1"/>
      </contour>
      <contour>
        <pt x="419" y="317" on="1"/>
        <pt x="721" y="317" on="1"/>
        <pt x="615" y="558" on="1"/>
        <pt x="525" y="558" on="1"/>
      </contour>
    </TTGlyph>
    <TTGlyph name="afii10018" xMin="0" yMin="0" xMax="1189" yMax="700">
      <contour>
        <pt x="0" y="389" on="1"/>
        <pt x="0" y="545" on="1"/>
        <pt x="150" y="520" on="1"/>
        <pt x="150" y="700" on="1"/>
        <pt x="1189" y="700" on="1"/>
        <pt x="1189" y="477" on="1"/>
        <pt x="928" y="504" on="1"/>
        <pt x="928" y="558" on="1"/>
        <pt x="411" y="558" on="1"/>
        <pt x="411" y="476" on="1"/>
        <pt x="1189" y="345" on="1"/>
        <pt x="1189" y="0" on="1"/>
        <pt x="150" y="0" on="1"/>
        <pt x="150" y="364" on="1"/>
      </contour>
      <contour>
        <pt x="411" y="142" on="1"/>
        <pt x="928" y="142" on="1"/>
        <pt x="928" y="232" on="1"/>
        <pt x="411" y="319" on="1"/>
      </contour>
    </TTGlyph>
    <TTGlyph name="afii10019" xMin="0" yMin="0" xMax="1188" yMax="700">
      <contour>
        <pt x="0" y="558" on="1"/>
        <pt x="0" y="700" on="1"/>
        <pt x="1188" y="700" on="1"/>
        <pt x="1188" y="425" on="1"/>
        <pt x="959" y="350" on="1"/>
        <pt x="1188" y="275" on="1"/>
        <pt x="1188" y="0" on="1"/>
        <pt x="149" y="0" on="1"/>
        <pt x="149" y="558" on="1"/>
      </contour>
      <contour>
        <pt x="410" y="142" on="1"/>
        <pt x="927" y="142" on="1"/>
        <pt x="927" y="193" on="1"/>
        <pt x="730" y="279" on="1"/>
        <pt x="410" y="279" on="1"/>
      </contour>
      <contour>
        <pt x="410" y="421" on="1"/>
        <pt x="730" y="421" on="1"/>
        <pt x="927" y="507" on="1"/>
        <pt x="927" y="558" on="1"/>
        <pt x="410" y="558" on="1"/>
      </contour>
    </TTGlyph>
    <TTGlyph name="afii10020" xMin="0" yMin="0" xMax="1085" yMax="700">
      <contour>
        <pt x="0" y="558" on="1"/>
        <pt x="0" y="700" on="1"/>
        <pt x="1085" y="700" on="1"/>
        <pt x="1085" y="427" on="1"/>
        <pt x="824" y="463" on="1"/>
        <pt x="824" y="558" on="1"/>
        <pt x="410" y="558" on="1"/>
        <pt x="410" y="0" on="1"/>
        <pt x="149" y="0" on="1"/>
        <pt x="149" y="558" on="1"/>
      </contour>
    </TTGlyph>
    <TTGlyph name="afii10021" xMin="0" yMin="-125" xMax="1249" yMax="700">
      <contour>
        <pt x="0" y="-125" on="1"/>
        <pt x="0" y="142" on="1"/>
        <pt x="172" y="142" on="1"/>
        <pt x="352" y="558" on="1"/>
        <pt x="228" y="558" on="1"/>
        <pt x="228" y="700" on="1"/>
        <pt x="1082" y="700" on="1"/>
        <pt x="1082" y="142" on="1"/>
        <pt x="1249" y="142" on="1"/>
        <pt x="1249" y="0" on="1"/>
        <pt x="260" y="0" on="1"/>
        <pt x="260" y="-125" on="1"/>
      </contour>
      <contour>
        <pt x="442" y="142" on="1"/>
        <pt x="821" y="142" on="1"/>
        <pt x="821" y="558" on="1"/>
        <pt x="623" y="558" on="1"/>
      </contour>
    </TTGlyph>
    <TTGlyph name="afii10022" xMin="0" yMin="0" xMax="1189" yMax="700">
      <contour>
        <pt x="0" y="558" on="1"/>
        <pt x="0" y="700" on="1"/>
        <pt x="1189" y="700" on="1"/>
        <pt x="1189" y="442" on="1"/>
        <pt x="928" y="478" on="1"/>
        <pt x="928" y="558" on="1"/>
        <pt x="411" y="558" on="1"/>
        <pt x="411" y="421" on="1"/>
        <pt x="836" y="421" on="1"/>
        <pt x="836" y="279" on="1"/>
        <pt x="411" y="279" on="1"/>
        <pt x="411" y="142" on="1"/>
        <pt x="928" y="142" on="1"/>
        <pt x="928" y="222" on="1"/>
        <pt x="1189" y="258" on="1"/>
        <pt x="1189" y="0" on="1"/>
        <pt x="150" y="0" on="1"/>
        <pt x="150" y="558" on="1"/>
      </contour>
    </TTGlyph>
    <TTGlyph name="afii10023" xMin="0" yMin="0" xMax="1189" yMax="984">
      <contour>
        <pt x="0" y="558" on="1"/>
        <pt x="0" y="700" on="1"/>
        <pt x="1189" y="700" on="1"/>
        <pt x="1189" y="442" on="1"/>
        <pt x="928" y="478" on="1"/>
        <pt x="928" y="558" on="1"/>
        <pt x="411" y="558" on="1"/>
        <pt x="411" y="421" on="1"/>
        <pt x="836" y="421" on="1"/>
        <pt x="836" y="279" on="1"/>
        <pt x="411" y="279" on="1"/>
        <pt x="411" y="142" on="1"/>
        <pt x="928" y="142" on="1"/>
        <pt x="928" y="222" on="1"/>
        <pt x="1189" y="258" on="1"/>
        <pt x="1189" y="0" on="1"/>
        <pt x="150" y="0" on="1"/>
        <pt x="150" y="558" on="1"/>
      </contour>
      <contour>
        <pt x="350" y="775" on="1"/>
        <pt x="350" y="984" on="1"/>
        <pt x="612" y="984" on="1"/>
        <pt x="612" y="894" on="1"/>
      </contour>
      <contour>
        <pt x="720" y="775" on="1"/>
        <pt x="720" y="984" on="1"/>
        <pt x="982" y="984" on="1"/>
        <pt x="982" y="894" on="1"/>
      </contour>
    </TTGlyph>
    <TTGlyph name="afii10024" xMin="70" yMin="0" xMax="1395" yMax="700">
      <contour>
        <pt x="70" y="0" on="1"/>
        <pt x="70" y="150" on="1"/>
        <pt x="226" y="150" on="1"/>
        <pt x="375" y="335" on="1"/>
        <pt x="80" y="465" on="1"/>
        <pt x="80" y="700" on="1"/>
        <pt x="341" y="700" on="1"/>
        <pt x="341" y="545" on="1"/>
        <pt x="602" y="431" on="1"/>
        <pt x="602" y="700" on="1"/>
        <pt x="863" y="700" on="1"/>
        <pt x="863" y="431" on="1"/>
        <pt x="1124" y="545" on="1"/>
        <pt x="1124" y="700" on="1"/>
        <pt x="1385" y="700" on="1"/>
        <pt x="1385" y="465" on="1"/>
        <pt x="1090" y="335" on="1"/>
        <pt x="1239" y="150" on="1"/>
        <pt x="1395" y="150" on="1"/>
        <pt x="1395" y="0" on="1"/>
        <pt x="1079" y="0" on="1"/>
        <pt x="863" y="267" on="1"/>
        <pt x="863" y="0" on="1"/>
        <pt x="602" y="0" on="1"/>
        <pt x="602" y="267" on="1"/>
        <pt x="386" y="0" on="1"/>
      </contour>
    </TTGlyph>
    <TTGlyph name="afii10025" xMin="80" yMin="0" xMax="1113" yMax="700">
      <contour>
        <pt x="80" y="0" on="1"/>
        <pt x="80" y="245" on="1"/>
        <pt x="341" y="224" on="1"/>
        <pt x="341" y="142" on="1"/>
        <pt x="852" y="142" on="1"/>
        <pt x="852" y="193" on="1"/>
        <pt x="656" y="279" on="1"/>
        <pt x="432" y="279" on="1"/>
        <pt x="432" y="421" on="1"/>
        <pt x="656" y="421" on="1"/>
        <pt x="852" y="507" on="1"/>
        <pt x="852" y="558" on="1"/>
        <pt x="341" y="558" on="1"/>
        <pt x="341" y="476" on="1"/>
        <pt x="80" y="455" on="1"/>
        <pt x="80" y="700" on="1"/>
        <pt x="1113" y="700" on="1"/>
        <pt x="1113" y="425" on="1"/>
        <pt x="884" y="350" on="1"/>
        <pt x="1113" y="275" on="1"/>
        <pt x="1113" y="0" on="1"/>
      </contour>
    </TTGlyph>
    <TTGlyph name="afii10026" xMin="100" yMin="0" xMax="1288" yMax="700">
      <contour>
        <pt x="100" y="0" on="1"/>
        <pt x="100" y="700" on="1"/>
        <pt x="361" y="700" on="1"/>
        <pt x="361" y="286" on="1"/>
        <pt x="878" y="513" on="1"/>
        <pt x="878" y="700" on="1"/>
        <pt x="1139" y="700" on="1"/>
        <pt x="1139" y="628" on="1"/>
        <pt x="1288" y="693" on="1"/>
        <pt x="1288" y="506" on="1"/>
        <pt x="1139" y="441" on="1"/>
        <pt x="1139" y="0" on="1"/>
        <pt x="878" y="0" on="1"/>
        <pt x="878" y="326" on="1"/>
        <pt x="361" y="99" on="1"/>
        <pt x="361" y="0" on="1"/>
      </contour>
    </TTGlyph>
    <TTGlyph name="afii10027" xMin="100" yMin="0" xMax="1288" yMax="1000">
      <contour>
        <pt x="100" y="0" on="1"/>
        <pt x="100" y="700" on="1"/>
        <pt x="361" y="700" on="1"/>
        <pt x="361" y="286" on="1"/>
        <pt x="878" y="513" on="1"/>
        <pt x="878" y="700" on="1"/>
        <pt x="1139" y="700" on="1"/>
        <pt x="1139" y="628" on="1"/>
        <pt x="1288" y="693" on="1"/>
        <pt x="1288" y="506" on="1"/>
        <pt x="1139" y="441" on="1"/>
        <pt x="1139" y="0" on="1"/>
        <pt x="878" y="0" on="1"/>
        <pt x="878" y="326" on="1"/>
        <pt x="361" y="99" on="1"/>
        <pt x="361" y="0" on="1"/>
      </contour>
      <contour>
        <pt x="460" y="685" on="1"/>
        <pt x="460" y="815" on="1"/>
        <pt x="585" y="870" on="1"/>
        <pt x="585" y="1000" on="1"/>
        <pt x="845" y="1000" on="1"/>
        <pt x="845" y="860" on="1"/>
      </contour>
    </TTGlyph>
    <TTGlyph name="afii10028" xMin="0" yMin="0" xMax="1188" yMax="700">
      <contour>
        <pt x="0" y="135" on="1"/>
        <pt x="0" y="314" on="1"/>
        <pt x="149" y="354" on="1"/>
        <pt x="149" y="700" on="1"/>
        <pt x="410" y="700" on="1"/>
        <pt x="410" y="425" on="1"/>
        <pt x="921" y="563" on="1"/>
        <pt x="921" y="700" on="1"/>
        <pt x="1182" y="700" on="1"/>
        <pt x="1182" y="454" on="1"/>
        <pt x="779" y="345" on="1"/>
        <pt x="1015" y="150" on="1"/>
        <pt x="1188" y="150" on="1"/>
        <pt x="1188" y="0" on="1"/>
        <pt x="860" y="0" on="1"/>
        <pt x="531" y="279" on="1"/>
        <pt x="410" y="246" on="1"/>
        <pt x="410" y="0" on="1"/>
        <pt x="149" y="0" on="1"/>
        <pt x="149" y="175" on="1"/>
      </contour>
    </TTGlyph>
    <TTGlyph name="afii10029" xMin="10" yMin="0" xMax="1129" yMax="700">
      <contour>
        <pt x="10" y="0" on="1"/>
        <pt x="254" y="558" on="1"/>
        <pt x="130" y="558" on="1"/>
        <pt x="130" y="700" on="1"/>
        <pt x="825" y="700" on="1"/>
        <pt x="1129" y="0" on="1"/>
        <pt x="859" y="0" on="1"/>
        <pt x="615" y="558" on="1"/>
        <pt x="525" y="558" on="1"/>
        <pt x="281" y="0" on="1"/>
      </contour>
    </TTGlyph>
    <TTGlyph name="afii10030" xMin="100" yMin="0" xMax="1369" yMax="728">
      <contour>
        <pt x="100" y="0" on="1"/>
        <pt x="100" y="728" on="1"/>
        <pt x="735" y="541" on="1"/>
        <pt x="1369" y="728" on="1"/>
        <pt x="1369" y="0" on="1"/>
        <pt x="1023" y="0" on="1"/>
        <pt x="1023" y="142" on="1"/>
        <pt x="1108" y="142" on="1"/>
        <pt x="1108" y="484" on="1"/>
        <pt x="865" y="415" on="1"/>
        <pt x="865" y="0" on="1"/>
        <pt x="604" y="0" on="1"/>
        <pt x="604" y="415" on="1"/>
        <pt x="361" y="484" on="1"/>
        <pt x="361" y="142" on="1"/>
        <pt x="446" y="142" on="1"/>
        <pt x="446" y="0" on="1"/>
      </contour>
    </TTGlyph>
    <TTGlyph name="afii10031" xMin="0" yMin="0" xMax="1187" yMax="700">
      <contour>
        <pt x="0" y="558" on="1"/>
        <pt x="0" y="700" on="1"/>
        <pt x="410" y="700" on="1"/>
        <pt x="410" y="423" on="1"/>
        <pt x="926" y="423" on="1"/>
        <pt x="926" y="700" on="1"/>
        <pt x="1187" y="700" on="1"/>
        <pt x="1187" y="0" on="1"/>
        <pt x="926" y="0" on="1"/>
        <pt x="926" y="281" on="1"/>
        <pt x="410" y="281" on="1"/>
        <pt x="410" y="0" on="1"/>
        <pt x="149" y="0" on="1"/>
        <pt x="149" y="558" on="1"/>
      </contour>
    </TTGlyph>
    <TTGlyph name="afii10032" xMin="100" yMin="0" xMax="1139" yMax="700">
      <contour>
        <pt x="100" y="0" on="1"/>
        <pt x="100" y="700" on="1"/>
        <pt x="1139" y="700" on="1"/>
        <pt x="1139" y="0" on="1"/>
      </contour>
      <contour>
        <pt x="361" y="142" on="1"/>
        <pt x="878" y="142" on="1"/>
        <pt x="878" y="558" on="1"/>
        <pt x="361" y="558" on="1"/>
      </contour>
    </TTGlyph>
    <TTGlyph name="afii10033" xMin="0" yMin="0" xMax="1188" yMax="700">
      <contour>
        <pt x="0" y="558" on="1"/>
        <pt x="0" y="700" on="1"/>
        <pt x="1188" y="700" on="1"/>
        <pt x="1188" y="0" on="1"/>
        <pt x="927" y="0" on="1"/>
        <pt x="927" y="558" on="1"/>
        <pt x="410" y="558" on="1"/>
        <pt x="410" y="0" on="1"/>
        <pt x="149" y="0" on="1"/>
        <pt x="149" y="558" on="1"/>
      </contour>
    </TTGlyph>
    <TTGlyph name="afii10034" xMin="0" yMin="0" xMax="1188" yMax="700">
      <contour>
        <pt x="0" y="138" on="1"/>
        <pt x="0" y="295" on="1"/>
        <pt x="149" y="320" on="1"/>
        <pt x="149" y="700" on="1"/>
        <pt x="1188" y="700" on="1"/>
        <pt x="1188" y="338" on="1"/>
        <pt x="410" y="207" on="1"/>
        <pt x="410" y="0" on="1"/>
        <pt x="149" y="0" on="1"/>
        <pt x="149" y="163" on="1"/>
      </contour>
      <contour>
        <pt x="410" y="364" on="1"/>
        <pt x="927" y="451" on="1"/>
        <pt x="927" y="558" on="1"/>
        <pt x="410" y="558" on="1"/>
      </contour>
    </TTGlyph>
    <TTGlyph name="afii10035" xMin="0" yMin="0" xMax="1188" yMax="700">
      <contour>
        <pt x="0" y="558" on="1"/>
        <pt x="0" y="700" on="1"/>
        <pt x="1188" y="700" on="1"/>
        <pt x="1188" y="442" on="1"/>
        <pt x="927" y="478" on="1"/>
        <pt x="927" y="558" on="1"/>
        <pt x="410" y="558" on="1"/>
        <pt x="410" y="142" on="1"/>
        <pt x="927" y="142" on="1"/>
        <pt x="927" y="222" on="1"/>
        <pt x="1188" y="258" on="1"/>
        <pt x="1188" y="0" on="1"/>
        <pt x="149" y="0" on="1"/>
        <pt x="149" y="558" on="1"/>
      </contour>
    </TTGlyph>
    <TTGlyph name="afii10036" xMin="30" yMin="0" xMax="1149" yMax="700">
      <contour>
        <pt x="30" y="420" on="1"/>
        <pt x="30" y="700" on="1"/>
        <pt x="1149" y="700" on="1"/>
        <pt x="1149" y="420" on="1"/>
        <pt x="888" y="456" on="1"/>
        <pt x="888" y="558" on="1"/>
        <pt x="720" y="558" on="1"/>
        <pt x="720" y="0" on="1"/>
        <pt x="459" y="0" on="1"/>
        <pt x="459" y="558" on="1"/>
        <pt x="291" y="558" on="1"/>
        <pt x="291" y="456" on="1"/>
      </contour>
    </TTGlyph>
    <TTGlyph name="afii10037" xMin="-10" yMin="0" xMax="1168" yMax="700">
      <contour>
        <pt x="-10" y="558" on="1"/>
        <pt x="-10" y="700" on="1"/>
        <pt x="328" y="700" on="1"/>
        <pt x="629" y="362" on="1"/>
        <pt x="870" y="700" on="1"/>
        <pt x="1168" y="700" on="1"/>
        <pt x="669" y="0" on="1"/>
        <pt x="295" y="0" on="1"/>
        <pt x="295" y="142" on="1"/>
        <pt x="475" y="142" on="1"/>
        <pt x="530" y="220" on="1"/>
        <pt x="428" y="220" on="1"/>
        <pt x="127" y="558" on="1"/>
      </contour>
    </TTGlyph>
    <TTGlyph name="afii10038" xMin="100" yMin="-126" xMax="1264" yMax="806">
      <contour>
        <pt x="100" y="0" on="1"/>
        <pt x="100" y="700" on="1"/>
        <pt x="551" y="700" on="1"/>
        <pt x="551" y="806" on="1"/>
        <pt x="813" y="806" on="1"/>
        <pt x="813" y="700" on="1"/>
        <pt x="1264" y="700" on="1"/>
        <pt x="1264" y="0" on="1"/>
        <pt x="812" y="0" on="1"/>
        <pt x="812" y="-126" on="1"/>
        <pt x="551" y="-126" on="1"/>
        <pt x="551" y="0" on="1"/>
      </contour>
      <contour>
        <pt x="361" y="142" on="1"/>
        <pt x="551" y="142" on="1"/>
        <pt x="551" y="557" on="1"/>
        <pt x="361" y="557" on="1"/>
      </contour>
      <contour>
        <pt x="812" y="142" on="1"/>
        <pt x="1003" y="142" on="1"/>
        <pt x="1003" y="557" on="1"/>
        <pt x="812" y="557" on="1"/>
      </contour>
    </TTGlyph>
    <TTGlyph name="afii10039" xMin="20" yMin="0" xMax="1160" yMax="700">
      <contour>
        <pt x="20" y="558" on="1"/>
        <pt x="20" y="700" on="1"/>
        <pt x="360" y="700" on="1"/>
        <pt x="600" y="485" on="1"/>
        <pt x="830" y="700" on="1"/>
        <pt x="1155" y="700" on="1"/>
        <pt x="780" y="350" on="1"/>
        <pt x="1010" y="142" on="1"/>
        <pt x="1160" y="142" on="1"/>
        <pt x="1160" y="0" on="1"/>
        <pt x="820" y="0" on="1"/>
        <pt x="580" y="215" on="1"/>
        <pt x="350" y="0" on="1"/>
        <pt x="25" y="0" on="1"/>
        <pt x="400" y="350" on="1"/>
        <pt x="170" y="558" on="1"/>
      </contour>
    </TTGlyph>
    <TTGlyph name="afii10040" xMin="0" yMin="-126" xMax="1338" yMax="700">
      <contour>
        <pt x="0" y="558" on="1"/>
        <pt x="0" y="700" on="1"/>
        <pt x="410" y="700" on="1"/>
        <pt x="410" y="141" on="1"/>
        <pt x="907" y="141" on="1"/>
        <pt x="907" y="700" on="1"/>
        <pt x="1168" y="700" on="1"/>
        <pt x="1168" y="141" on="1"/>
        <pt x="1338" y="141" on="1"/>
        <pt x="1338" y="-126" on="1"/>
        <pt x="1077" y="-126" on="1"/>
        <pt x="1077" y="0" on="1"/>
        <pt x="149" y="0" on="1"/>
        <pt x="149" y="558" on="1"/>
      </contour>
    </TTGlyph>
    <TTGlyph name="afii10041" xMin="60" yMin="0" xMax="1241" yMax="700">
      <contour>
        <pt x="60" y="325" on="1"/>
        <pt x="60" y="700" on="1"/>
        <pt x="321" y="700" on="1"/>
        <pt x="321" y="438" on="1"/>
        <pt x="831" y="352" on="1"/>
        <pt x="831" y="700" on="1"/>
        <pt x="1092" y="700" on="1"/>
        <pt x="1092" y="308" on="1"/>
        <pt x="1241" y="283" on="1"/>
        <pt x="1241" y="126" on="1"/>
        <pt x="1092" y="151" on="1"/>
        <pt x="1092" y="0" on="1"/>
        <pt x="831" y="0" on="1"/>
        <pt x="831" y="195" on="1"/>
      </contour>
    </TTGlyph>
    <TTGlyph name="afii10042" xMin="0" yMin="0" xMax="1398" yMax="700">
      <contour>
        <pt x="0" y="558" on="1"/>
        <pt x="0" y="700" on="1"/>
        <pt x="410" y="700" on="1"/>
        <pt x="410" y="142" on="1"/>
        <pt x="643" y="142" on="1"/>
        <pt x="643" y="700" on="1"/>
        <pt x="904" y="700" on="1"/>
        <pt x="904" y="142" on="1"/>
        <pt x="1137" y="142" on="1"/>
        <pt x="1137" y="700" on="1"/>
        <pt x="1398" y="700" on="1"/>
        <pt x="1398" y="0" on="1"/>
        <pt x="149" y="0" on="1"/>
        <pt x="149" y="558" on="1"/>
      </contour>
    </TTGlyph>
    <TTGlyph name="afii10043" xMin="0" yMin="-126" xMax="1597" yMax="700">
      <contour>
        <pt x="0" y="558" on="1"/>
        <pt x="0" y="700" on="1"/>
        <pt x="410" y="700" on="1"/>
        <pt x="410" y="142" on="1"/>
        <pt x="642" y="142" on="1"/>
        <pt x="642" y="700" on="1"/>
        <pt x="903" y="700" on="1"/>
        <pt x="903" y="142" on="1"/>
        <pt x="1136" y="142" on="1"/>
        <pt x="1136" y="700" on="1"/>
        <pt x="1397" y="700" on="1"/>
        <pt x="1397" y="142" on="1"/>
        <pt x="1597" y="142" on="1"/>
        <pt x="1597" y="-126" on="1"/>
        <pt x="1336" y="-126" on="1"/>
        <pt x="1336" y="0" on="1"/>
        <pt x="149" y="0" on="1"/>
        <pt x="149" y="558" on="1"/>
      </contour>
    </TTGlyph>
    <TTGlyph name="afii10044" xMin="0" yMin="0" xMax="1220" yMax="700">
      <contour>
        <pt x="0" y="558" on="1"/>
        <pt x="0" y="700" on="1"/>
        <pt x="442" y="700" on="1"/>
        <pt x="442" y="476" on="1"/>
        <pt x="1220" y="345" on="1"/>
        <pt x="1220" y="0" on="1"/>
        <pt x="181" y="0" on="1"/>
        <pt x="181" y="558" on="1"/>
      </contour>
      <contour>
        <pt x="442" y="142" on="1"/>
        <pt x="959" y="142" on="1"/>
        <pt x="959" y="232" on="1"/>
        <pt x="442" y="319" on="1"/>
      </contour>
    </TTGlyph>
    <TTGlyph name="afii10045" xMin="0" yMin="0" xMax="1571" yMax="700">
      <contour>
        <pt x="0" y="389" on="1"/>
        <pt x="0" y="545" on="1"/>
        <pt x="150" y="520" on="1"/>
        <pt x="150" y="700" on="1"/>
        <pt x="411" y="700" on="1"/>
        <pt x="411" y="475" on="1"/>
        <pt x="1189" y="344" on="1"/>
        <pt x="1189" y="0" on="1"/>
        <pt x="150" y="0" on="1"/>
        <pt x="150" y="364" on="1"/>
      </contour>
      <contour>
        <pt x="411" y="142" on="1"/>
        <pt x="928" y="142" on="1"/>
        <pt x="928" y="231" on="1"/>
        <pt x="411" y="318" on="1"/>
      </contour>
      <contour>
        <pt x="1161" y="558" on="1"/>
        <pt x="1161" y="700" on="1"/>
        <pt x="1571" y="700" on="1"/>
        <pt x="1571" y="0" on="1"/>
        <pt x="1310" y="0" on="1"/>
        <pt x="1310" y="558" on="1"/>
      </contour>
    </TTGlyph>
    <TTGlyph name="afii10046" xMin="0" yMin="0" xMax="1189" yMax="700">
      <contour>
        <pt x="0" y="389" on="1"/>
        <pt x="0" y="545" on="1"/>
        <pt x="150" y="520" on="1"/>
        <pt x="150" y="700" on="1"/>
        <pt x="411" y="700" on="1"/>
        <pt x="411" y="475" on="1"/>
        <pt x="1189" y="344" on="1"/>
        <pt x="1189" y="0" on="1"/>
        <pt x="150" y="0" on="1"/>
        <pt x="150" y="364" on="1"/>
      </contour>
      <contour>
        <pt x="411" y="142" on="1"/>
        <pt x="928" y="142" on="1"/>
        <pt x="928" y="231" on="1"/>
        <pt x="411" y="318" on="1"/>
      </contour>
    </TTGlyph>
    <TTGlyph name="afii10047" xMin="80" yMin="0" xMax="1119" yMax="700">
      <contour>
        <pt x="80" y="0" on="1"/>
        <pt x="80" y="258" on="1"/>
        <pt x="341" y="222" on="1"/>
        <pt x="341" y="142" on="1"/>
        <pt x="858" y="142" on="1"/>
        <pt x="858" y="279" on="1"/>
        <pt x="433" y="279" on="1"/>
        <pt x="433" y="421" on="1"/>
        <pt x="858" y="421" on="1"/>
        <pt x="858" y="558" on="1"/>
        <pt x="341" y="558" on="1"/>
        <pt x="341" y="478" on="1"/>
        <pt x="80" y="442" on="1"/>
        <pt x="80" y="700" on="1"/>
        <pt x="1119" y="700" on="1"/>
        <pt x="1119" y="0" on="1"/>
      </contour>
    </TTGlyph>
    <TTGlyph name="afii10048" xMin="0" yMin="0" xMax="1601" yMax="700">
      <contour>
        <pt x="0" y="558" on="1"/>
        <pt x="0" y="700" on="1"/>
        <pt x="149" y="700" on="1"/>
        <pt x="410" y="700" on="1"/>
        <pt x="410" y="421" on="1"/>
        <pt x="562" y="421" on="1"/>
        <pt x="562" y="700" on="1"/>
        <pt x="1601" y="700" on="1"/>
        <pt x="1601" y="0" on="1"/>
        <pt x="562" y="0" on="1"/>
        <pt x="562" y="279" on="1"/>
        <pt x="410" y="279" on="1"/>
        <pt x="410" y="0" on="1"/>
        <pt x="149" y="0" on="1"/>
        <pt x="149" y="558" on="1"/>
      </contour>
      <contour>
        <pt x="823" y="142" on="1"/>
        <pt x="1340" y="142" on="1"/>
        <pt x="1340" y="558" on="1"/>
        <pt x="823" y="558" on="1"/>
      </contour>
    </TTGlyph>
    <TTGlyph name="afii10049" xMin="40" yMin="0" xMax="1269" yMax="700">
      <contour>
        <pt x="40" y="0" on="1"/>
        <pt x="383" y="305" on="1"/>
        <pt x="81" y="356" on="1"/>
        <pt x="81" y="700" on="1"/>
        <pt x="1120" y="700" on="1"/>
        <pt x="1120" y="338" on="1"/>
        <pt x="1269" y="313" on="1"/>
        <pt x="1269" y="156" on="1"/>
        <pt x="1120" y="181" on="1"/>
        <pt x="1120" y="0" on="1"/>
        <pt x="859" y="0" on="1"/>
        <pt x="859" y="225" on="1"/>
        <pt x="686" y="254" on="1"/>
        <pt x="401" y="0" on="1"/>
      </contour>
      <contour>
        <pt x="342" y="469" on="1"/>
        <pt x="859" y="382" on="1"/>
        <pt x="859" y="558" on="1"/>
        <pt x="342" y="558" on="1"/>
      </contour>
    </TTGlyph>
    <TTGlyph name="afii10050" xMin="100" yMin="0" xMax="1036" yMax="841">
      <contour>
        <pt x="100" y="0" on="1"/>
        <pt x="100" y="700" on="1"/>
        <pt x="775" y="700" on="1"/>
        <pt x="775" y="841" on="1"/>
        <pt x="1036" y="805" on="1"/>
        <pt x="1036" y="558" on="1"/>
        <pt x="361" y="558" on="1"/>
        <pt x="361" y="0" on="1"/>
      </contour>
    </TTGlyph>
    <TTGlyph name="afii10051" xMin="0" yMin="0" xMax="1105" yMax="700">
      <contour>
        <pt x="0" y="558" on="1"/>
        <pt x="0" y="700" on="1"/>
        <pt x="597" y="700" on="1"/>
        <pt x="597" y="558" on="1"/>
        <pt x="429" y="558" on="1"/>
        <pt x="429" y="459" on="1"/>
        <pt x="1105" y="345" on="1"/>
        <pt x="1105" y="0" on="1"/>
        <pt x="749" y="0" on="1"/>
        <pt x="749" y="142" on="1"/>
        <pt x="844" y="142" on="1"/>
        <pt x="844" y="232" on="1"/>
        <pt x="429" y="302" on="1"/>
        <pt x="429" y="0" on="1"/>
        <pt x="168" y="0" on="1"/>
        <pt x="168" y="558" on="1"/>
      </contour>
    </TTGlyph>
    <TTGlyph name="afii10052" xMin="0" yMin="0" xMax="1085" yMax="1020">
      <contour>
        <pt x="0" y="558" on="1"/>
        <pt x="0" y="700" on="1"/>
        <pt x="1085" y="700" on="1"/>
        <pt x="1085" y="427" on="1"/>
        <pt x="824" y="463" on="1"/>
        <pt x="824" y="558" on="1"/>
        <pt x="410" y="558" on="1"/>
        <pt x="410" y="0" on="1"/>
        <pt x="149" y="0" on="1"/>
        <pt x="149" y="558" on="1"/>
      </contour>
      <contour>
        <pt x="476" y="790" on="1"/>
        <pt x="566" y="1020" on="1"/>
        <pt x="816" y="1020" on="1"/>
        <pt x="676" y="790" on="1"/>
      </contour>
    </TTGlyph>
    <TTGlyph name="afii10053" xMin="100" yMin="0" xMax="1139" yMax="700">
      <contour>
        <pt x="100" y="0" on="1"/>
        <pt x="100" y="700" on="1"/>
        <pt x="1139" y="700" on="1"/>
        <pt x="1139" y="442" on="1"/>
        <pt x="878" y="478" on="1"/>
        <pt x="878" y="558" on="1"/>
        <pt x="361" y="558" on="1"/>
        <pt x="361" y="421" on="1"/>
        <pt x="786" y="421" on="1"/>
        <pt x="786" y="279" on="1"/>
        <pt x="361" y="279" on="1"/>
        <pt x="361" y="142" on="1"/>
        <pt x="878" y="142" on="1"/>
        <pt x="878" y="222" on="1"/>
        <pt x="1139" y="258" on="1"/>
        <pt x="1139" y="0" on="1"/>
      </contour>
    </TTGlyph>
    <TTGlyph name="afii10054" xMin="90" yMin="0" xMax="1118" yMax="700">
      <contour>
        <pt x="90" y="0" on="1"/>
        <pt x="90" y="230" on="1"/>
        <pt x="351" y="192" on="1"/>
        <pt x="351" y="142" on="1"/>
        <pt x="857" y="142" on="1"/>
        <pt x="857" y="230" on="1"/>
        <pt x="90" y="351" on="1"/>
        <pt x="90" y="700" on="1"/>
        <pt x="1118" y="700" on="1"/>
        <pt x="1118" y="457" on="1"/>
        <pt x="857" y="497" on="1"/>
        <pt x="857" y="558" on="1"/>
        <pt x="351" y="558" on="1"/>
        <pt x="351" y="463" on="1"/>
        <pt x="1118" y="342" on="1"/>
        <pt x="1118" y="0" on="1"/>
      </contour>
    </TTGlyph>
    <TTGlyph name="afii10055" xMin="0" yMin="0" xMax="410" yMax="700">
      <contour>
        <pt x="0" y="558" on="1"/>
        <pt x="0" y="700" on="1"/>
        <pt x="410" y="700" on="1"/>
        <pt x="410" y="0" on="1"/>
        <pt x="149" y="0" on="1"/>
        <pt x="149" y="558" on="1"/>
      </contour>
    </TTGlyph>
    <TTGlyph name="afii10056" xMin="0" yMin="0" xMax="601" yMax="959">
      <contour>
        <pt x="0" y="750" on="1"/>
        <pt x="0" y="959" on="1"/>
        <pt x="262" y="959" on="1"/>
        <pt x="262" y="869" on="1"/>
      </contour>
      <contour>
        <pt x="21" y="558" on="1"/>
        <pt x="21" y="700" on="1"/>
        <pt x="431" y="700" on="1"/>
        <pt x="431" y="0" on="1"/>
        <pt x="170" y="0" on="1"/>
        <pt x="170" y="558" on="1"/>
      </contour>
      <contour>
        <pt x="339" y="750" on="1"/>
        <pt x="339" y="959" on="1"/>
        <pt x="601" y="959" on="1"/>
        <pt x="601" y="869" on="1"/>
      </contour>
    </TTGlyph>
    <TTGlyph name="afii10057" xMin="40" yMin="0" xMax="950" yMax="700">
      <contour>
        <pt x="40" y="0" on="1"/>
        <pt x="40" y="263" on="1"/>
        <pt x="301" y="227" on="1"/>
        <pt x="301" y="142" on="1"/>
        <pt x="689" y="142" on="1"/>
        <pt x="689" y="558" on="1"/>
        <pt x="540" y="558" on="1"/>
        <pt x="540" y="700" on="1"/>
        <pt x="950" y="700" on="1"/>
        <pt x="950" y="0" on="1"/>
      </contour>
    </TTGlyph>
    <TTGlyph name="afii10058" xMin="0" yMin="0" xMax="1609" yMax="700">
      <contour>
        <pt x="0" y="0" on="1"/>
        <pt x="244" y="558" on="1"/>
        <pt x="120" y="558" on="1"/>
        <pt x="120" y="700" on="1"/>
        <pt x="956" y="700" on="1"/>
        <pt x="956" y="475" on="1"/>
        <pt x="1609" y="344" on="1"/>
        <pt x="1609" y="0" on="1"/>
        <pt x="695" y="0" on="1"/>
        <pt x="695" y="558" on="1"/>
        <pt x="515" y="558" on="1"/>
        <pt x="271" y="0" on="1"/>
      </contour>
      <contour>
        <pt x="956" y="142" on="1"/>
        <pt x="1348" y="142" on="1"/>
        <pt x="1348" y="236" on="1"/>
        <pt x="956" y="315" on="1"/>
      </contour>
    </TTGlyph>
    <TTGlyph name="afii10059" xMin="100" yMin="0" xMax="1687" yMax="700">
      <contour>
        <pt x="100" y="0" on="1"/>
        <pt x="100" y="700" on="1"/>
        <pt x="361" y="700" on="1"/>
        <pt x="361" y="423" on="1"/>
        <pt x="773" y="423" on="1"/>
        <pt x="773" y="700" on="1"/>
        <pt x="1034" y="700" on="1"/>
        <pt x="1034" y="475" on="1"/>
        <pt x="1687" y="344" on="1"/>
        <pt x="1687" y="0" on="1"/>
        <pt x="773" y="0" on="1"/>
        <pt x="773" y="281" on="1"/>
        <pt x="361" y="281" on="1"/>
        <pt x="361" y="0" on="1"/>
      </contour>
      <contour>
        <pt x="1034" y="142" on="1"/>
        <pt x="1426" y="142" on="1"/>
        <pt x="1426" y="236" on="1"/>
        <pt x="1034" y="315" on="1"/>
      </contour>
    </TTGlyph>
    <TTGlyph name="afii10060" xMin="0" yMin="0" xMax="1105" yMax="700">
      <contour>
        <pt x="0" y="558" on="1"/>
        <pt x="0" y="700" on="1"/>
        <pt x="597" y="700" on="1"/>
        <pt x="597" y="558" on="1"/>
        <pt x="429" y="558" on="1"/>
        <pt x="429" y="459" on="1"/>
        <pt x="1105" y="345" on="1"/>
        <pt x="1105" y="0" on="1"/>
        <pt x="844" y="0" on="1"/>
        <pt x="844" y="232" on="1"/>
        <pt x="429" y="302" on="1"/>
        <pt x="429" y="0" on="1"/>
        <pt x="168" y="0" on="1"/>
        <pt x="168" y="558" on="1"/>
      </contour>
    </TTGlyph>
    <TTGlyph name="afii10061" xMin="0" yMin="0" xMax="1188" yMax="980">
      <contour>
        <pt x="0" y="135" on="1"/>
        <pt x="0" y="314" on="1"/>
        <pt x="149" y="354" on="1"/>
        <pt x="149" y="700" on="1"/>
        <pt x="410" y="700" on="1"/>
        <pt x="410" y="425" on="1"/>
        <pt x="921" y="563" on="1"/>
        <pt x="921" y="700" on="1"/>
        <pt x="1182" y="700" on="1"/>
        <pt x="1182" y="454" on="1"/>
        <pt x="779" y="345" on="1"/>
        <pt x="1015" y="150" on="1"/>
        <pt x="1188" y="150" on="1"/>
        <pt x="1188" y="0" on="1"/>
        <pt x="860" y="0" on="1"/>
        <pt x="531" y="279" on="1"/>
        <pt x="410" y="246" on="1"/>
        <pt x="410" y="0" on="1"/>
        <pt x="149" y="0" on="1"/>
        <pt x="149" y="175" on="1"/>
      </contour>
      <contour>
        <pt x="536" y="750" on="1"/>
        <pt x="626" y="980" on="1"/>
        <pt x="876" y="980" on="1"/>
        <pt x="736" y="750" on="1"/>
      </contour>
    </TTGlyph>
    <TTGlyph name="afii10062" xMin="-10" yMin="0" xMax="1168" yMax="1000">
      <contour>
        <pt x="-10" y="558" on="1"/>
        <pt x="-10" y="700" on="1"/>
        <pt x="328" y="700" on="1"/>
        <pt x="629" y="362" on="1"/>
        <pt x="870" y="700" on="1"/>
        <pt x="1168" y="700" on="1"/>
        <pt x="669" y="0" on="1"/>
        <pt x="295" y="0" on="1"/>
        <pt x="295" y="142" on="1"/>
        <pt x="475" y="142" on="1"/>
        <pt x="530" y="220" on="1"/>
        <pt x="428" y="220" on="1"/>
        <pt x="127" y="558" on="1"/>
      </contour>
      <contour>
        <pt x="460" y="685" on="1"/>
        <pt x="460" y="815" on="1"/>
        <pt x="585" y="870" on="1"/>
        <pt x="585" y="1000" on="1"/>
        <pt x="845" y="1000" on="1"/>
        <pt x="845" y="860" on="1"/>
      </contour>
    </TTGlyph>
    <TTGlyph name="afii10065" xMin="90" yMin="0" xMax="985" yMax="530">
      <contour>
        <pt x="90" y="0" on="1"/>
        <pt x="90" y="265" on="1"/>
        <pt x="735" y="345" on="1"/>
        <pt x="735" y="400" on="1"/>
        <pt x="340" y="400" on="1"/>
        <pt x="340" y="355" on="1"/>
        <pt x="90" y="330" on="1"/>
        <pt x="90" y="530" on="1"/>
        <pt x="985" y="530" on="1"/>
        <pt x="985" y="0" on="1"/>
        <pt x="806" y="0" on="1"/>
        <pt x="755" y="50" on="1"/>
        <pt x="705" y="0" on="1"/>
      </contour>
      <contour>
        <pt x="340" y="130" on="1"/>
        <pt x="735" y="130" on="1"/>
        <pt x="735" y="224" on="1"/>
        <pt x="340" y="175" on="1"/>
      </contour>
    </TTGlyph>
    <TTGlyph name="afii10066" xMin="90" yMin="0" xMax="985" yMax="740">
      <contour>
        <pt x="90" y="0" on="1"/>
        <pt x="90" y="625" on="1"/>
        <pt x="735" y="700" on="1"/>
        <pt x="735" y="740" on="1"/>
        <pt x="985" y="740" on="1"/>
        <pt x="985" y="595" on="1"/>
        <pt x="340" y="520" on="1"/>
        <pt x="340" y="450" on="1"/>
        <pt x="985" y="450" on="1"/>
        <pt x="985" y="0" on="1"/>
      </contour>
      <contour>
        <pt x="340" y="130" on="1"/>
        <pt x="735" y="130" on="1"/>
        <pt x="735" y="320" on="1"/>
        <pt x="340" y="320" on="1"/>
      </contour>
    </TTGlyph>
    <TTGlyph name="afii10067" xMin="0" yMin="0" xMax="1010" yMax="530">
      <contour>
        <pt x="0" y="410" on="1"/>
        <pt x="0" y="530" on="1"/>
        <pt x="1010" y="530" on="1"/>
        <pt x="1010" y="330" on="1"/>
        <pt x="835" y="265" on="1"/>
        <pt x="1010" y="200" on="1"/>
        <pt x="1010" y="0" on="1"/>
        <pt x="125" y="0" on="1"/>
        <pt x="125" y="410" on="1"/>
      </contour>
      <contour>
        <pt x="375" y="120" on="1"/>
        <pt x="760" y="120" on="1"/>
        <pt x="760" y="164" on="1"/>
        <pt x="645" y="205" on="1"/>
        <pt x="375" y="205" on="1"/>
      </contour>
      <contour>
        <pt x="375" y="325" on="1"/>
        <pt x="645" y="325" on="1"/>
        <pt x="760" y="365" on="1"/>
        <pt x="760" y="410" on="1"/>
        <pt x="375" y="410" on="1"/>
      </contour>
    </TTGlyph>
    <TTGlyph name="afii10068" xMin="0" yMin="0" xMax="910" yMax="530">
      <contour>
        <pt x="0" y="400" on="1"/>
        <pt x="0" y="530" on="1"/>
        <pt x="910" y="530" on="1"/>
        <pt x="910" y="310" on="1"/>
        <pt x="660" y="335" on="1"/>
        <pt x="660" y="400" on="1"/>
        <pt x="375" y="400" on="1"/>
        <pt x="375" y="0" on="1"/>
        <pt x="125" y="0" on="1"/>
        <pt x="125" y="400" on="1"/>
      </contour>
    </TTGlyph>
    <TTGlyph name="afii10069" xMin="0" yMin="-125" xMax="1115" yMax="530">
      <contour>
        <pt x="0" y="-125" on="1"/>
        <pt x="0" y="130" on="1"/>
        <pt x="160" y="130" on="1"/>
        <pt x="280" y="400" on="1"/>
        <pt x="155" y="400" on="1"/>
        <pt x="155" y="530" on="1"/>
        <pt x="990" y="530" on="1"/>
        <pt x="990" y="130" on="1"/>
        <pt x="1115" y="130" on="1"/>
        <pt x="1115" y="0" on="1"/>
        <pt x="250" y="0" on="1"/>
        <pt x="250" y="-125" on="1"/>
      </contour>
      <contour>
        <pt x="420" y="130" on="1"/>
        <pt x="740" y="130" on="1"/>
        <pt x="740" y="400" on="1"/>
        <pt x="540" y="400" on="1"/>
      </contour>
    </TTGlyph>
    <TTGlyph name="afii10070" xMin="0" yMin="0" xMax="1010" yMax="530">
      <contour>
        <pt x="0" y="400" on="1"/>
        <pt x="0" y="530" on="1"/>
        <pt x="1010" y="530" on="1"/>
        <pt x="1010" y="265" on="1"/>
        <pt x="375" y="175" on="1"/>
        <pt x="375" y="130" on="1"/>
        <pt x="760" y="130" on="1"/>
        <pt x="760" y="175" on="1"/>
        <pt x="1010" y="200" on="1"/>
        <pt x="1010" y="0" on="1"/>
        <pt x="125" y="0" on="1"/>
        <pt x="125" y="400" on="1"/>
      </contour>
      <contour>
        <pt x="375" y="304" on="1"/>
        <pt x="760" y="355" on="1"/>
        <pt x="760" y="400" on="1"/>
        <pt x="375" y="400" on="1"/>
      </contour>
    </TTGlyph>
    <TTGlyph name="afii10071" xMin="0" yMin="0" xMax="1010" yMax="784">
      <contour>
        <pt x="0" y="400" on="1"/>
        <pt x="0" y="530" on="1"/>
        <pt x="1010" y="530" on="1"/>
        <pt x="1010" y="265" on="1"/>
        <pt x="375" y="175" on="1"/>
        <pt x="375" y="130" on="1"/>
        <pt x="760" y="130" on="1"/>
        <pt x="760" y="175" on="1"/>
        <pt x="1010" y="200" on="1"/>
        <pt x="1010" y="0" on="1"/>
        <pt x="125" y="0" on="1"/>
        <pt x="125" y="400" on="1"/>
      </contour>
      <contour>
        <pt x="263" y="575" on="1"/>
        <pt x="263" y="784" on="1"/>
        <pt x="515" y="784" on="1"/>
        <pt x="515" y="694" on="1"/>
      </contour>
      <contour>
        <pt x="375" y="304" on="1"/>
        <pt x="760" y="355" on="1"/>
        <pt x="760" y="400" on="1"/>
        <pt x="375" y="400" on="1"/>
      </contour>
      <contour>
        <pt x="580" y="575" on="1"/>
        <pt x="580" y="784" on="1"/>
        <pt x="832" y="784" on="1"/>
        <pt x="832" y="694" on="1"/>
      </contour>
    </TTGlyph>
    <TTGlyph name="afii10072" xMin="70" yMin="0" xMax="1320" yMax="530">
      <contour>
        <pt x="70" y="0" on="1"/>
        <pt x="70" y="130" on="1"/>
        <pt x="216" y="130" on="1"/>
        <pt x="355" y="245" on="1"/>
        <pt x="80" y="330" on="1"/>
        <pt x="80" y="530" on="1"/>
        <pt x="330" y="530" on="1"/>
        <pt x="330" y="410" on="1"/>
        <pt x="570" y="335" on="1"/>
        <pt x="570" y="530" on="1"/>
        <pt x="820" y="530" on="1"/>
        <pt x="820" y="335" on="1"/>
        <pt x="1060" y="410" on="1"/>
        <pt x="1060" y="530" on="1"/>
        <pt x="1310" y="530" on="1"/>
        <pt x="1310" y="330" on="1"/>
        <pt x="1035" y="245" on="1"/>
        <pt x="1174" y="130" on="1"/>
        <pt x="1320" y="130" on="1"/>
        <pt x="1320" y="0" on="1"/>
        <pt x="1035" y="0" on="1"/>
        <pt x="820" y="180" on="1"/>
        <pt x="820" y="0" on="1"/>
        <pt x="570" y="0" on="1"/>
        <pt x="570" y="180" on="1"/>
        <pt x="355" y="0" on="1"/>
      </contour>
    </TTGlyph>
    <TTGlyph name="afii10073" xMin="80" yMin="0" xMax="960" yMax="530">
      <contour>
        <pt x="80" y="0" on="1"/>
        <pt x="80" y="190" on="1"/>
        <pt x="330" y="165" on="1"/>
        <pt x="330" y="120" on="1"/>
        <pt x="710" y="120" on="1"/>
        <pt x="710" y="164" on="1"/>
        <pt x="595" y="205" on="1"/>
        <pt x="395" y="205" on="1"/>
        <pt x="395" y="325" on="1"/>
        <pt x="595" y="325" on="1"/>
        <pt x="710" y="365" on="1"/>
        <pt x="710" y="410" on="1"/>
        <pt x="330" y="410" on="1"/>
        <pt x="330" y="365" on="1"/>
        <pt x="80" y="340" on="1"/>
        <pt x="80" y="530" on="1"/>
        <pt x="960" y="530" on="1"/>
        <pt x="960" y="330" on="1"/>
        <pt x="785" y="265" on="1"/>
        <pt x="960" y="200" on="1"/>
        <pt x="960" y="0" on="1"/>
      </contour>
    </TTGlyph>
    <TTGlyph name="afii10074" xMin="90" yMin="0" xMax="1120" yMax="530">
      <contour>
        <pt x="90" y="0" on="1"/>
        <pt x="90" y="530" on="1"/>
        <pt x="340" y="530" on="1"/>
        <pt x="340" y="220" on="1"/>
        <pt x="745" y="376" on="1"/>
        <pt x="745" y="530" on="1"/>
        <pt x="995" y="530" on="1"/>
        <pt x="995" y="472" on="1"/>
        <pt x="1120" y="520" on="1"/>
        <pt x="1120" y="365" on="1"/>
        <pt x="995" y="317" on="1"/>
        <pt x="995" y="0" on="1"/>
        <pt x="745" y="0" on="1"/>
        <pt x="745" y="221" on="1"/>
        <pt x="340" y="65" on="1"/>
        <pt x="340" y="0" on="1"/>
      </contour>
    </TTGlyph>
    <TTGlyph name="afii10075" xMin="90" yMin="0" xMax="1120" yMax="770">
      <contour>
        <pt x="90" y="0" on="1"/>
        <pt x="90" y="530" on="1"/>
        <pt x="340" y="530" on="1"/>
        <pt x="340" y="220" on="1"/>
        <pt x="745" y="376" on="1"/>
        <pt x="745" y="530" on="1"/>
        <pt x="995" y="530" on="1"/>
        <pt x="995" y="472" on="1"/>
        <pt x="1120" y="520" on="1"/>
        <pt x="1120" y="365" on="1"/>
        <pt x="995" y="317" on="1"/>
        <pt x="995" y="0" on="1"/>
        <pt x="745" y="0" on="1"/>
        <pt x="745" y="221" on="1"/>
        <pt x="340" y="65" on="1"/>
        <pt x="340" y="0" on="1"/>
      </contour>
      <contour>
        <pt x="405" y="515" on="1"/>
        <pt x="405" y="645" on="1"/>
        <pt x="510" y="685" on="1"/>
        <pt x="510" y="770" on="1"/>
        <pt x="760" y="770" on="1"/>
        <pt x="760" y="650" on="1"/>
      </contour>
    </TTGlyph>
    <TTGlyph name="afii10076" xMin="0" yMin="0" xMax="1000" yMax="530">
      <contour>
        <pt x="0" y="86" on="1"/>
        <pt x="0" y="240" on="1"/>
        <pt x="125" y="269" on="1"/>
        <pt x="125" y="530" on="1"/>
        <pt x="375" y="530" on="1"/>
        <pt x="375" y="325" on="1"/>
        <pt x="750" y="410" on="1"/>
        <pt x="750" y="530" on="1"/>
        <pt x="1000" y="530" on="1"/>
        <pt x="1000" y="315" on="1"/>
        <pt x="705" y="249" on="1"/>
        <pt x="845" y="130" on="1"/>
        <pt x="1000" y="130" on="1"/>
        <pt x="1000" y="0" on="1"/>
        <pt x="705" y="0" on="1"/>
        <pt x="480" y="200" on="1"/>
        <pt x="375" y="175" on="1"/>
        <pt x="375" y="0" on="1"/>
        <pt x="125" y="0" on="1"/>
        <pt x="125" y="115" on="1"/>
      </contour>
    </TTGlyph>
    <TTGlyph name="afii10077" xMin="10" yMin="0" xMax="1040" yMax="530">
      <contour>
        <pt x="10" y="0" on="1"/>
        <pt x="218" y="400" on="1"/>
        <pt x="100" y="400" on="1"/>
        <pt x="100" y="530" on="1"/>
        <pt x="765" y="530" on="1"/>
        <pt x="1040" y="0" on="1"/>
        <pt x="775" y="0" on="1"/>
        <pt x="565" y="400" on="1"/>
        <pt x="485" y="400" on="1"/>
        <pt x="275" y="0" on="1"/>
      </contour>
    </TTGlyph>
    <TTGlyph name="afii10078" xMin="90" yMin="0" xMax="1270" yMax="554">
      <contour>
        <pt x="90" y="0" on="1"/>
        <pt x="90" y="554" on="1"/>
        <pt x="680" y="390" on="1"/>
        <pt x="1270" y="554" on="1"/>
        <pt x="1270" y="0" on="1"/>
        <pt x="925" y="0" on="1"/>
        <pt x="925" y="130" on="1"/>
        <pt x="1020" y="130" on="1"/>
        <pt x="1020" y="325" on="1"/>
        <pt x="805" y="265" on="1"/>
        <pt x="805" y="0" on="1"/>
        <pt x="555" y="0" on="1"/>
        <pt x="555" y="265" on="1"/>
        <pt x="340" y="325" on="1"/>
        <pt x="340" y="130" on="1"/>
        <pt x="435" y="130" on="1"/>
        <pt x="435" y="0" on="1"/>
      </contour>
    </TTGlyph>
    <TTGlyph name="afii10079" xMin="0" yMin="0" xMax="1030" yMax="530">
      <contour>
        <pt x="0" y="400" on="1"/>
        <pt x="0" y="530" on="1"/>
        <pt x="375" y="530" on="1"/>
        <pt x="375" y="340" on="1"/>
        <pt x="780" y="340" on="1"/>
        <pt x="780" y="530" on="1"/>
        <pt x="1030" y="530" on="1"/>
        <pt x="1030" y="0" on="1"/>
        <pt x="780" y="0" on="1"/>
        <pt x="780" y="210" on="1"/>
        <pt x="375" y="210" on="1"/>
        <pt x="375" y="0" on="1"/>
        <pt x="125" y="0" on="1"/>
        <pt x="125" y="400" on="1"/>
      </contour>
    </TTGlyph>
    <TTGlyph name="afii10080" xMin="90" yMin="0" xMax="995" yMax="530">
      <contour>
        <pt x="90" y="0" on="1"/>
        <pt x="90" y="530" on="1"/>
        <pt x="995" y="530" on="1"/>
        <pt x="995" y="0" on="1"/>
      </contour>
      <contour>
        <pt x="340" y="130" on="1"/>
        <pt x="745" y="130" on="1"/>
        <pt x="745" y="400" on="1"/>
        <pt x="340" y="400" on="1"/>
      </contour>
    </TTGlyph>
    <TTGlyph name="afii10081" xMin="0" yMin="0" xMax="1030" yMax="530">
      <contour>
        <pt x="0" y="400" on="1"/>
        <pt x="0" y="530" on="1"/>
        <pt x="1030" y="530" on="1"/>
        <pt x="1030" y="0" on="1"/>
        <pt x="780" y="0" on="1"/>
        <pt x="780" y="400" on="1"/>
        <pt x="375" y="400" on="1"/>
        <pt x="375" y="0" on="1"/>
        <pt x="125" y="0" on="1"/>
        <pt x="125" y="400" on="1"/>
      </contour>
    </TTGlyph>
    <TTGlyph name="afii10082" xMin="0" yMin="-170" xMax="1020" yMax="530">
      <contour>
        <pt x="0" y="400" on="1"/>
        <pt x="0" y="530" on="1"/>
        <pt x="305" y="530" on="1"/>
        <pt x="355" y="480" on="1"/>
        <pt x="405" y="530" on="1"/>
        <pt x="1020" y="530" on="1"/>
        <pt x="1020" y="60" on="1"/>
        <pt x="375" y="-20" on="1"/>
        <pt x="375" y="-170" on="1"/>
        <pt x="125" y="-170" on="1"/>
        <pt x="125" y="400" on="1"/>
      </contour>
      <contour>
        <pt x="375" y="105" on="1"/>
        <pt x="770" y="155" on="1"/>
        <pt x="770" y="400" on="1"/>
        <pt x="375" y="400" on="1"/>
      </contour>
    </TTGlyph>
    <TTGlyph name="afii10083" xMin="0" yMin="0" xMax="1010" yMax="530">
      <contour>
        <pt x="0" y="400" on="1"/>
        <pt x="0" y="530" on="1"/>
        <pt x="1010" y="530" on="1"/>
        <pt x="1010" y="330" on="1"/>
        <pt x="760" y="355" on="1"/>
        <pt x="760" y="400" on="1"/>
        <pt x="375" y="400" on="1"/>
        <pt x="375" y="130" on="1"/>
        <pt x="760" y="130" on="1"/>
        <pt x="760" y="175" on="1"/>
        <pt x="1010" y="200" on="1"/>
        <pt x="1010" y="0" on="1"/>
        <pt x="125" y="0" on="1"/>
        <pt x="125" y="400" on="1"/>
      </contour>
    </TTGlyph>
    <TTGlyph name="afii10084" xMin="30" yMin="0" xMax="970" yMax="530">
      <contour>
        <pt x="30" y="300" on="1"/>
        <pt x="30" y="530" on="1"/>
        <pt x="970" y="530" on="1"/>
        <pt x="970" y="300" on="1"/>
        <pt x="720" y="325" on="1"/>
        <pt x="720" y="400" on="1"/>
        <pt x="625" y="400" on="1"/>
        <pt x="625" y="0" on="1"/>
        <pt x="375" y="0" on="1"/>
        <pt x="375" y="400" on="1"/>
        <pt x="280" y="400" on="1"/>
        <pt x="280" y="325" on="1"/>
      </contour>
    </TTGlyph>
    <TTGlyph name="afii10085" xMin="-10" yMin="-170" xMax="1030" yMax="530">
      <contour>
        <pt x="-10" y="400" on="1"/>
        <pt x="-10" y="530" on="1"/>
        <pt x="285" y="530" on="1"/>
        <pt x="550" y="200" on="1"/>
        <pt x="765" y="530" on="1"/>
        <pt x="1030" y="530" on="1"/>
        <pt x="560" y="-170" on="1"/>
        <pt x="250" y="-170" on="1"/>
        <pt x="250" y="-40" on="1"/>
        <pt x="380" y="-40" on="1"/>
        <pt x="425" y="25" on="1"/>
        <pt x="110" y="400" on="1"/>
      </contour>
    </TTGlyph>
    <TTGlyph name="afii10086" xMin="90" yMin="-170" xMax="1160" yMax="700">
      <contour>
        <pt x="90" y="0" on="1"/>
        <pt x="90" y="530" on="1"/>
        <pt x="500" y="530" on="1"/>
        <pt x="500" y="700" on="1"/>
        <pt x="750" y="700" on="1"/>
        <pt x="750" y="530" on="1"/>
        <pt x="1160" y="530" on="1"/>
        <pt x="1160" y="0" on="1"/>
        <pt x="750" y="0" on="1"/>
        <pt x="750" y="-170" on="1"/>
        <pt x="500" y="-170" on="1"/>
        <pt x="500" y="0" on="1"/>
      </contour>
      <contour>
        <pt x="340" y="130" on="1"/>
        <pt x="510" y="130" on="1"/>
        <pt x="510" y="400" on="1"/>
        <pt x="340" y="400" on="1"/>
      </contour>
      <contour>
        <pt x="740" y="130" on="1"/>
        <pt x="910" y="130" on="1"/>
        <pt x="910" y="400" on="1"/>
        <pt x="740" y="400" on="1"/>
      </contour>
    </TTGlyph>
    <TTGlyph name="afii10087" xMin="20" yMin="0" xMax="980" yMax="530">
      <contour>
        <pt x="20" y="0" on="1"/>
        <pt x="300" y="265" on="1"/>
        <pt x="140" y="400" on="1"/>
        <pt x="20" y="400" on="1"/>
        <pt x="20" y="530" on="1"/>
        <pt x="305" y="530" on="1"/>
        <pt x="505" y="360" on="1"/>
        <pt x="685" y="530" on="1"/>
        <pt x="980" y="530" on="1"/>
        <pt x="700" y="265" on="1"/>
        <pt x="860" y="130" on="1"/>
        <pt x="980" y="130" on="1"/>
        <pt x="980" y="0" on="1"/>
        <pt x="695" y="0" on="1"/>
        <pt x="495" y="170" on="1"/>
        <pt x="315" y="0" on="1"/>
      </contour>
    </TTGlyph>
    <TTGlyph name="afii10088" xMin="0" yMin="-125" xMax="1170" yMax="530">
      <contour>
        <pt x="0" y="400" on="1"/>
        <pt x="0" y="530" on="1"/>
        <pt x="375" y="530" on="1"/>
        <pt x="375" y="130" on="1"/>
        <pt x="760" y="130" on="1"/>
        <pt x="760" y="530" on="1"/>
        <pt x="1010" y="530" on="1"/>
        <pt x="1010" y="130" on="1"/>
        <pt x="1170" y="130" on="1"/>
        <pt x="1170" y="-125" on="1"/>
        <pt x="920" y="-125" on="1"/>
        <pt x="920" y="0" on="1"/>
        <pt x="125" y="0" on="1"/>
        <pt x="125" y="400" on="1"/>
      </contour>
    </TTGlyph>
    <TTGlyph name="afii10089" xMin="60" yMin="0" xMax="1080" yMax="530">
      <contour>
        <pt x="60" y="255" on="1"/>
        <pt x="60" y="530" on="1"/>
        <pt x="310" y="530" on="1"/>
        <pt x="310" y="350" on="1"/>
        <pt x="705" y="290" on="1"/>
        <pt x="705" y="530" on="1"/>
        <pt x="955" y="530" on="1"/>
        <pt x="955" y="250" on="1"/>
        <pt x="1080" y="230" on="1"/>
        <pt x="1080" y="95" on="1"/>
        <pt x="955" y="115" on="1"/>
        <pt x="955" y="0" on="1"/>
        <pt x="705" y="0" on="1"/>
        <pt x="705" y="155" on="1"/>
      </contour>
    </TTGlyph>
    <TTGlyph name="afii10090" xMin="0" yMin="0" xMax="1255" yMax="530">
      <contour>
        <pt x="0" y="400" on="1"/>
        <pt x="0" y="530" on="1"/>
        <pt x="375" y="530" on="1"/>
        <pt x="375" y="130" on="1"/>
        <pt x="565" y="130" on="1"/>
        <pt x="565" y="530" on="1"/>
        <pt x="815" y="530" on="1"/>
        <pt x="815" y="130" on="1"/>
        <pt x="1005" y="130" on="1"/>
        <pt x="1005" y="530" on="1"/>
        <pt x="1255" y="530" on="1"/>
        <pt x="1255" y="0" on="1"/>
        <pt x="125" y="0" on="1"/>
        <pt x="125" y="400" on="1"/>
      </contour>
    </TTGlyph>
    <TTGlyph name="afii10091" xMin="0" yMin="-125" xMax="1415" yMax="530">
      <contour>
        <pt x="0" y="400" on="1"/>
        <pt x="0" y="530" on="1"/>
        <pt x="375" y="530" on="1"/>
        <pt x="375" y="130" on="1"/>
        <pt x="565" y="130" on="1"/>
        <pt x="565" y="530" on="1"/>
        <pt x="815" y="530" on="1"/>
        <pt x="815" y="130" on="1"/>
        <pt x="1005" y="130" on="1"/>
        <pt x="1005" y="530" on="1"/>
        <pt x="1255" y="530" on="1"/>
        <pt x="1255" y="130" on="1"/>
        <pt x="1415" y="130" on="1"/>
        <pt x="1415" y="-125" on="1"/>
        <pt x="1165" y="-125" on="1"/>
        <pt x="1165" y="0" on="1"/>
        <pt x="125" y="0" on="1"/>
        <pt x="125" y="400" on="1"/>
      </contour>
    </TTGlyph>
    <TTGlyph name="afii10092" xMin="0" yMin="0" xMax="1070" yMax="530">
      <contour>
        <pt x="0" y="400" on="1"/>
        <pt x="0" y="530" on="1"/>
        <pt x="425" y="530" on="1"/>
        <pt x="425" y="385" on="1"/>
        <pt x="1070" y="285" on="1"/>
        <pt x="1070" y="0" on="1"/>
        <pt x="175" y="0" on="1"/>
        <pt x="175" y="400" on="1"/>
      </contour>
      <contour>
        <pt x="425" y="130" on="1"/>
        <pt x="820" y="130" on="1"/>
        <pt x="820" y="190" on="1"/>
        <pt x="425" y="250" on="1"/>
      </contour>
    </TTGlyph>
    <TTGlyph name="afii10093" xMin="0" yMin="0" xMax="1375" yMax="530">
      <contour>
        <pt x="0" y="310" on="1"/>
        <pt x="0" y="445" on="1"/>
        <pt x="125" y="425" on="1"/>
        <pt x="125" y="530" on="1"/>
        <pt x="375" y="530" on="1"/>
        <pt x="375" y="385" on="1"/>
        <pt x="1020" y="285" on="1"/>
        <pt x="1020" y="0" on="1"/>
        <pt x="125" y="0" on="1"/>
        <pt x="125" y="290" on="1"/>
      </contour>
      <contour>
        <pt x="375" y="130" on="1"/>
        <pt x="770" y="130" on="1"/>
        <pt x="770" y="190" on="1"/>
        <pt x="375" y="250" on="1"/>
      </contour>
      <contour>
        <pt x="1000" y="400" on="1"/>
        <pt x="1000" y="530" on="1"/>
        <pt x="1375" y="530" on="1"/>
        <pt x="1375" y="0" on="1"/>
        <pt x="1125" y="0" on="1"/>
        <pt x="1125" y="400" on="1"/>
      </contour>
    </TTGlyph>
    <TTGlyph name="afii10094" xMin="0" yMin="0" xMax="1020" yMax="530">
      <contour>
        <pt x="0" y="310" on="1"/>
        <pt x="0" y="445" on="1"/>
        <pt x="125" y="425" on="1"/>
        <pt x="125" y="530" on="1"/>
        <pt x="375" y="530" on="1"/>
        <pt x="375" y="385" on="1"/>
        <pt x="1020" y="285" on="1"/>
        <pt x="1020" y="0" on="1"/>
        <pt x="125" y="0" on="1"/>
        <pt x="125" y="290" on="1"/>
      </contour>
      <contour>
        <pt x="375" y="130" on="1"/>
        <pt x="770" y="130" on="1"/>
        <pt x="770" y="190" on="1"/>
        <pt x="375" y="250" on="1"/>
      </contour>
    </TTGlyph>
    <TTGlyph name="afii10095" xMin="80" yMin="0" xMax="960" yMax="530">
      <contour>
        <pt x="80" y="0" on="1"/>
        <pt x="80" y="190" on="1"/>
        <pt x="330" y="165" on="1"/>
        <pt x="330" y="120" on="1"/>
        <pt x="710" y="120" on="1"/>
        <pt x="710" y="205" on="1"/>
        <pt x="395" y="205" on="1"/>
        <pt x="395" y="325" on="1"/>
        <pt x="710" y="325" on="1"/>
        <pt x="710" y="410" on="1"/>
        <pt x="330" y="410" on="1"/>
        <pt x="330" y="365" on="1"/>
        <pt x="80" y="340" on="1"/>
        <pt x="80" y="530" on="1"/>
        <pt x="960" y="530" on="1"/>
        <pt x="960" y="0" on="1"/>
      </contour>
    </TTGlyph>
    <TTGlyph name="afii10096" xMin="0" yMin="0" xMax="1409" yMax="530">
      <contour>
        <pt x="0" y="400" on="1"/>
        <pt x="0" y="530" on="1"/>
        <pt x="375" y="530" on="1"/>
        <pt x="375" y="340" on="1"/>
        <pt x="504" y="340" on="1"/>
        <pt x="504" y="530" on="1"/>
        <pt x="1409" y="530" on="1"/>
        <pt x="1409" y="0" on="1"/>
        <pt x="504" y="0" on="1"/>
        <pt x="504" y="210" on="1"/>
        <pt x="375" y="210" on="1"/>
        <pt x="375" y="0" on="1"/>
        <pt x="125" y="0" on="1"/>
        <pt x="125" y="400" on="1"/>
      </contour>
      <contour>
        <pt x="754" y="130" on="1"/>
        <pt x="1159" y="130" on="1"/>
        <pt x="1159" y="400" on="1"/>
        <pt x="754" y="400" on="1"/>
      </contour>
    </TTGlyph>
    <TTGlyph name="afii10097" xMin="40" yMin="0" xMax="1100" yMax="530">
      <contour>
        <pt x="40" y="0" on="1"/>
        <pt x="330" y="205" on="1"/>
        <pt x="80" y="245" on="1"/>
        <pt x="80" y="530" on="1"/>
        <pt x="975" y="530" on="1"/>
        <pt x="975" y="240" on="1"/>
        <pt x="1100" y="220" on="1"/>
        <pt x="1100" y="85" on="1"/>
        <pt x="975" y="105" on="1"/>
        <pt x="975" y="0" on="1"/>
        <pt x="725" y="0" on="1"/>
        <pt x="725" y="145" on="1"/>
        <pt x="590" y="165" on="1"/>
        <pt x="361" y="0" on="1"/>
      </contour>
      <contour>
        <pt x="330" y="340" on="1"/>
        <pt x="725" y="280" on="1"/>
        <pt x="725" y="400" on="1"/>
        <pt x="330" y="400" on="1"/>
      </contour>
    </TTGlyph>
    <TTGlyph name="afii10098" xMin="90" yMin="0" xMax="875" yMax="655">
      <contour>
        <pt x="90" y="0" on="1"/>
        <pt x="90" y="530" on="1"/>
        <pt x="625" y="530" on="1"/>
        <pt x="625" y="655" on="1"/>
        <pt x="875" y="610" on="1"/>
        <pt x="875" y="400" on="1"/>
        <pt x="340" y="400" on="1"/>
        <pt x="340" y="0" on="1"/>
      </contour>
    </TTGlyph>
    <TTGlyph name="afii10099" xMin="0" yMin="0" xMax="1015" yMax="700">
      <contour>
        <pt x="0" y="491" on="1"/>
        <pt x="0" y="621" on="1"/>
        <pt x="120" y="621" on="1"/>
        <pt x="120" y="700" on="1"/>
        <pt x="370" y="700" on="1"/>
        <pt x="370" y="621" on="1"/>
        <pt x="530" y="621" on="1"/>
        <pt x="530" y="491" on="1"/>
        <pt x="370" y="491" on="1"/>
        <pt x="370" y="430" on="1"/>
        <pt x="1015" y="350" on="1"/>
        <pt x="1015" y="0" on="1"/>
        <pt x="670" y="0" on="1"/>
        <pt x="670" y="130" on="1"/>
        <pt x="765" y="130" on="1"/>
        <pt x="765" y="255" on="1"/>
        <pt x="370" y="305" on="1"/>
        <pt x="370" y="0" on="1"/>
        <pt x="120" y="0" on="1"/>
        <pt x="120" y="491" on="1"/>
      </contour>
    </TTGlyph>
    <TTGlyph name="afii10100" xMin="0" yMin="0" xMax="910" yMax="810">
      <contour>
        <pt x="0" y="400" on="1"/>
        <pt x="0" y="530" on="1"/>
        <pt x="910" y="530" on="1"/>
        <pt x="910" y="310" on="1"/>
        <pt x="660" y="335" on="1"/>
        <pt x="660" y="400" on="1"/>
        <pt x="375" y="400" on="1"/>
        <pt x="375" y="0" on="1"/>
        <pt x="125" y="0" on="1"/>
        <pt x="125" y="400" on="1"/>
      </contour>
      <contour>
        <pt x="402" y="590" on="1"/>
        <pt x="482" y="810" on="1"/>
        <pt x="722" y="810" on="1"/>
        <pt x="592" y="590" on="1"/>
      </contour>
    </TTGlyph>
    <TTGlyph name="afii10101" xMin="90" yMin="0" xMax="970" yMax="530">
      <contour>
        <pt x="90" y="0" on="1"/>
        <pt x="90" y="530" on="1"/>
        <pt x="970" y="530" on="1"/>
        <pt x="970" y="340" on="1"/>
        <pt x="720" y="365" on="1"/>
        <pt x="720" y="410" on="1"/>
        <pt x="340" y="410" on="1"/>
        <pt x="340" y="325" on="1"/>
        <pt x="655" y="325" on="1"/>
        <pt x="655" y="205" on="1"/>
        <pt x="340" y="205" on="1"/>
        <pt x="340" y="120" on="1"/>
        <pt x="720" y="120" on="1"/>
        <pt x="720" y="165" on="1"/>
        <pt x="970" y="190" on="1"/>
        <pt x="970" y="0" on="1"/>
      </contour>
    </TTGlyph>
    <TTGlyph name="afii10102" xMin="90" yMin="0" xMax="975" yMax="530">
      <contour>
        <pt x="90" y="0" on="1"/>
        <pt x="90" y="200" on="1"/>
        <pt x="340" y="175" on="1"/>
        <pt x="340" y="130" on="1"/>
        <pt x="725" y="130" on="1"/>
        <pt x="725" y="175" on="1"/>
        <pt x="90" y="265" on="1"/>
        <pt x="90" y="530" on="1"/>
        <pt x="975" y="530" on="1"/>
        <pt x="975" y="330" on="1"/>
        <pt x="725" y="355" on="1"/>
        <pt x="725" y="400" on="1"/>
        <pt x="340" y="400" on="1"/>
        <pt x="340" y="360" on="1"/>
        <pt x="975" y="270" on="1"/>
        <pt x="975" y="0" on="1"/>
      </contour>
    </TTGlyph>
    <TTGlyph name="afii10103" xMin="0" yMin="0" xMax="375" yMax="740">
      <contour>
        <pt x="0" y="400" on="1"/>
        <pt x="0" y="530" on="1"/>
        <pt x="375" y="530" on="1"/>
        <pt x="375" y="0" on="1"/>
        <pt x="125" y="0" on="1"/>
        <pt x="125" y="400" on="1"/>
      </contour>
      <contour>
        <pt x="125" y="600" on="1"/>
        <pt x="125" y="740" on="1"/>
        <pt x="375" y="740" on="1"/>
        <pt x="375" y="600" on="1"/>
      </contour>
    </TTGlyph>
    <TTGlyph name="afii10104" xMin="20" yMin="0" xMax="589" yMax="784">
      <contour>
        <pt x="20" y="575" on="1"/>
        <pt x="20" y="784" on="1"/>
        <pt x="272" y="784" on="1"/>
        <pt x="272" y="694" on="1"/>
      </contour>
      <contour>
        <pt x="57" y="400" on="1"/>
        <pt x="57" y="530" on="1"/>
        <pt x="432" y="530" on="1"/>
        <pt x="432" y="0" on="1"/>
        <pt x="182" y="0" on="1"/>
        <pt x="182" y="400" on="1"/>
      </contour>
      <contour>
        <pt x="337" y="575" on="1"/>
        <pt x="337" y="784" on="1"/>
        <pt x="589" y="784" on="1"/>
        <pt x="589" y="694" on="1"/>
      </contour>
    </TTGlyph>
    <TTGlyph name="afii10105" xMin="-170" yMin="-170" xMax="435" yMax="740">
      <contour>
        <pt x="-170" y="-40" on="1"/>
        <pt x="125" y="-40" on="1"/>
        <pt x="185" y="-10" on="1"/>
        <pt x="185" y="400" on="1"/>
        <pt x="60" y="400" on="1"/>
        <pt x="60" y="530" on="1"/>
        <pt x="435" y="530" on="1"/>
        <pt x="435" y="-50" on="1"/>
        <pt x="190" y="-170" on="1"/>
        <pt x="-170" y="-170" on="1"/>
      </contour>
      <contour>
        <pt x="185" y="600" on="1"/>
        <pt x="185" y="740" on="1"/>
        <pt x="435" y="740" on="1"/>
        <pt x="435" y="600" on="1"/>
      </contour>
    </TTGlyph>
    <TTGlyph name="afii10106" xMin="0" yMin="0" xMax="1505" yMax="530">
      <contour>
        <pt x="0" y="0" on="1"/>
        <pt x="208" y="400" on="1"/>
        <pt x="90" y="400" on="1"/>
        <pt x="90" y="530" on="1"/>
        <pt x="910" y="530" on="1"/>
        <pt x="910" y="385" on="1"/>
        <pt x="1505" y="285" on="1"/>
        <pt x="1505" y="0" on="1"/>
        <pt x="660" y="0" on="1"/>
        <pt x="660" y="400" on="1"/>
        <pt x="475" y="400" on="1"/>
        <pt x="265" y="0" on="1"/>
      </contour>
      <contour>
        <pt x="910" y="130" on="1"/>
        <pt x="1255" y="130" on="1"/>
        <pt x="1255" y="190" on="1"/>
        <pt x="910" y="250" on="1"/>
      </contour>
    </TTGlyph>
    <TTGlyph name="afii10107" xMin="90" yMin="0" xMax="1540" yMax="530">
      <contour>
        <pt x="90" y="0" on="1"/>
        <pt x="90" y="530" on="1"/>
        <pt x="340" y="530" on="1"/>
        <pt x="340" y="340" on="1"/>
        <pt x="695" y="340" on="1"/>
        <pt x="695" y="530" on="1"/>
        <pt x="945" y="530" on="1"/>
        <pt x="945" y="385" on="1"/>
        <pt x="1540" y="285" on="1"/>
        <pt x="1540" y="0" on="1"/>
        <pt x="695" y="0" on="1"/>
        <pt x="695" y="210" on="1"/>
        <pt x="340" y="210" on="1"/>
        <pt x="340" y="0" on="1"/>
      </contour>
      <contour>
        <pt x="945" y="130" on="1"/>
        <pt x="1290" y="130" on="1"/>
        <pt x="1290" y="190" on="1"/>
        <pt x="945" y="250" on="1"/>
      </contour>
    </TTGlyph>
    <TTGlyph name="afii10108" xMin="0" yMin="0" xMax="1015" yMax="700">
      <contour>
        <pt x="0" y="491" on="1"/>
        <pt x="0" y="621" on="1"/>
        <pt x="120" y="621" on="1"/>
        <pt x="120" y="700" on="1"/>
        <pt x="370" y="700" on="1"/>
        <pt x="370" y="621" on="1"/>
        <pt x="530" y="621" on="1"/>
        <pt x="530" y="491" on="1"/>
        <pt x="370" y="491" on="1"/>
        <pt x="370" y="430" on="1"/>
        <pt x="1015" y="350" on="1"/>
        <pt x="1015" y="0" on="1"/>
        <pt x="766" y="0" on="1"/>
        <pt x="765" y="255" on="1"/>
        <pt x="370" y="305" on="1"/>
        <pt x="370" y="0" on="1"/>
        <pt x="120" y="0" on="1"/>
        <pt x="120" y="491" on="1"/>
      </contour>
    </TTGlyph>
    <TTGlyph name="afii10109" xMin="0" yMin="0" xMax="1000" yMax="780">
      <contour>
        <pt x="0" y="86" on="1"/>
        <pt x="0" y="240" on="1"/>
        <pt x="125" y="269" on="1"/>
        <pt x="125" y="530" on="1"/>
        <pt x="375" y="530" on="1"/>
        <pt x="375" y="325" on="1"/>
        <pt x="750" y="410" on="1"/>
        <pt x="750" y="530" on="1"/>
        <pt x="1000" y="530" on="1"/>
        <pt x="1000" y="315" on="1"/>
        <pt x="705" y="249" on="1"/>
        <pt x="845" y="130" on="1"/>
        <pt x="1000" y="130" on="1"/>
        <pt x="1000" y="0" on="1"/>
        <pt x="705" y="0" on="1"/>
        <pt x="480" y="200" on="1"/>
        <pt x="375" y="175" on="1"/>
        <pt x="375" y="0" on="1"/>
        <pt x="125" y="0" on="1"/>
        <pt x="125" y="115" on="1"/>
      </contour>
      <contour>
        <pt x="452" y="560" on="1"/>
        <pt x="532" y="780" on="1"/>
        <pt x="772" y="780" on="1"/>
        <pt x="642" y="560" on="1"/>
      </contour>
    </TTGlyph>
    <TTGlyph name="afii10110" xMin="-10" yMin="-170" xMax="1030" yMax="770">
      <contour>
        <pt x="-10" y="400" on="1"/>
        <pt x="-10" y="530" on="1"/>
        <pt x="285" y="530" on="1"/>
        <pt x="550" y="200" on="1"/>
        <pt x="765" y="530" on="1"/>
        <pt x="1030" y="530" on="1"/>
        <pt x="560" y="-170" on="1"/>
        <pt x="250" y="-170" on="1"/>
        <pt x="250" y="-40" on="1"/>
        <pt x="380" y="-40" on="1"/>
        <pt x="425" y="25" on="1"/>
        <pt x="110" y="400" on="1"/>
      </contour>
      <contour>
        <pt x="395" y="515" on="1"/>
        <pt x="395" y="645" on="1"/>
        <pt x="500" y="685" on="1"/>
        <pt x="500" y="770" on="1"/>
        <pt x="750" y="770" on="1"/>
        <pt x="750" y="650" on="1"/>
      </contour>
    </TTGlyph>
    <TTGlyph name="afii10145" xMin="0" yMin="-150" xMax="1188" yMax="700">
      <contour>
        <pt x="0" y="558" on="1"/>
        <pt x="0" y="700" on="1"/>
        <pt x="410" y="700" on="1"/>
        <pt x="410" y="142" on="1"/>
        <pt x="927" y="142" on="1"/>
        <pt x="927" y="700" on="1"/>
        <pt x="1188" y="700" on="1"/>
        <pt x="1188" y="0" on="1"/>
        <pt x="794" y="0" on="1"/>
        <pt x="794" y="-115" on="1"/>
        <pt x="542" y="-150" on="1"/>
        <pt x="542" y="0" on="1"/>
        <pt x="149" y="0" on="1"/>
        <pt x="149" y="558" on="1"/>
      </contour>
    </TTGlyph>
    <TTGlyph name="afii10193" xMin="0" yMin="-150" xMax="1030" yMax="530">
      <contour>
        <pt x="0" y="400" on="1"/>
        <pt x="0" y="530" on="1"/>
        <pt x="375" y="530" on="1"/>
        <pt x="375" y="130" on="1"/>
        <pt x="780" y="130" on="1"/>
        <pt x="780" y="530" on="1"/>
        <pt x="1030" y="530" on="1"/>
        <pt x="1030" y="0" on="1"/>
        <pt x="703" y="0" on="1"/>
        <pt x="703" y="-115" on="1"/>
        <pt x="453" y="-150" on="1"/>
        <pt x="453" y="0" on="1"/>
        <pt x="125" y="0" on="1"/>
        <pt x="125" y="400" on="1"/>
      </contour>
    </TTGlyph>
    <TTGlyph name="afii61352" xMin="100" yMin="0" xMax="1658" yMax="728">
      <contour>
        <pt x="100" y="0" on="1"/>
        <pt x="100" y="728" on="1"/>
        <pt x="858" y="293" on="1"/>
        <pt x="858" y="700" on="1"/>
        <pt x="1119" y="700" on="1"/>
        <pt x="1119" y="0" on="1"/>
        <pt x="898" y="0" on="1"/>
        <pt x="361" y="308" on="1"/>
        <pt x="361" y="0" on="1"/>
      </contour>
      <contour>
        <pt x="1190" y="150" on="1"/>
        <pt x="1190" y="250" on="1"/>
        <pt x="1658" y="250" on="1"/>
        <pt x="1658" y="150" on="1"/>
      </contour>
      <contour>
        <pt x="1190" y="320" on="1"/>
        <pt x="1190" y="700" on="1"/>
        <pt x="1658" y="700" on="1"/>
        <pt x="1658" y="320" on="1"/>
      </contour>
      <contour>
        <pt x="1352" y="417" on="1"/>
        <pt x="1496" y="417" on="1"/>
        <pt x="1496" y="603" on="1"/>
        <pt x="1352" y="603" on="1"/>
      </contour>
    </TTGlyph>
    <TTGlyph name="agrave" xMin="90" yMin="0" xMax="985" yMax="830">
      <contour>
        <pt x="90" y="0" on="1"/>
        <pt x="90" y="265" on="1"/>
        <pt x="735" y="345" on="1"/>
        <pt x="735" y="400" on="1"/>
        <pt x="340" y="400" on="1"/>
        <pt x="340" y="355" on="1"/>
        <pt x="90" y="330" on="1"/>
        <pt x="90" y="530" on="1"/>
        <pt x="985" y="530" on="1"/>
        <pt x="985" y="0" on="1"/>
        <pt x="806" y="0" on="1"/>
        <pt x="755" y="50" on="1"/>
        <pt x="705" y="0" on="1"/>
      </contour>
      <contour>
        <pt x="340" y="130" on="1"/>
        <pt x="735" y="130" on="1"/>
        <pt x="735" y="224" on="1"/>
        <pt x="340" y="175" on="1"/>
      </contour>
      <contour>
        <pt x="342" y="830" on="1"/>
        <pt x="582" y="830" on="1"/>
        <pt x="662" y="610" on="1"/>
        <pt x="472" y="610" on="1"/>
      </contour>
    </TTGlyph>
    <TTGlyph name="ampersand" xMin="60" yMin="0" xMax="1117" yMax="700">
      <contour>
        <pt x="60" y="0" on="1"/>
        <pt x="60" y="295" on="1"/>
        <pt x="274" y="359" on="1"/>
        <pt x="130" y="450" on="1"/>
        <pt x="130" y="700" on="1"/>
        <pt x="1020" y="700" on="1"/>
        <pt x="1020" y="457" on="1"/>
        <pt x="759" y="497" on="1"/>
        <pt x="759" y="558" on="1"/>
        <pt x="391" y="558" on="1"/>
        <pt x="391" y="524" on="1"/>
        <pt x="1001" y="142" on="1"/>
        <pt x="1117" y="142" on="1"/>
        <pt x="1117" y="0" on="1"/>
        <pt x="850" y="0" on="1"/>
        <pt x="732" y="72" on="1"/>
        <pt x="512" y="0" on="1"/>
      </contour>
      <contour>
        <pt x="320" y="142" on="1"/>
        <pt x="466" y="142" on="1"/>
        <pt x="568" y="175" on="1"/>
        <pt x="428" y="262" on="1"/>
        <pt x="320" y="230" on="1"/>
      </contour>
    </TTGlyph>
    <TTGlyph name="aring" xMin="90" yMin="0" xMax="985" yMax="847">
      <contour>
        <pt x="90" y="0" on="1"/>
        <pt x="90" y="265" on="1"/>
        <pt x="735" y="345" on="1"/>
        <pt x="735" y="400" on="1"/>
        <pt x="340" y="400" on="1"/>
        <pt x="340" y="355" on="1"/>
        <pt x="90" y="330" on="1"/>
        <pt x="90" y="530" on="1"/>
        <pt x="985" y="530" on="1"/>
        <pt x="985" y="0" on="1"/>
        <pt x="806" y="0" on="1"/>
        <pt x="755" y="50" on="1"/>
        <pt x="705" y="0" on="1"/>
      </contour>
      <contour>
        <pt x="340" y="130" on="1"/>
        <pt x="735" y="130" on="1"/>
        <pt x="735" y="224" on="1"/>
        <pt x="340" y="175" on="1"/>
      </contour>
      <contour>
        <pt x="380" y="597" on="1"/>
        <pt x="380" y="847" on="1"/>
        <pt x="695" y="847" on="1"/>
        <pt x="695" y="597" on="1"/>
      </contour>
      <contour>
        <pt x="485" y="680" on="1"/>
        <pt x="590" y="680" on="1"/>
        <pt x="590" y="764" on="1"/>
        <pt x="485" y="764" on="1"/>
      </contour>
    </TTGlyph>
    <TTGlyph name="asciicircum" xMin="0" yMin="310" xMax="718" yMax="700">
      <contour>
        <pt x="0" y="310" on="1"/>
        <pt x="285" y="700" on="1"/>
        <pt x="433" y="700" on="1"/>
        <pt x="718" y="310" on="1"/>
        <pt x="541" y="310" on="1"/>
        <pt x="359" y="560" on="1"/>
        <pt x="177" y="310" on="1"/>
      </contour>
    </TTGlyph>
    <TTGlyph name="asciitilde" xMin="50" yMin="204" xMax="710" yMax="476">
      <contour>
        <pt x="50" y="220" on="1"/>
        <pt x="50" y="406" on="1"/>
        <pt x="240" y="476" on="1"/>
        <pt x="509" y="384" on="1"/>
        <pt x="710" y="460" on="1"/>
        <pt x="710" y="274" on="1"/>
        <pt x="520" y="204" on="1"/>
        <pt x="251" y="296" on="1"/>
      </contour>
    </TTGlyph>
    <TTGlyph name="asterisk" xMin="40" yMin="102" xMax="658" yMax="730">
      <contour>
        <pt x="40" y="320" on="1"/>
        <pt x="207" y="416" on="1"/>
        <pt x="40" y="512" on="1"/>
        <pt x="111" y="635" on="1"/>
        <pt x="278" y="539" on="1"/>
        <pt x="278" y="730" on="1"/>
        <pt x="420" y="730" on="1"/>
        <pt x="420" y="539" on="1"/>
        <pt x="587" y="635" on="1"/>
        <pt x="658" y="512" on="1"/>
        <pt x="491" y="416" on="1"/>
        <pt x="658" y="320" on="1"/>
        <pt x="587" y="197" on="1"/>
        <pt x="420" y="293" on="1"/>
        <pt x="420" y="102" on="1"/>
        <pt x="278" y="102" on="1"/>
        <pt x="278" y="293" on="1"/>
        <pt x="111" y="197" on="1"/>
      </contour>
    </TTGlyph>
    <TTGlyph name="at" xMin="100" yMin="-142" xMax="1405" yMax="842">
      <contour>
        <pt x="100" y="28" on="1"/>
        <pt x="100" y="672" on="1"/>
        <pt x="419" y="842" on="1"/>
        <pt x="1086" y="842" on="1"/>
        <pt x="1405" y="672" on="1"/>
        <pt x="1405" y="290" on="1"/>
        <pt x="1086" y="120" on="1"/>
        <pt x="522" y="120" on="1"/>
        <pt x="446" y="349" on="1"/>
        <pt x="522" y="580" on="1"/>
        <pt x="1023" y="580" on="1"/>
        <pt x="1023" y="232" on="1"/>
        <pt x="1046" y="232" on="1"/>
        <pt x="1174" y="300" on="1"/>
        <pt x="1174" y="622" on="1"/>
        <pt x="1046" y="690" on="1"/>
        <pt x="459" y="690" on="1"/>
        <pt x="331" y="622" on="1"/>
        <pt x="331" y="78" on="1"/>
        <pt x="459" y="10" on="1"/>
        <pt x="1203" y="10" on="1"/>
        <pt x="1203" y="-142" on="1"/>
        <pt x="419" y="-142" on="1"/>
      </contour>
      <contour>
        <pt x="646" y="349" on="1"/>
        <pt x="693" y="220" on="1"/>
        <pt x="823" y="220" on="1"/>
        <pt x="823" y="478" on="1"/>
        <pt x="693" y="478" on="1"/>
      </contour>
    </TTGlyph>
    <TTGlyph name="atilde" xMin="90" yMin="0" xMax="985" yMax="804">
      <contour>
        <pt x="90" y="0" on="1"/>
        <pt x="90" y="265" on="1"/>
        <pt x="735" y="345" on="1"/>
        <pt x="735" y="400" on="1"/>
        <pt x="340" y="400" on="1"/>
        <pt x="340" y="355" on="1"/>
        <pt x="90" y="330" on="1"/>
        <pt x="90" y="530" on="1"/>
        <pt x="985" y="530" on="1"/>
        <pt x="985" y="0" on="1"/>
        <pt x="806" y="0" on="1"/>
        <pt x="755" y="50" on="1"/>
        <pt x="705" y="0" on="1"/>
      </contour>
      <contour>
        <pt x="330" y="580" on="1"/>
        <pt x="330" y="729" on="1"/>
        <pt x="470" y="804" on="1"/>
        <pt x="610" y="730" on="1"/>
        <pt x="750" y="804" on="1"/>
        <pt x="750" y="655" on="1"/>
        <pt x="610" y="580" on="1"/>
        <pt x="470" y="654" on="1"/>
      </contour>
      <contour>
        <pt x="340" y="130" on="1"/>
        <pt x="735" y="130" on="1"/>
        <pt x="735" y="224" on="1"/>
        <pt x="340" y="175" on="1"/>
      </contour>
    </TTGlyph>
    <TTGlyph name="b" xMin="0" yMin="0" xMax="1020" yMax="700">
      <contour>
        <pt x="0" y="570" on="1"/>
        <pt x="0" y="700" on="1"/>
        <pt x="375" y="700" on="1"/>
        <pt x="375" y="550" on="1"/>
        <pt x="1020" y="470" on="1"/>
        <pt x="1020" y="0" on="1"/>
        <pt x="405" y="0" on="1"/>
        <pt x="355" y="50" on="1"/>
        <pt x="304" y="0" on="1"/>
        <pt x="125" y="0" on="1"/>
        <pt x="125" y="570" on="1"/>
      </contour>
      <contour>
        <pt x="375" y="130" on="1"/>
        <pt x="770" y="130" on="1"/>
        <pt x="770" y="375" on="1"/>
        <pt x="375" y="425" on="1"/>
      </contour>
    </TTGlyph>
    <TTGlyph name="backslash" xMin="0" yMin="0" xMax="810" yMax="700">
      <contour>
        <pt x="0" y="700" on="1"/>
        <pt x="270" y="700" on="1"/>
        <pt x="810" y="0" on="1"/>
        <pt x="540" y="0" on="1"/>
      </contour>
    </TTGlyph>
    <TTGlyph name="bar" xMin="100" yMin="-142" xMax="361" yMax="842">
      <contour>
        <pt x="100" y="-142" on="1"/>
        <pt x="100" y="842" on="1"/>
        <pt x="361" y="842" on="1"/>
        <pt x="361" y="-142" on="1"/>
      </contour>
    </TTGlyph>
    <TTGlyph name="braceleft" xMin="0" yMin="-172" xMax="536" yMax="812">
      <contour>
        <pt x="0" y="269" on="1"/>
        <pt x="0" y="371" on="1"/>
        <pt x="146" y="477" on="1"/>
        <pt x="146" y="812" on="1"/>
        <pt x="536" y="812" on="1"/>
        <pt x="536" y="670" on="1"/>
        <pt x="377" y="670" on="1"/>
        <pt x="377" y="415" on="1"/>
        <pt x="208" y="320" on="1"/>
        <pt x="377" y="225" on="1"/>
        <pt x="377" y="-30" on="1"/>
        <pt x="536" y="-30" on="1"/>
        <pt x="536" y="-172" on="1"/>
        <pt x="146" y="-172" on="1"/>
        <pt x="146" y="163" on="1"/>
      </contour>
    </TTGlyph>
    <TTGlyph name="braceright" xMin="0" yMin="-172" xMax="536" yMax="812">
      <contour>
        <pt x="0" y="-30" on="1"/>
        <pt x="159" y="-30" on="1"/>
        <pt x="159" y="225" on="1"/>
        <pt x="328" y="320" on="1"/>
        <pt x="159" y="415" on="1"/>
        <pt x="159" y="670" on="1"/>
        <pt x="0" y="670" on="1"/>
        <pt x="0" y="812" on="1"/>
        <pt x="390" y="812" on="1"/>
        <pt x="390" y="477" on="1"/>
        <pt x="536" y="371" on="1"/>
        <pt x="536" y="269" on="1"/>
        <pt x="390" y="163" on="1"/>
        <pt x="390" y="-172" on="1"/>
        <pt x="0" y="-172" on="1"/>
      </contour>
    </TTGlyph>
    <TTGlyph name="bracketleft" xMin="100" yMin="-172" xMax="490" yMax="812">
      <contour>
        <pt x="100" y="-172" on="1"/>
        <pt x="100" y="812" on="1"/>
        <pt x="490" y="812" on="1"/>
        <pt x="490" y="670" on="1"/>
        <pt x="331" y="670" on="1"/>
        <pt x="331" y="-30" on="1"/>
        <pt x="490" y="-30" on="1"/>
        <pt x="490" y="-172" on="1"/>
      </contour>
    </TTGlyph>
    <TTGlyph name="bracketright" xMin="0" yMin="-172" xMax="390" yMax="812">
      <contour>
        <pt x="0" y="-30" on="1"/>
        <pt x="159" y="-30" on="1"/>
        <pt x="159" y="670" on="1"/>
        <pt x="0" y="670" on="1"/>
        <pt x="0" y="812" on="1"/>
        <pt x="390" y="812" on="1"/>
        <pt x="390" y="-172" on="1"/>
        <pt x="0" y="-172" on="1"/>
      </contour>
    </TTGlyph>
    <TTGlyph name="brokenbar" xMin="100" yMin="-142" xMax="361" yMax="842">
      <contour>
        <pt x="100" y="-142" on="1"/>
        <pt x="100" y="279" on="1"/>
        <pt x="361" y="279" on="1"/>
        <pt x="361" y="-142" on="1"/>
      </contour>
      <contour>
        <pt x="100" y="421" on="1"/>
        <pt x="100" y="842" on="1"/>
        <pt x="361" y="842" on="1"/>
        <pt x="361" y="421" on="1"/>
      </contour>
    </TTGlyph>
    <TTGlyph name="bullet" xMin="110" yMin="181" xMax="487" yMax="521">
      <contour>
        <pt x="110" y="181" on="1"/>
        <pt x="110" y="521" on="1"/>
        <pt x="487" y="521" on="1"/>
        <pt x="487" y="181" on="1"/>
      </contour>
    </TTGlyph>
    <TTGlyph name="c" xMin="0" yMin="0" xMax="1010" yMax="530">
      <contour>
        <pt x="0" y="400" on="1"/>
        <pt x="0" y="530" on="1"/>
        <pt x="1010" y="530" on="1"/>
        <pt x="1010" y="330" on="1"/>
        <pt x="760" y="355" on="1"/>
        <pt x="760" y="400" on="1"/>
        <pt x="375" y="400" on="1"/>
        <pt x="375" y="130" on="1"/>
        <pt x="760" y="130" on="1"/>
        <pt x="760" y="175" on="1"/>
        <pt x="1010" y="200" on="1"/>
        <pt x="1010" y="0" on="1"/>
        <pt x="125" y="0" on="1"/>
        <pt x="125" y="400" on="1"/>
      </contour>
    </TTGlyph>
    <TTGlyph name="ccedilla" xMin="0" yMin="-290" xMax="1010" yMax="530">
      <contour>
        <pt x="0" y="400" on="1"/>
        <pt x="0" y="530" on="1"/>
        <pt x="1010" y="530" on="1"/>
        <pt x="1010" y="330" on="1"/>
        <pt x="760" y="355" on="1"/>
        <pt x="760" y="400" on="1"/>
        <pt x="375" y="400" on="1"/>
        <pt x="375" y="130" on="1"/>
        <pt x="760" y="130" on="1"/>
        <pt x="760" y="175" on="1"/>
        <pt x="1010" y="200" on="1"/>
        <pt x="1010" y="0" on="1"/>
        <pt x="585" y="0" on="1"/>
        <pt x="585" y="-30" on="1"/>
        <pt x="751" y="-70" on="1"/>
        <pt x="751" y="-290" on="1"/>
        <pt x="440" y="-290" on="1"/>
        <pt x="440" y="-187" on="1"/>
        <pt x="626" y="-187" on="1"/>
        <pt x="626" y="-153" on="1"/>
        <pt x="460" y="-113" on="1"/>
        <pt x="460" y="0" on="1"/>
        <pt x="125" y="0" on="1"/>
        <pt x="125" y="400" on="1"/>
      </contour>
    </TTGlyph>
    <TTGlyph name="cedilla" xMin="0" yMin="-290" xMax="311" yMax="40">
      <contour>
        <pt x="0" y="-187" on="1"/>
        <pt x="186" y="-187" on="1"/>
        <pt x="186" y="-153" on="1"/>
        <pt x="20" y="-113" on="1"/>
        <pt x="20" y="40" on="1"/>
        <pt x="145" y="40" on="1"/>
        <pt x="145" y="-30" on="1"/>
        <pt x="311" y="-70" on="1"/>
        <pt x="311" y="-290" on="1"/>
        <pt x="0" y="-290" on="1"/>
      </contour>
    </TTGlyph>
    <TTGlyph name="cent" xMin="100" yMin="-100" xMax="1139" yMax="800">
      <contour>
        <pt x="100" y="0" on="1"/>
        <pt x="100" y="700" on="1"/>
        <pt x="490" y="700" on="1"/>
        <pt x="490" y="800" on="1"/>
        <pt x="751" y="800" on="1"/>
        <pt x="751" y="700" on="1"/>
        <pt x="1139" y="700" on="1"/>
        <pt x="1139" y="442" on="1"/>
        <pt x="878" y="478" on="1"/>
        <pt x="878" y="558" on="1"/>
        <pt x="361" y="558" on="1"/>
        <pt x="361" y="142" on="1"/>
        <pt x="878" y="142" on="1"/>
        <pt x="878" y="222" on="1"/>
        <pt x="1139" y="258" on="1"/>
        <pt x="1139" y="0" on="1"/>
        <pt x="751" y="0" on="1"/>
        <pt x="751" y="-100" on="1"/>
        <pt x="490" y="-100" on="1"/>
        <pt x="490" y="0" on="1"/>
      </contour>
    </TTGlyph>
    <TTGlyph name="circumflex" xMin="0" yMin="765" xMax="480" yMax="1014">
      <contour>
        <pt x="0" y="765" on="1"/>
        <pt x="0" y="934" on="1"/>
        <pt x="240" y="1014" on="1"/>
        <pt x="480" y="934" on="1"/>
        <pt x="480" y="765" on="1"/>
        <pt x="240" y="854" on="1"/>
      </contour>
    </TTGlyph>
    <TTGlyph name="colon" xMin="50" yMin="0" xMax="311" yMax="700">
      <contour>
        <pt x="50" y="0" on="1"/>
        <pt x="50" y="162" on="1"/>
        <pt x="311" y="162" on="1"/>
        <pt x="311" y="0" on="1"/>
      </contour>
      <contour>
        <pt x="50" y="538" on="1"/>
        <pt x="50" y="700" on="1"/>
        <pt x="311" y="700" on="1"/>
        <pt x="311" y="538" on="1"/>
      </contour>
    </TTGlyph>
    <TTGlyph name="comma" xMin="50" yMin="-133" xMax="311" yMax="142">
      <contour>
        <pt x="50" y="-133" on="1"/>
        <pt x="50" y="142" on="1"/>
        <pt x="311" y="142" on="1"/>
        <pt x="311" y="0" on="1"/>
      </contour>
    </TTGlyph>
    <TTGlyph name="copyright" xMin="100" yMin="-142" xMax="1405" yMax="842">
      <contour>
        <pt x="100" y="28" on="1"/>
        <pt x="100" y="672" on="1"/>
        <pt x="419" y="842" on="1"/>
        <pt x="1086" y="842" on="1"/>
        <pt x="1405" y="672" on="1"/>
        <pt x="1405" y="28" on="1"/>
        <pt x="1086" y="-142" on="1"/>
        <pt x="419" y="-142" on="1"/>
      </contour>
      <contour>
        <pt x="331" y="78" on="1"/>
        <pt x="459" y="10" on="1"/>
        <pt x="1046" y="10" on="1"/>
        <pt x="1174" y="78" on="1"/>
        <pt x="1174" y="622" on="1"/>
        <pt x="1046" y="690" on="1"/>
        <pt x="459" y="690" on="1"/>
        <pt x="331" y="622" on="1"/>
      </contour>
      <contour>
        <pt x="446" y="349" on="1"/>
        <pt x="522" y="580" on="1"/>
        <pt x="1023" y="580" on="1"/>
        <pt x="1023" y="409" on="1"/>
        <pt x="823" y="429" on="1"/>
        <pt x="823" y="479" on="1"/>
        <pt x="695" y="479" on="1"/>
        <pt x="646" y="349" on="1"/>
        <pt x="695" y="220" on="1"/>
        <pt x="823" y="220" on="1"/>
        <pt x="823" y="270" on="1"/>
        <pt x="1023" y="290" on="1"/>
        <pt x="1023" y="120" on="1"/>
        <pt x="522" y="120" on="1"/>
      </contour>
    </TTGlyph>
    <TTGlyph name="currency" xMin="40" yMin="0" xMax="1210" yMax="700">
      <contour>
        <pt x="40" y="118" on="1"/>
        <pt x="40" y="198" on="1"/>
        <pt x="910" y="345" on="1"/>
        <pt x="1210" y="0" on="1"/>
        <pt x="849" y="0" on="1"/>
        <pt x="663" y="214" on="1"/>
        <pt x="391" y="168" on="1"/>
        <pt x="391" y="0" on="1"/>
        <pt x="130" y="0" on="1"/>
        <pt x="130" y="133" on="1"/>
      </contour>
      <contour>
        <pt x="40" y="240" on="1"/>
        <pt x="40" y="320" on="1"/>
        <pt x="130" y="335" on="1"/>
        <pt x="130" y="700" on="1"/>
        <pt x="1169" y="700" on="1"/>
        <pt x="1169" y="431" on="1"/>
      </contour>
      <contour>
        <pt x="391" y="385" on="1"/>
        <pt x="908" y="472" on="1"/>
        <pt x="908" y="558" on="1"/>
        <pt x="391" y="558" on="1"/>
      </contour>
    </TTGlyph>
    <TTGlyph name="d" xMin="90" yMin="0" xMax="985" yMax="700">
      <contour>
        <pt x="90" y="0" on="1"/>
        <pt x="90" y="470" on="1"/>
        <pt x="735" y="550" on="1"/>
        <pt x="735" y="700" on="1"/>
        <pt x="985" y="700" on="1"/>
        <pt x="985" y="0" on="1"/>
        <pt x="806" y="0" on="1"/>
        <pt x="755" y="50" on="1"/>
        <pt x="705" y="0" on="1"/>
      </contour>
      <contour>
        <pt x="340" y="130" on="1"/>
        <pt x="735" y="130" on="1"/>
        <pt x="735" y="425" on="1"/>
        <pt x="340" y="375" on="1"/>
      </contour>
    </TTGlyph>
    <TTGlyph name="dagger" xMin="40" yMin="-142" xMax="631" yMax="842">
      <contour>
        <pt x="40" y="485" on="1"/>
        <pt x="40" y="627" on="1"/>
        <pt x="220" y="627" on="1"/>
        <pt x="220" y="842" on="1"/>
        <pt x="451" y="842" on="1"/>
        <pt x="451" y="627" on="1"/>
        <pt x="631" y="627" on="1"/>
        <pt x="631" y="485" on="1"/>
        <pt x="451" y="485" on="1"/>
        <pt x="451" y="-142" on="1"/>
        <pt x="220" y="-142" on="1"/>
        <pt x="220" y="485" on="1"/>
      </contour>
    </TTGlyph>
    <TTGlyph name="daggerdbl" xMin="40" yMin="-142" xMax="631" yMax="842">
      <contour>
        <pt x="40" y="73" on="1"/>
        <pt x="40" y="215" on="1"/>
        <pt x="220" y="215" on="1"/>
        <pt x="220" y="485" on="1"/>
        <pt x="40" y="485" on="1"/>
        <pt x="40" y="627" on="1"/>
        <pt x="220" y="627" on="1"/>
        <pt x="220" y="842" on="1"/>
        <pt x="451" y="842" on="1"/>
        <pt x="451" y="627" on="1"/>
        <pt x="631" y="627" on="1"/>
        <pt x="631" y="485" on="1"/>
        <pt x="451" y="485" on="1"/>
        <pt x="451" y="215" on="1"/>
        <pt x="631" y="215" on="1"/>
        <pt x="631" y="73" on="1"/>
        <pt x="451" y="73" on="1"/>
        <pt x="451" y="-142" on="1"/>
        <pt x="220" y="-142" on="1"/>
        <pt x="220" y="73" on="1"/>
      </contour>
    </TTGlyph>
    <TTGlyph name="degree" xMin="50" yMin="320" xMax="518" yMax="700">
      <contour>
        <pt x="50" y="320" on="1"/>
        <pt x="50" y="700" on="1"/>
        <pt x="518" y="700" on="1"/>
        <pt x="518" y="320" on="1"/>
      </contour>
      <contour>
        <pt x="212" y="417" on="1"/>
        <pt x="356" y="417" on="1"/>
        <pt x="356" y="603" on="1"/>
        <pt x="212" y="603" on="1"/>
      </contour>
    </TTGlyph>
    <TTGlyph name="dieresis" xMin="0" yMin="775" xMax="589" yMax="984">
      <contour>
        <pt x="0" y="775" on="1"/>
        <pt x="0" y="984" on="1"/>
        <pt x="262" y="984" on="1"/>
        <pt x="262" y="894" on="1"/>
      </contour>
      <contour>
        <pt x="327" y="775" on="1"/>
        <pt x="327" y="984" on="1"/>
        <pt x="589" y="984" on="1"/>
        <pt x="589" y="894" on="1"/>
      </contour>
    </TTGlyph>
    <TTGlyph name="divide" xMin="50" yMin="17" xMax="738" yMax="683">
      <contour>
        <pt x="50" y="279" on="1"/>
        <pt x="50" y="421" on="1"/>
        <pt x="738" y="421" on="1"/>
        <pt x="738" y="279" on="1"/>
      </contour>
      <contour>
        <pt x="263" y="17" on="1"/>
        <pt x="263" y="179" on="1"/>
        <pt x="524" y="179" on="1"/>
        <pt x="524" y="17" on="1"/>
      </contour>
      <contour>
        <pt x="263" y="521" on="1"/>
        <pt x="263" y="683" on="1"/>
        <pt x="524" y="683" on="1"/>
        <pt x="524" y="521" on="1"/>
      </contour>
    </TTGlyph>
    <TTGlyph name="dollar" xMin="90" yMin="-80" xMax="1138" yMax="780">
      <contour>
        <pt x="90" y="0" on="1"/>
        <pt x="90" y="230" on="1"/>
        <pt x="351" y="192" on="1"/>
        <pt x="351" y="142" on="1"/>
        <pt x="483" y="142" on="1"/>
        <pt x="483" y="299" on="1"/>
        <pt x="90" y="361" on="1"/>
        <pt x="90" y="700" on="1"/>
        <pt x="483" y="700" on="1"/>
        <pt x="483" y="780" on="1"/>
        <pt x="578" y="780" on="1"/>
        <pt x="578" y="700" on="1"/>
        <pt x="649" y="700" on="1"/>
        <pt x="649" y="780" on="1"/>
        <pt x="744" y="780" on="1"/>
        <pt x="744" y="700" on="1"/>
        <pt x="1138" y="700" on="1"/>
        <pt x="1138" y="457" on="1"/>
        <pt x="877" y="497" on="1"/>
        <pt x="877" y="558" on="1"/>
        <pt x="744" y="558" on="1"/>
        <pt x="744" y="401" on="1"/>
        <pt x="1138" y="339" on="1"/>
        <pt x="1138" y="0" on="1"/>
        <pt x="744" y="0" on="1"/>
        <pt x="744" y="-80" on="1"/>
        <pt x="649" y="-80" on="1"/>
        <pt x="649" y="0" on="1"/>
        <pt x="578" y="0" on="1"/>
        <pt x="578" y="-80" on="1"/>
        <pt x="483" y="-80" on="1"/>
        <pt x="483" y="0" on="1"/>
      </contour>
      <contour>
        <pt x="351" y="463" on="1"/>
        <pt x="483" y="442" on="1"/>
        <pt x="483" y="558" on="1"/>
        <pt x="351" y="558" on="1"/>
      </contour>
      <contour>
        <pt x="578" y="142" on="1"/>
        <pt x="649" y="142" on="1"/>
        <pt x="649" y="273" on="1"/>
        <pt x="578" y="284" on="1"/>
      </contour>
      <contour>
        <pt x="578" y="427" on="1"/>
        <pt x="649" y="416" on="1"/>
        <pt x="649" y="558" on="1"/>
        <pt x="578" y="558" on="1"/>
      </contour>
      <contour>
        <pt x="744" y="142" on="1"/>
        <pt x="877" y="142" on="1"/>
        <pt x="877" y="237" on="1"/>
        <pt x="744" y="258" on="1"/>
      </contour>
    </TTGlyph>
    <TTGlyph name="dotlessi" xMin="0" yMin="0" xMax="375" yMax="530">
      <contour>
        <pt x="0" y="400" on="1"/>
        <pt x="0" y="530" on="1"/>
        <pt x="375" y="530" on="1"/>
        <pt x="375" y="0" on="1"/>
        <pt x="125" y="0" on="1"/>
        <pt x="125" y="400" on="1"/>
      </contour>
    </TTGlyph>
    <TTGlyph name="e" xMin="0" yMin="0" xMax="1010" yMax="530">
      <contour>
        <pt x="0" y="400" on="1"/>
        <pt x="0" y="530" on="1"/>
        <pt x="1010" y="530" on="1"/>
        <pt x="1010" y="265" on="1"/>
        <pt x="375" y="175" on="1"/>
        <pt x="375" y="130" on="1"/>
        <pt x="760" y="130" on="1"/>
        <pt x="760" y="175" on="1"/>
        <pt x="1010" y="200" on="1"/>
        <pt x="1010" y="0" on="1"/>
        <pt x="125" y="0" on="1"/>
        <pt x="125" y="400" on="1"/>
      </contour>
      <contour>
        <pt x="375" y="304" on="1"/>
        <pt x="760" y="355" on="1"/>
        <pt x="760" y="400" on="1"/>
        <pt x="375" y="400" on="1"/>
      </contour>
    </TTGlyph>
    <TTGlyph name="eacute" xMin="0" yMin="0" xMax="1010" yMax="830">
      <contour>
        <pt x="0" y="400" on="1"/>
        <pt x="0" y="530" on="1"/>
        <pt x="1010" y="530" on="1"/>
        <pt x="1010" y="265" on="1"/>
        <pt x="375" y="175" on="1"/>
        <pt x="375" y="130" on="1"/>
        <pt x="760" y="130" on="1"/>
        <pt x="760" y="175" on="1"/>
        <pt x="1010" y="200" on="1"/>
        <pt x="1010" y="0" on="1"/>
        <pt x="125" y="0" on="1"/>
        <pt x="125" y="400" on="1"/>
      </contour>
      <contour>
        <pt x="375" y="304" on="1"/>
        <pt x="760" y="355" on="1"/>
        <pt x="760" y="400" on="1"/>
        <pt x="375" y="400" on="1"/>
      </contour>
      <contour>
        <pt x="442" y="610" on="1"/>
        <pt x="522" y="830" on="1"/>
        <pt x="762" y="830" on="1"/>
        <pt x="632" y="610" on="1"/>
      </contour>
    </TTGlyph>
    <TTGlyph name="ecircumflex" xMin="0" yMin="0" xMax="1010" yMax="813">
      <contour>
        <pt x="0" y="400" on="1"/>
        <pt x="0" y="530" on="1"/>
        <pt x="1010" y="530" on="1"/>
        <pt x="1010" y="265" on="1"/>
        <pt x="375" y="175" on="1"/>
        <pt x="375" y="130" on="1"/>
        <pt x="760" y="130" on="1"/>
        <pt x="760" y="175" on="1"/>
        <pt x="1010" y="200" on="1"/>
        <pt x="1010" y="0" on="1"/>
        <pt x="125" y="0" on="1"/>
        <pt x="125" y="400" on="1"/>
      </contour>
      <contour>
        <pt x="339" y="584" on="1"/>
        <pt x="339" y="743" on="1"/>
        <pt x="559" y="813" on="1"/>
        <pt x="779" y="743" on="1"/>
        <pt x="779" y="584" on="1"/>
        <pt x="559" y="663" on="1"/>
      </contour>
      <contour>
        <pt x="375" y="304" on="1"/>
        <pt x="760" y="355" on="1"/>
        <pt x="760" y="400" on="1"/>
        <pt x="375" y="400" on="1"/>
      </contour>
    </TTGlyph>
    <TTGlyph name="edieresis" xMin="0" yMin="0" xMax="1010" yMax="784">
      <contour>
        <pt x="0" y="400" on="1"/>
        <pt x="0" y="530" on="1"/>
        <pt x="1010" y="530" on="1"/>
        <pt x="1010" y="265" on="1"/>
        <pt x="375" y="175" on="1"/>
        <pt x="375" y="130" on="1"/>
        <pt x="760" y="130" on="1"/>
        <pt x="760" y="175" on="1"/>
        <pt x="1010" y="200" on="1"/>
        <pt x="1010" y="0" on="1"/>
        <pt x="125" y="0" on="1"/>
        <pt x="125" y="400" on="1"/>
      </contour>
      <contour>
        <pt x="263" y="575" on="1"/>
        <pt x="263" y="784" on="1"/>
        <pt x="515" y="784" on="1"/>
        <pt x="515" y="694" on="1"/>
      </contour>
      <contour>
        <pt x="375" y="304" on="1"/>
        <pt x="760" y="355" on="1"/>
        <pt x="760" y="400" on="1"/>
        <pt x="375" y="400" on="1"/>
      </contour>
      <contour>
        <pt x="580" y="575" on="1"/>
        <pt x="580" y="784" on="1"/>
        <pt x="832" y="784" on="1"/>
        <pt x="832" y="694" on="1"/>
      </contour>
    </TTGlyph>
    <TTGlyph name="egrave" xMin="0" yMin="0" xMax="1010" yMax="830">
      <contour>
        <pt x="0" y="400" on="1"/>
        <pt x="0" y="530" on="1"/>
        <pt x="1010" y="530" on="1"/>
        <pt x="1010" y="265" on="1"/>
        <pt x="375" y="175" on="1"/>
        <pt x="375" y="130" on="1"/>
        <pt x="760" y="130" on="1"/>
        <pt x="760" y="175" on="1"/>
        <pt x="1010" y="200" on="1"/>
        <pt x="1010" y="0" on="1"/>
        <pt x="125" y="0" on="1"/>
        <pt x="125" y="400" on="1"/>
      </contour>
      <contour>
        <pt x="332" y="830" on="1"/>
        <pt x="572" y="830" on="1"/>
        <pt x="652" y="610" on="1"/>
        <pt x="462" y="610" on="1"/>
      </contour>
      <contour>
        <pt x="375" y="304" on="1"/>
        <pt x="760" y="355" on="1"/>
        <pt x="760" y="400" on="1"/>
        <pt x="375" y="400" on="1"/>
      </contour>
    </TTGlyph>
    <TTGlyph name="eight" xMin="90" yMin="0" xMax="1149" yMax="700">
      <contour>
        <pt x="90" y="0" on="1"/>
        <pt x="90" y="261" on="1"/>
        <pt x="247" y="350" on="1"/>
        <pt x="90" y="440" on="1"/>
        <pt x="90" y="700" on="1"/>
        <pt x="1149" y="700" on="1"/>
        <pt x="1149" y="440" on="1"/>
        <pt x="992" y="350" on="1"/>
        <pt x="1149" y="261" on="1"/>
        <pt x="1149" y="0" on="1"/>
      </contour>
      <contour>
        <pt x="351" y="142" on="1"/>
        <pt x="888" y="142" on="1"/>
        <pt x="888" y="217" on="1"/>
        <pt x="780" y="280" on="1"/>
        <pt x="459" y="280" on="1"/>
        <pt x="351" y="217" on="1"/>
      </contour>
      <contour>
        <pt x="351" y="484" on="1"/>
        <pt x="459" y="420" on="1"/>
        <pt x="780" y="420" on="1"/>
        <pt x="888" y="484" on="1"/>
        <pt x="888" y="558" on="1"/>
        <pt x="351" y="558" on="1"/>
      </contour>
    </TTGlyph>
    <TTGlyph name="ellipsis" xMin="50" yMin="0" xMax="991" yMax="162">
      <contour>
        <pt x="50" y="0" on="1"/>
        <pt x="50" y="162" on="1"/>
        <pt x="311" y="162" on="1"/>
        <pt x="311" y="0" on="1"/>
      </contour>
      <contour>
        <pt x="390" y="0" on="1"/>
        <pt x="390" y="162" on="1"/>
        <pt x="651" y="162" on="1"/>
        <pt x="651" y="0" on="1"/>
      </contour>
      <contour>
        <pt x="730" y="0" on="1"/>
        <pt x="730" y="162" on="1"/>
        <pt x="991" y="162" on="1"/>
        <pt x="991" y="0" on="1"/>
      </contour>
    </TTGlyph>
    <TTGlyph name="emdash" xMin="50" yMin="290" xMax="931" yMax="432">
      <contour>
        <pt x="50" y="290" on="1"/>
        <pt x="50" y="432" on="1"/>
        <pt x="931" y="432" on="1"/>
        <pt x="931" y="290" on="1"/>
      </contour>
    </TTGlyph>
    <TTGlyph name="endash" xMin="50" yMin="290" xMax="671" yMax="432">
      <contour>
        <pt x="50" y="290" on="1"/>
        <pt x="50" y="432" on="1"/>
        <pt x="671" y="432" on="1"/>
        <pt x="671" y="290" on="1"/>
      </contour>
    </TTGlyph>
    <TTGlyph name="equal" xMin="50" yMin="149" xMax="738" yMax="551">
      <contour>
        <pt x="50" y="149" on="1"/>
        <pt x="50" y="291" on="1"/>
        <pt x="738" y="291" on="1"/>
        <pt x="738" y="149" on="1"/>
      </contour>
      <contour>
        <pt x="50" y="409" on="1"/>
        <pt x="50" y="551" on="1"/>
        <pt x="738" y="551" on="1"/>
        <pt x="738" y="409" on="1"/>
      </contour>
    </TTGlyph>
    <TTGlyph name="eth" xMin="90" yMin="0" xMax="985" yMax="795">
      <contour>
        <pt x="90" y="0" on="1"/>
        <pt x="90" y="430" on="1"/>
        <pt x="735" y="430" on="1"/>
        <pt x="735" y="468" on="1"/>
        <pt x="445" y="531" on="1"/>
        <pt x="430" y="462" on="1"/>
        <pt x="284" y="494" on="1"/>
        <pt x="299" y="563" on="1"/>
        <pt x="130" y="600" on="1"/>
        <pt x="160" y="745" on="1"/>
        <pt x="334" y="707" on="1"/>
        <pt x="354" y="795" on="1"/>
        <pt x="500" y="763" on="1"/>
        <pt x="481" y="675" on="1"/>
        <pt x="985" y="565" on="1"/>
        <pt x="985" y="0" on="1"/>
      </contour>
      <contour>
        <pt x="340" y="130" on="1"/>
        <pt x="735" y="130" on="1"/>
        <pt x="735" y="300" on="1"/>
        <pt x="340" y="300" on="1"/>
      </contour>
    </TTGlyph>
    <TTGlyph name="exclam" xMin="100" yMin="0" xMax="361" yMax="700">
      <contour>
        <pt x="100" y="0" on="1"/>
        <pt x="100" y="142" on="1"/>
        <pt x="361" y="142" on="1"/>
        <pt x="361" y="0" on="1"/>
      </contour>
      <contour>
        <pt x="100" y="202" on="1"/>
        <pt x="100" y="700" on="1"/>
        <pt x="361" y="700" on="1"/>
        <pt x="361" y="202" on="1"/>
      </contour>
    </TTGlyph>
    <TTGlyph name="exclamdown" xMin="100" yMin="0" xMax="361" yMax="700">
      <contour>
        <pt x="100" y="0" on="1"/>
        <pt x="100" y="498" on="1"/>
        <pt x="361" y="498" on="1"/>
        <pt x="361" y="0" on="1"/>
      </contour>
      <contour>
        <pt x="100" y="558" on="1"/>
        <pt x="100" y="700" on="1"/>
        <pt x="361" y="700" on="1"/>
        <pt x="361" y="558" on="1"/>
      </contour>
    </TTGlyph>
    <TTGlyph name="f" xMin="0" yMin="0" xMax="870" yMax="700">
      <contour>
        <pt x="0" y="290" on="1"/>
        <pt x="0" y="420" on="1"/>
        <pt x="125" y="420" on="1"/>
        <pt x="125" y="580" on="1"/>
        <pt x="370" y="700" on="1"/>
        <pt x="870" y="700" on="1"/>
        <pt x="870" y="480" on="1"/>
        <pt x="620" y="505" on="1"/>
        <pt x="620" y="570" on="1"/>
        <pt x="435" y="570" on="1"/>
        <pt x="375" y="540" on="1"/>
        <pt x="375" y="420" on="1"/>
        <pt x="670" y="420" on="1"/>
        <pt x="670" y="290" on="1"/>
        <pt x="375" y="290" on="1"/>
        <pt x="375" y="0" on="1"/>
        <pt x="125" y="0" on="1"/>
        <pt x="125" y="290" on="1"/>
      </contour>
    </TTGlyph>
    <TTGlyph name="five" xMin="100" yMin="0" xMax="1148" yMax="700">
      <contour>
        <pt x="100" y="0" on="1"/>
        <pt x="100" y="243" on="1"/>
        <pt x="361" y="203" on="1"/>
        <pt x="361" y="142" on="1"/>
        <pt x="887" y="142" on="1"/>
        <pt x="887" y="227" on="1"/>
        <pt x="100" y="351" on="1"/>
        <pt x="100" y="700" on="1"/>
        <pt x="1148" y="700" on="1"/>
        <pt x="1148" y="558" on="1"/>
        <pt x="361" y="558" on="1"/>
        <pt x="361" y="473" on="1"/>
        <pt x="1148" y="349" on="1"/>
        <pt x="1148" y="0" on="1"/>
      </contour>
    </TTGlyph>
    <TTGlyph name="florin" xMin="20" yMin="-439" xMax="986" yMax="700">
      <contour>
        <pt x="20" y="-439" on="1"/>
        <pt x="151" y="188" on="1"/>
        <pt x="37" y="188" on="1"/>
        <pt x="67" y="330" on="1"/>
        <pt x="181" y="330" on="1"/>
        <pt x="260" y="700" on="1"/>
        <pt x="986" y="700" on="1"/>
        <pt x="933" y="447" on="1"/>
        <pt x="691" y="447" on="1"/>
        <pt x="715" y="558" on="1"/>
        <pt x="491" y="558" on="1"/>
        <pt x="442" y="330" on="1"/>
        <pt x="666" y="330" on="1"/>
        <pt x="636" y="188" on="1"/>
        <pt x="412" y="188" on="1"/>
        <pt x="308" y="-306" on="1"/>
      </contour>
    </TTGlyph>
    <TTGlyph name="four" xMin="20" yMin="0" xMax="1146" yMax="743">
      <contour>
        <pt x="20" y="94" on="1"/>
        <pt x="20" y="237" on="1"/>
        <pt x="992" y="743" on="1"/>
        <pt x="992" y="236" on="1"/>
        <pt x="1146" y="236" on="1"/>
        <pt x="1146" y="94" on="1"/>
        <pt x="992" y="94" on="1"/>
        <pt x="992" y="0" on="1"/>
        <pt x="731" y="0" on="1"/>
        <pt x="731" y="94" on="1"/>
      </contour>
      <contour>
        <pt x="356" y="236" on="1"/>
        <pt x="731" y="236" on="1"/>
        <pt x="731" y="432" on="1"/>
      </contour>
    </TTGlyph>
    <TTGlyph name="g" xMin="90" yMin="-170" xMax="985" yMax="530">
      <contour>
        <pt x="90" y="30" on="1"/>
        <pt x="340" y="5" on="1"/>
        <pt x="340" y="-40" on="1"/>
        <pt x="735" y="-40" on="1"/>
        <pt x="735" y="30" on="1"/>
        <pt x="90" y="110" on="1"/>
        <pt x="90" y="530" on="1"/>
        <pt x="705" y="530" on="1"/>
        <pt x="755" y="480" on="1"/>
        <pt x="806" y="530" on="1"/>
        <pt x="985" y="530" on="1"/>
        <pt x="985" y="-170" on="1"/>
        <pt x="90" y="-170" on="1"/>
      </contour>
      <contour>
        <pt x="340" y="205" on="1"/>
        <pt x="735" y="155" on="1"/>
        <pt x="735" y="400" on="1"/>
        <pt x="340" y="400" on="1"/>
      </contour>
    </TTGlyph>
    <TTGlyph name="germandbls" xMin="100" yMin="0" xMax="1119" yMax="700">
      <contour>
        <pt x="100" y="0" on="1"/>
        <pt x="100" y="700" on="1"/>
        <pt x="1017" y="700" on="1"/>
        <pt x="1017" y="455" on="1"/>
        <pt x="728" y="347" on="1"/>
        <pt x="1119" y="276" on="1"/>
        <pt x="1119" y="0" on="1"/>
        <pt x="504" y="0" on="1"/>
        <pt x="504" y="130" on="1"/>
        <pt x="869" y="130" on="1"/>
        <pt x="869" y="183" on="1"/>
        <pt x="509" y="254" on="1"/>
        <pt x="509" y="414" on="1"/>
        <pt x="767" y="517" on="1"/>
        <pt x="767" y="570" on="1"/>
        <pt x="350" y="570" on="1"/>
        <pt x="350" y="0" on="1"/>
      </contour>
    </TTGlyph>
    <TTGlyph name="grave" xMin="20" yMin="470" xMax="360" yMax="700">
      <contour>
        <pt x="20" y="700" on="1"/>
        <pt x="270" y="700" on="1"/>
        <pt x="360" y="470" on="1"/>
        <pt x="160" y="470" on="1"/>
      </contour>
    </TTGlyph>
    <TTGlyph name="greater" xMin="50" yMin="-35" xMax="662" yMax="735">
      <contour>
        <pt x="50" y="-35" on="1"/>
        <pt x="50" y="135" on="1"/>
        <pt x="473" y="350" on="1"/>
        <pt x="50" y="565" on="1"/>
        <pt x="50" y="735" on="1"/>
        <pt x="662" y="424" on="1"/>
        <pt x="662" y="276" on="1"/>
      </contour>
    </TTGlyph>
    <TTGlyph name="guillemotleft" xMin="0" yMin="10" xMax="847" yMax="530">
      <contour>
        <pt x="0" y="270" on="1"/>
        <pt x="267" y="530" on="1"/>
        <pt x="494" y="530" on="1"/>
        <pt x="229" y="270" on="1"/>
        <pt x="494" y="10" on="1"/>
        <pt x="267" y="10" on="1"/>
      </contour>
      <contour>
        <pt x="353" y="270" on="1"/>
        <pt x="620" y="530" on="1"/>
        <pt x="847" y="530" on="1"/>
        <pt x="582" y="270" on="1"/>
        <pt x="847" y="10" on="1"/>
        <pt x="620" y="10" on="1"/>
      </contour>
    </TTGlyph>
    <TTGlyph name="guillemotright" xMin="0" yMin="10" xMax="847" yMax="530">
      <contour>
        <pt x="0" y="10" on="1"/>
        <pt x="265" y="270" on="1"/>
        <pt x="0" y="530" on="1"/>
        <pt x="227" y="530" on="1"/>
        <pt x="494" y="270" on="1"/>
        <pt x="227" y="10" on="1"/>
      </contour>
      <contour>
        <pt x="353" y="10" on="1"/>
        <pt x="618" y="270" on="1"/>
        <pt x="353" y="530" on="1"/>
        <pt x="580" y="530" on="1"/>
        <pt x="847" y="270" on="1"/>
        <pt x="580" y="10" on="1"/>
      </contour>
    </TTGlyph>
    <TTGlyph name="guilsinglleft" xMin="50" yMin="0" xMax="425" yMax="700">
      <contour>
        <pt x="50" y="281" on="1"/>
        <pt x="50" y="419" on="1"/>
        <pt x="425" y="700" on="1"/>
        <pt x="425" y="514" on="1"/>
        <pt x="209" y="350" on="1"/>
        <pt x="425" y="186" on="1"/>
        <pt x="425" y="0" on="1"/>
      </contour>
    </TTGlyph>
    <TTGlyph name="guilsinglright" xMin="50" yMin="0" xMax="425" yMax="700">
      <contour>
        <pt x="50" y="0" on="1"/>
        <pt x="50" y="186" on="1"/>
        <pt x="266" y="350" on="1"/>
        <pt x="50" y="514" on="1"/>
        <pt x="50" y="700" on="1"/>
        <pt x="425" y="419" on="1"/>
        <pt x="425" y="281" on="1"/>
      </contour>
    </TTGlyph>
    <TTGlyph name="h" xMin="90" yMin="0" xMax="985" yMax="700">
      <contour>
        <pt x="90" y="0" on="1"/>
        <pt x="90" y="700" on="1"/>
        <pt x="340" y="700" on="1"/>
        <pt x="340" y="550" on="1"/>
        <pt x="985" y="470" on="1"/>
        <pt x="985" y="0" on="1"/>
        <pt x="735" y="0" on="1"/>
        <pt x="735" y="375" on="1"/>
        <pt x="340" y="425" on="1"/>
        <pt x="340" y="0" on="1"/>
      </contour>
    </TTGlyph>
    <TTGlyph name="hbar" xMin="0" yMin="0" xMax="1105" yMax="700">
      <contour>
        <pt x="0" y="558" on="1"/>
        <pt x="0" y="700" on="1"/>
        <pt x="597" y="700" on="1"/>
        <pt x="597" y="558" on="1"/>
        <pt x="429" y="558" on="1"/>
        <pt x="429" y="459" on="1"/>
        <pt x="1105" y="345" on="1"/>
        <pt x="1105" y="0" on="1"/>
        <pt x="844" y="0" on="1"/>
        <pt x="844" y="232" on="1"/>
        <pt x="429" y="302" on="1"/>
        <pt x="429" y="0" on="1"/>
        <pt x="168" y="0" on="1"/>
        <pt x="168" y="558" on="1"/>
      </contour>
    </TTGlyph>
    <TTGlyph name="hyphen" xMin="50" yMin="279" xMax="738" yMax="421">
      <contour>
        <pt x="50" y="279" on="1"/>
        <pt x="50" y="421" on="1"/>
        <pt x="738" y="421" on="1"/>
        <pt x="738" y="279" on="1"/>
      </contour>
    </TTGlyph>
    <TTGlyph name="i" xMin="0" yMin="0" xMax="375" yMax="740">
      <contour>
        <pt x="0" y="400" on="1"/>
        <pt x="0" y="530" on="1"/>
        <pt x="375" y="530" on="1"/>
        <pt x="375" y="0" on="1"/>
        <pt x="125" y="0" on="1"/>
        <pt x="125" y="400" on="1"/>
      </contour>
      <contour>
        <pt x="125" y="600" on="1"/>
        <pt x="125" y="740" on="1"/>
        <pt x="375" y="740" on="1"/>
        <pt x="375" y="600" on="1"/>
      </contour>
    </TTGlyph>
    <TTGlyph name="iacute" xMin="0" yMin="0" xMax="446" yMax="820">
      <contour>
        <pt x="0" y="400" on="1"/>
        <pt x="0" y="530" on="1"/>
        <pt x="375" y="530" on="1"/>
        <pt x="375" y="0" on="1"/>
        <pt x="125" y="0" on="1"/>
        <pt x="125" y="400" on="1"/>
      </contour>
      <contour>
        <pt x="126" y="600" on="1"/>
        <pt x="206" y="820" on="1"/>
        <pt x="446" y="820" on="1"/>
        <pt x="316" y="600" on="1"/>
      </contour>
    </TTGlyph>
    <TTGlyph name="icircumflex" xMin="0" yMin="0" xMax="440" yMax="813">
      <contour>
        <pt x="0" y="584" on="1"/>
        <pt x="0" y="743" on="1"/>
        <pt x="220" y="813" on="1"/>
        <pt x="440" y="743" on="1"/>
        <pt x="440" y="584" on="1"/>
        <pt x="220" y="663" on="1"/>
      </contour>
      <contour>
        <pt x="11" y="400" on="1"/>
        <pt x="11" y="530" on="1"/>
        <pt x="386" y="530" on="1"/>
        <pt x="386" y="0" on="1"/>
        <pt x="136" y="0" on="1"/>
        <pt x="136" y="400" on="1"/>
      </contour>
    </TTGlyph>
    <TTGlyph name="idieresis" xMin="-20" yMin="0" xMax="549" yMax="784">
      <contour>
        <pt x="-20" y="575" on="1"/>
        <pt x="-20" y="784" on="1"/>
        <pt x="232" y="784" on="1"/>
        <pt x="232" y="694" on="1"/>
      </contour>
      <contour>
        <pt x="17" y="400" on="1"/>
        <pt x="17" y="530" on="1"/>
        <pt x="392" y="530" on="1"/>
        <pt x="392" y="0" on="1"/>
        <pt x="142" y="0" on="1"/>
        <pt x="142" y="400" on="1"/>
      </contour>
      <contour>
        <pt x="297" y="575" on="1"/>
        <pt x="297" y="784" on="1"/>
        <pt x="549" y="784" on="1"/>
        <pt x="549" y="694" on="1"/>
      </contour>
    </TTGlyph>
    <TTGlyph name="igrave" xMin="0" yMin="0" xMax="375" yMax="820">
      <contour>
        <pt x="0" y="400" on="1"/>
        <pt x="0" y="530" on="1"/>
        <pt x="375" y="530" on="1"/>
        <pt x="375" y="0" on="1"/>
        <pt x="125" y="0" on="1"/>
        <pt x="125" y="400" on="1"/>
      </contour>
      <contour>
        <pt x="32" y="820" on="1"/>
        <pt x="272" y="820" on="1"/>
        <pt x="352" y="600" on="1"/>
        <pt x="162" y="600" on="1"/>
      </contour>
    </TTGlyph>
    <TTGlyph name="ij" xMin="0" yMin="-190" xMax="835" yMax="740">
      <contour>
        <pt x="0" y="400" on="1"/>
        <pt x="0" y="530" on="1"/>
        <pt x="835" y="530" on="1"/>
        <pt x="835" y="-70" on="1"/>
        <pt x="590" y="-190" on="1"/>
        <pt x="124" y="-190" on="1"/>
        <pt x="124" y="-60" on="1"/>
        <pt x="525" y="-60" on="1"/>
        <pt x="585" y="-30" on="1"/>
        <pt x="585" y="400" on="1"/>
        <pt x="375" y="400" on="1"/>
        <pt x="375" y="0" on="1"/>
        <pt x="125" y="0" on="1"/>
        <pt x="125" y="400" on="1"/>
      </contour>
      <contour>
        <pt x="125" y="600" on="1"/>
        <pt x="125" y="740" on="1"/>
        <pt x="375" y="740" on="1"/>
        <pt x="375" y="600" on="1"/>
      </contour>
      <contour>
        <pt x="585" y="600" on="1"/>
        <pt x="585" y="740" on="1"/>
        <pt x="835" y="740" on="1"/>
        <pt x="835" y="600" on="1"/>
      </contour>
    </TTGlyph>
    <TTGlyph name="itilde" xMin="0" yMin="0" xMax="420" yMax="804">
      <contour>
        <pt x="0" y="580" on="1"/>
        <pt x="0" y="729" on="1"/>
        <pt x="140" y="804" on="1"/>
        <pt x="280" y="730" on="1"/>
        <pt x="420" y="804" on="1"/>
        <pt x="420" y="655" on="1"/>
        <pt x="280" y="580" on="1"/>
        <pt x="140" y="654" on="1"/>
      </contour>
      <contour>
        <pt x="10" y="400" on="1"/>
        <pt x="10" y="530" on="1"/>
        <pt x="385" y="530" on="1"/>
        <pt x="385" y="0" on="1"/>
        <pt x="135" y="0" on="1"/>
        <pt x="135" y="400" on="1"/>
      </contour>
    </TTGlyph>
    <TTGlyph name="j" xMin="-170" yMin="-170" xMax="435" yMax="740">
      <contour>
        <pt x="-170" y="-40" on="1"/>
        <pt x="125" y="-40" on="1"/>
        <pt x="185" y="-10" on="1"/>
        <pt x="185" y="400" on="1"/>
        <pt x="60" y="400" on="1"/>
        <pt x="60" y="530" on="1"/>
        <pt x="435" y="530" on="1"/>
        <pt x="435" y="-50" on="1"/>
        <pt x="190" y="-170" on="1"/>
        <pt x="-170" y="-170" on="1"/>
      </contour>
      <contour>
        <pt x="185" y="600" on="1"/>
        <pt x="185" y="740" on="1"/>
        <pt x="435" y="740" on="1"/>
        <pt x="435" y="600" on="1"/>
      </contour>
    </TTGlyph>
    <TTGlyph name="jcircumflex" xMin="-170" yMin="-170" xMax="479" yMax="813">
      <contour>
        <pt x="-170" y="-40" on="1"/>
        <pt x="125" y="-40" on="1"/>
        <pt x="185" y="-10" on="1"/>
        <pt x="185" y="400" on="1"/>
        <pt x="60" y="400" on="1"/>
        <pt x="60" y="530" on="1"/>
        <pt x="435" y="530" on="1"/>
        <pt x="435" y="-50" on="1"/>
        <pt x="190" y="-170" on="1"/>
        <pt x="-170" y="-170" on="1"/>
      </contour>
      <contour>
        <pt x="39" y="584" on="1"/>
        <pt x="39" y="743" on="1"/>
        <pt x="259" y="813" on="1"/>
        <pt x="479" y="743" on="1"/>
        <pt x="479" y="584" on="1"/>
        <pt x="259" y="663" on="1"/>
      </contour>
    </TTGlyph>
    <TTGlyph name="k" xMin="0" yMin="0" xMax="1000" yMax="700">
      <contour>
        <pt x="0" y="86" on="1"/>
        <pt x="0" y="240" on="1"/>
        <pt x="125" y="269" on="1"/>
        <pt x="125" y="700" on="1"/>
        <pt x="375" y="700" on="1"/>
        <pt x="375" y="325" on="1"/>
        <pt x="750" y="410" on="1"/>
        <pt x="750" y="530" on="1"/>
        <pt x="1000" y="530" on="1"/>
        <pt x="1000" y="315" on="1"/>
        <pt x="705" y="249" on="1"/>
        <pt x="845" y="130" on="1"/>
        <pt x="1000" y="130" on="1"/>
        <pt x="1000" y="0" on="1"/>
        <pt x="705" y="0" on="1"/>
        <pt x="480" y="200" on="1"/>
        <pt x="375" y="175" on="1"/>
        <pt x="375" y="0" on="1"/>
        <pt x="125" y="0" on="1"/>
        <pt x="125" y="115" on="1"/>
      </contour>
    </TTGlyph>
    <TTGlyph name="kcommaaccent" xMin="0" yMin="-245" xMax="1000" yMax="700">
      <contour>
        <pt x="0" y="86" on="1"/>
        <pt x="0" y="240" on="1"/>
        <pt x="125" y="269" on="1"/>
        <pt x="125" y="700" on="1"/>
        <pt x="375" y="700" on="1"/>
        <pt x="375" y="325" on="1"/>
        <pt x="750" y="410" on="1"/>
        <pt x="750" y="530" on="1"/>
        <pt x="1000" y="530" on="1"/>
        <pt x="1000" y="315" on="1"/>
        <pt x="705" y="249" on="1"/>
        <pt x="845" y="130" on="1"/>
        <pt x="1000" y="130" on="1"/>
        <pt x="1000" y="0" on="1"/>
        <pt x="705" y="0" on="1"/>
        <pt x="480" y="200" on="1"/>
        <pt x="375" y="175" on="1"/>
        <pt x="375" y="0" on="1"/>
        <pt x="125" y="0" on="1"/>
        <pt x="125" y="115" on="1"/>
      </contour>
      <contour>
        <pt x="415" y="-20" on="1"/>
        <pt x="665" y="-20" on="1"/>
        <pt x="665" y="-112" on="1"/>
        <pt x="415" y="-245" on="1"/>
      </contour>
    </TTGlyph>
    <TTGlyph name="kgreenlandic" xMin="0" yMin="0" xMax="1000" yMax="530">
      <contour>
        <pt x="0" y="290" on="1"/>
        <pt x="0" y="444" on="1"/>
        <pt x="125" y="415" on="1"/>
        <pt x="125" y="530" on="1"/>
        <pt x="375" y="530" on="1"/>
        <pt x="375" y="355" on="1"/>
        <pt x="480" y="330" on="1"/>
        <pt x="705" y="530" on="1"/>
        <pt x="1000" y="530" on="1"/>
        <pt x="1000" y="400" on="1"/>
        <pt x="845" y="400" on="1"/>
        <pt x="705" y="281" on="1"/>
        <pt x="1000" y="215" on="1"/>
        <pt x="1000" y="0" on="1"/>
        <pt x="750" y="0" on="1"/>
        <pt x="750" y="120" on="1"/>
        <pt x="375" y="205" on="1"/>
        <pt x="375" y="0" on="1"/>
        <pt x="125" y="0" on="1"/>
        <pt x="125" y="261" on="1"/>
      </contour>
    </TTGlyph>
    <TTGlyph name="l" xMin="90" yMin="0" xMax="465" yMax="700">
      <contour>
        <pt x="90" y="0" on="1"/>
        <pt x="90" y="700" on="1"/>
        <pt x="340" y="700" on="1"/>
        <pt x="340" y="130" on="1"/>
        <pt x="465" y="130" on="1"/>
        <pt x="465" y="0" on="1"/>
      </contour>
    </TTGlyph>
    <TTGlyph name="ldot" xMin="90" yMin="0" xMax="700" yMax="700">
      <contour>
        <pt x="90" y="0" on="1"/>
        <pt x="90" y="700" on="1"/>
        <pt x="340" y="700" on="1"/>
        <pt x="340" y="130" on="1"/>
        <pt x="465" y="130" on="1"/>
        <pt x="465" y="0" on="1"/>
      </contour>
      <contour>
        <pt x="439" y="310" on="1"/>
        <pt x="439" y="472" on="1"/>
        <pt x="700" y="472" on="1"/>
        <pt x="700" y="310" on="1"/>
      </contour>
    </TTGlyph>
    <TTGlyph name="less" xMin="50" yMin="-35" xMax="662" yMax="735">
      <contour>
        <pt x="50" y="276" on="1"/>
        <pt x="50" y="424" on="1"/>
        <pt x="662" y="735" on="1"/>
        <pt x="662" y="565" on="1"/>
        <pt x="239" y="350" on="1"/>
        <pt x="662" y="135" on="1"/>
        <pt x="662" y="-35" on="1"/>
      </contour>
    </TTGlyph>
    <TTGlyph name="logicalnot" xMin="50" yMin="240" xMax="738" yMax="531">
      <contour>
        <pt x="50" y="389" on="1"/>
        <pt x="50" y="531" on="1"/>
        <pt x="738" y="531" on="1"/>
        <pt x="738" y="240" on="1"/>
        <pt x="576" y="240" on="1"/>
        <pt x="576" y="389" on="1"/>
      </contour>
    </TTGlyph>
    <TTGlyph name="lslash" xMin="20" yMin="0" xMax="495" yMax="700">
      <contour>
        <pt x="20" y="100" on="1"/>
        <pt x="20" y="280" on="1"/>
        <pt x="120" y="358" on="1"/>
        <pt x="120" y="700" on="1"/>
        <pt x="370" y="700" on="1"/>
        <pt x="370" y="555" on="1"/>
        <pt x="491" y="650" on="1"/>
        <pt x="491" y="470" on="1"/>
        <pt x="370" y="375" on="1"/>
        <pt x="370" y="130" on="1"/>
        <pt x="495" y="130" on="1"/>
        <pt x="495" y="0" on="1"/>
        <pt x="120" y="0" on="1"/>
        <pt x="120" y="178" on="1"/>
      </contour>
    </TTGlyph>
    <TTGlyph name="m" xMin="90" yMin="0" xMax="1380" yMax="530">
      <contour>
        <pt x="90" y="0" on="1"/>
        <pt x="90" y="530" on="1"/>
        <pt x="269" y="530" on="1"/>
        <pt x="320" y="480" on="1"/>
        <pt x="370" y="530" on="1"/>
        <pt x="625" y="530" on="1"/>
        <pt x="735" y="475" on="1"/>
        <pt x="845" y="530" on="1"/>
        <pt x="1135" y="530" on="1"/>
        <pt x="1380" y="410" on="1"/>
        <pt x="1380" y="0" on="1"/>
        <pt x="1130" y="0" on="1"/>
        <pt x="1130" y="370" on="1"/>
        <pt x="1070" y="400" on="1"/>
        <pt x="910" y="400" on="1"/>
        <pt x="860" y="375" on="1"/>
        <pt x="860" y="0" on="1"/>
        <pt x="610" y="0" on="1"/>
        <pt x="610" y="375" on="1"/>
        <pt x="560" y="400" on="1"/>
        <pt x="340" y="400" on="1"/>
        <pt x="340" y="0" on="1"/>
      </contour>
    </TTGlyph>
    <TTGlyph name="mu" xMin="90" yMin="-270" xMax="964" yMax="530">
      <contour>
        <pt x="90" y="-270" on="1"/>
        <pt x="90" y="530" on="1"/>
        <pt x="339" y="530" on="1"/>
        <pt x="339" y="265" on="1"/>
        <pt x="567" y="130" on="1"/>
        <pt x="715" y="130" on="1"/>
        <pt x="715" y="530" on="1"/>
        <pt x="964" y="530" on="1"/>
        <pt x="964" y="0" on="1"/>
        <pt x="487" y="0" on="1"/>
        <pt x="339" y="87" on="1"/>
        <pt x="339" y="-140" on="1"/>
      </contour>
    </TTGlyph>
    <TTGlyph name="multiply" xMin="50" yMin="42" xMax="666" yMax="659">
      <contour>
        <pt x="50" y="143" on="1"/>
        <pt x="258" y="350" on="1"/>
        <pt x="50" y="558" on="1"/>
        <pt x="150" y="659" on="1"/>
        <pt x="358" y="451" on="1"/>
        <pt x="566" y="659" on="1"/>
        <pt x="666" y="558" on="1"/>
        <pt x="458" y="350" on="1"/>
        <pt x="666" y="143" on="1"/>
        <pt x="566" y="42" on="1"/>
        <pt x="358" y="250" on="1"/>
        <pt x="150" y="42" on="1"/>
      </contour>
    </TTGlyph>
    <TTGlyph name="n" xMin="90" yMin="0" xMax="985" yMax="530">
      <contour>
        <pt x="90" y="0" on="1"/>
        <pt x="90" y="530" on="1"/>
        <pt x="269" y="530" on="1"/>
        <pt x="320" y="480" on="1"/>
        <pt x="370" y="530" on="1"/>
        <pt x="740" y="530" on="1"/>
        <pt x="985" y="410" on="1"/>
        <pt x="985" y="0" on="1"/>
        <pt x="735" y="0" on="1"/>
        <pt x="735" y="370" on="1"/>
        <pt x="675" y="400" on="1"/>
        <pt x="340" y="400" on="1"/>
        <pt x="340" y="0" on="1"/>
      </contour>
    </TTGlyph>
    <TTGlyph name="nacute" xMin="90" yMin="0" xMax="985" yMax="830">
      <contour>
        <pt x="90" y="0" on="1"/>
        <pt x="90" y="530" on="1"/>
        <pt x="269" y="530" on="1"/>
        <pt x="320" y="480" on="1"/>
        <pt x="370" y="530" on="1"/>
        <pt x="740" y="530" on="1"/>
        <pt x="985" y="410" on="1"/>
        <pt x="985" y="0" on="1"/>
        <pt x="735" y="0" on="1"/>
        <pt x="735" y="370" on="1"/>
        <pt x="675" y="400" on="1"/>
        <pt x="340" y="400" on="1"/>
        <pt x="340" y="0" on="1"/>
      </contour>
      <contour>
        <pt x="442" y="610" on="1"/>
        <pt x="522" y="830" on="1"/>
        <pt x="762" y="830" on="1"/>
        <pt x="632" y="610" on="1"/>
      </contour>
    </TTGlyph>
    <TTGlyph name="nine" xMin="90" yMin="0" xMax="1129" yMax="700">
      <contour>
        <pt x="90" y="0" on="1"/>
        <pt x="90" y="233" on="1"/>
        <pt x="351" y="193" on="1"/>
        <pt x="351" y="142" on="1"/>
        <pt x="868" y="142" on="1"/>
        <pt x="868" y="219" on="1"/>
        <pt x="90" y="350" on="1"/>
        <pt x="90" y="700" on="1"/>
        <pt x="1129" y="700" on="1"/>
        <pt x="1129" y="0" on="1"/>
      </contour>
      <contour>
        <pt x="351" y="473" on="1"/>
        <pt x="868" y="386" on="1"/>
        <pt x="868" y="558" on="1"/>
        <pt x="351" y="558" on="1"/>
      </contour>
    </TTGlyph>
    <TTGlyph name="ntilde" xMin="90" yMin="0" xMax="985" yMax="804">
      <contour>
        <pt x="90" y="0" on="1"/>
        <pt x="90" y="530" on="1"/>
        <pt x="269" y="530" on="1"/>
        <pt x="320" y="480" on="1"/>
        <pt x="370" y="530" on="1"/>
        <pt x="740" y="530" on="1"/>
        <pt x="985" y="410" on="1"/>
        <pt x="985" y="0" on="1"/>
        <pt x="735" y="0" on="1"/>
        <pt x="735" y="370" on="1"/>
        <pt x="675" y="400" on="1"/>
        <pt x="340" y="400" on="1"/>
        <pt x="340" y="0" on="1"/>
      </contour>
      <contour>
        <pt x="340" y="580" on="1"/>
        <pt x="340" y="729" on="1"/>
        <pt x="480" y="804" on="1"/>
        <pt x="620" y="730" on="1"/>
        <pt x="760" y="804" on="1"/>
        <pt x="760" y="655" on="1"/>
        <pt x="620" y="580" on="1"/>
        <pt x="480" y="654" on="1"/>
      </contour>
    </TTGlyph>
    <TTGlyph name="numbersign" xMin="40" yMin="0" xMax="1178" yMax="700">
      <contour>
        <pt x="40" y="145" on="1"/>
        <pt x="40" y="287" on="1"/>
        <pt x="240" y="287" on="1"/>
        <pt x="303" y="413" on="1"/>
        <pt x="139" y="413" on="1"/>
        <pt x="139" y="555" on="1"/>
        <pt x="373" y="555" on="1"/>
        <pt x="445" y="700" on="1"/>
        <pt x="661" y="700" on="1"/>
        <pt x="589" y="555" on="1"/>
        <pt x="831" y="555" on="1"/>
        <pt x="903" y="700" on="1"/>
        <pt x="1119" y="700" on="1"/>
        <pt x="1047" y="555" on="1"/>
        <pt x="1178" y="555" on="1"/>
        <pt x="1178" y="413" on="1"/>
        <pt x="977" y="413" on="1"/>
        <pt x="914" y="287" on="1"/>
        <pt x="1079" y="287" on="1"/>
        <pt x="1079" y="145" on="1"/>
        <pt x="844" y="145" on="1"/>
        <pt x="773" y="0" on="1"/>
        <pt x="557" y="0" on="1"/>
        <pt x="628" y="145" on="1"/>
        <pt x="386" y="145" on="1"/>
        <pt x="315" y="0" on="1"/>
        <pt x="99" y="0" on="1"/>
        <pt x="170" y="145" on="1"/>
      </contour>
      <contour>
        <pt x="447" y="284" on="1"/>
        <pt x="703" y="284" on="1"/>
        <pt x="770" y="416" on="1"/>
        <pt x="514" y="416" on="1"/>
      </contour>
    </TTGlyph>
    <TTGlyph name="o" xMin="90" yMin="0" xMax="995" yMax="530">
      <contour>
        <pt x="90" y="0" on="1"/>
        <pt x="90" y="530" on="1"/>
        <pt x="995" y="530" on="1"/>
        <pt x="995" y="0" on="1"/>
      </contour>
      <contour>
        <pt x="340" y="130" on="1"/>
        <pt x="745" y="130" on="1"/>
        <pt x="745" y="400" on="1"/>
        <pt x="340" y="400" on="1"/>
      </contour>
    </TTGlyph>
    <TTGlyph name="oacute" xMin="90" yMin="0" xMax="995" yMax="830">
      <contour>
        <pt x="90" y="0" on="1"/>
        <pt x="90" y="530" on="1"/>
        <pt x="995" y="530" on="1"/>
        <pt x="995" y="0" on="1"/>
      </contour>
      <contour>
        <pt x="340" y="130" on="1"/>
        <pt x="745" y="130" on="1"/>
        <pt x="745" y="400" on="1"/>
        <pt x="340" y="400" on="1"/>
      </contour>
      <contour>
        <pt x="433" y="610" on="1"/>
        <pt x="513" y="830" on="1"/>
        <pt x="753" y="830" on="1"/>
        <pt x="623" y="610" on="1"/>
      </contour>
    </TTGlyph>
    <TTGlyph name="ocircumflex" xMin="90" yMin="0" xMax="995" yMax="813">
      <contour>
        <pt x="90" y="0" on="1"/>
        <pt x="90" y="530" on="1"/>
        <pt x="995" y="530" on="1"/>
        <pt x="995" y="0" on="1"/>
      </contour>
      <contour>
        <pt x="319" y="584" on="1"/>
        <pt x="319" y="743" on="1"/>
        <pt x="539" y="813" on="1"/>
        <pt x="759" y="743" on="1"/>
        <pt x="759" y="584" on="1"/>
        <pt x="539" y="663" on="1"/>
      </contour>
      <contour>
        <pt x="340" y="130" on="1"/>
        <pt x="745" y="130" on="1"/>
        <pt x="745" y="400" on="1"/>
        <pt x="340" y="400" on="1"/>
      </contour>
    </TTGlyph>
    <TTGlyph name="odieresis" xMin="90" yMin="0" xMax="995" yMax="784">
      <contour>
        <pt x="90" y="0" on="1"/>
        <pt x="90" y="530" on="1"/>
        <pt x="995" y="530" on="1"/>
        <pt x="995" y="0" on="1"/>
      </contour>
      <contour>
        <pt x="273" y="575" on="1"/>
        <pt x="273" y="784" on="1"/>
        <pt x="525" y="784" on="1"/>
        <pt x="525" y="694" on="1"/>
      </contour>
      <contour>
        <pt x="340" y="130" on="1"/>
        <pt x="745" y="130" on="1"/>
        <pt x="745" y="400" on="1"/>
        <pt x="340" y="400" on="1"/>
      </contour>
      <contour>
        <pt x="590" y="575" on="1"/>
        <pt x="590" y="784" on="1"/>
        <pt x="842" y="784" on="1"/>
        <pt x="842" y="694" on="1"/>
      </contour>
    </TTGlyph>
    <TTGlyph name="oe" xMin="90" yMin="0" xMax="1510" yMax="530">
      <contour>
        <pt x="90" y="0" on="1"/>
        <pt x="90" y="530" on="1"/>
        <pt x="1510" y="530" on="1"/>
        <pt x="1510" y="255" on="1"/>
        <pt x="925" y="165" on="1"/>
        <pt x="925" y="130" on="1"/>
        <pt x="1260" y="130" on="1"/>
        <pt x="1260" y="175" on="1"/>
        <pt x="1510" y="200" on="1"/>
        <pt x="1510" y="0" on="1"/>
      </contour>
      <contour>
        <pt x="340" y="130" on="1"/>
        <pt x="675" y="130" on="1"/>
        <pt x="675" y="400" on="1"/>
        <pt x="340" y="400" on="1"/>
      </contour>
      <contour>
        <pt x="925" y="299" on="1"/>
        <pt x="1260" y="350" on="1"/>
        <pt x="1260" y="400" on="1"/>
        <pt x="925" y="400" on="1"/>
      </contour>
    </TTGlyph>
    <TTGlyph name="ograve" xMin="90" yMin="0" xMax="995" yMax="830">
      <contour>
        <pt x="90" y="0" on="1"/>
        <pt x="90" y="530" on="1"/>
        <pt x="995" y="530" on="1"/>
        <pt x="995" y="0" on="1"/>
      </contour>
      <contour>
        <pt x="332" y="830" on="1"/>
        <pt x="572" y="830" on="1"/>
        <pt x="652" y="610" on="1"/>
        <pt x="462" y="610" on="1"/>
      </contour>
      <contour>
        <pt x="340" y="130" on="1"/>
        <pt x="745" y="130" on="1"/>
        <pt x="745" y="400" on="1"/>
        <pt x="340" y="400" on="1"/>
      </contour>
    </TTGlyph>
    <TTGlyph name="one" xMin="80" yMin="0" xMax="507" yMax="737">
      <contour>
        <pt x="80" y="0" on="1"/>
        <pt x="80" y="142" on="1"/>
        <pt x="246" y="142" on="1"/>
        <pt x="246" y="436" on="1"/>
        <pt x="80" y="356" on="1"/>
        <pt x="80" y="532" on="1"/>
        <pt x="507" y="737" on="1"/>
        <pt x="507" y="0" on="1"/>
      </contour>
    </TTGlyph>
    <TTGlyph name="onehalf" xMin="50" yMin="0" xMax="1208" yMax="730">
      <contour>
        <pt x="50" y="321" on="1"/>
        <pt x="50" y="417" on="1"/>
        <pt x="139" y="417" on="1"/>
        <pt x="139" y="554" on="1"/>
        <pt x="50" y="515" on="1"/>
        <pt x="50" y="620" on="1"/>
        <pt x="290" y="730" on="1"/>
        <pt x="290" y="321" on="1"/>
      </contour>
      <contour>
        <pt x="110" y="0" on="1"/>
        <pt x="650" y="700" on="1"/>
        <pt x="890" y="700" on="1"/>
        <pt x="350" y="0" on="1"/>
      </contour>
      <contour>
        <pt x="691" y="0" on="1"/>
        <pt x="691" y="189" on="1"/>
        <pt x="1057" y="266" on="1"/>
        <pt x="1057" y="282" on="1"/>
        <pt x="842" y="282" on="1"/>
        <pt x="842" y="254" on="1"/>
        <pt x="691" y="232" on="1"/>
        <pt x="691" y="379" on="1"/>
        <pt x="1208" y="379" on="1"/>
        <pt x="1208" y="190" on="1"/>
        <pt x="842" y="113" on="1"/>
        <pt x="842" y="97" on="1"/>
        <pt x="1057" y="97" on="1"/>
        <pt x="1057" y="119" on="1"/>
        <pt x="1208" y="140" on="1"/>
        <pt x="1208" y="0" on="1"/>
      </contour>
    </TTGlyph>
    <TTGlyph name="onequarter" xMin="50" yMin="0" xMax="1116" yMax="730">
      <contour>
        <pt x="50" y="321" on="1"/>
        <pt x="50" y="417" on="1"/>
        <pt x="139" y="417" on="1"/>
        <pt x="139" y="554" on="1"/>
        <pt x="50" y="515" on="1"/>
        <pt x="50" y="620" on="1"/>
        <pt x="290" y="730" on="1"/>
        <pt x="290" y="321" on="1"/>
      </contour>
      <contour>
        <pt x="110" y="0" on="1"/>
        <pt x="650" y="700" on="1"/>
        <pt x="890" y="700" on="1"/>
        <pt x="350" y="0" on="1"/>
      </contour>
      <contour>
        <pt x="531" y="41" on="1"/>
        <pt x="531" y="137" on="1"/>
        <pt x="1033" y="409" on="1"/>
        <pt x="1033" y="137" on="1"/>
        <pt x="1116" y="137" on="1"/>
        <pt x="1116" y="41" on="1"/>
        <pt x="1033" y="41" on="1"/>
        <pt x="1033" y="0" on="1"/>
        <pt x="883" y="0" on="1"/>
        <pt x="883" y="41" on="1"/>
      </contour>
      <contour>
        <pt x="722" y="137" on="1"/>
        <pt x="883" y="137" on="1"/>
        <pt x="883" y="224" on="1"/>
      </contour>
    </TTGlyph>
    <TTGlyph name="ordfeminine" xMin="50" yMin="321" xMax="676" yMax="700">
      <contour>
        <pt x="50" y="321" on="1"/>
        <pt x="182" y="603" on="1"/>
        <pt x="115" y="603" on="1"/>
        <pt x="115" y="700" on="1"/>
        <pt x="511" y="700" on="1"/>
        <pt x="676" y="321" on="1"/>
        <pt x="511" y="321" on="1"/>
        <pt x="478" y="396" on="1"/>
        <pt x="249" y="396" on="1"/>
        <pt x="216" y="321" on="1"/>
      </contour>
      <contour>
        <pt x="291" y="493" on="1"/>
        <pt x="437" y="493" on="1"/>
        <pt x="388" y="603" on="1"/>
        <pt x="339" y="603" on="1"/>
      </contour>
    </TTGlyph>
    <TTGlyph name="ordmasculine" xMin="50" yMin="320" xMax="579" yMax="700">
      <contour>
        <pt x="50" y="320" on="1"/>
        <pt x="50" y="700" on="1"/>
        <pt x="579" y="700" on="1"/>
        <pt x="579" y="320" on="1"/>
      </contour>
      <contour>
        <pt x="202" y="466" on="1"/>
        <pt x="368" y="613" on="1"/>
        <pt x="202" y="613" on="1"/>
      </contour>
      <contour>
        <pt x="261" y="407" on="1"/>
        <pt x="427" y="407" on="1"/>
        <pt x="427" y="554" on="1"/>
      </contour>
    </TTGlyph>
    <TTGlyph name="oslash" xMin="90" yMin="0" xMax="995" yMax="530">
      <contour>
        <pt x="90" y="0" on="1"/>
        <pt x="90" y="530" on="1"/>
        <pt x="995" y="530" on="1"/>
        <pt x="995" y="0" on="1"/>
      </contour>
      <contour>
        <pt x="340" y="210" on="1"/>
        <pt x="665" y="400" on="1"/>
        <pt x="340" y="400" on="1"/>
      </contour>
      <contour>
        <pt x="420" y="130" on="1"/>
        <pt x="745" y="130" on="1"/>
        <pt x="745" y="320" on="1"/>
      </contour>
    </TTGlyph>
    <TTGlyph name="otilde" xMin="90" yMin="0" xMax="995" yMax="804">
      <contour>
        <pt x="90" y="0" on="1"/>
        <pt x="90" y="530" on="1"/>
        <pt x="995" y="530" on="1"/>
        <pt x="995" y="0" on="1"/>
      </contour>
      <contour>
        <pt x="330" y="580" on="1"/>
        <pt x="330" y="729" on="1"/>
        <pt x="470" y="804" on="1"/>
        <pt x="610" y="730" on="1"/>
        <pt x="750" y="804" on="1"/>
        <pt x="750" y="655" on="1"/>
        <pt x="610" y="580" on="1"/>
        <pt x="470" y="654" on="1"/>
      </contour>
      <contour>
        <pt x="340" y="130" on="1"/>
        <pt x="745" y="130" on="1"/>
        <pt x="745" y="400" on="1"/>
        <pt x="340" y="400" on="1"/>
      </contour>
    </TTGlyph>
    <TTGlyph name="p" xMin="0" yMin="-170" xMax="1020" yMax="530">
      <contour>
        <pt x="0" y="400" on="1"/>
        <pt x="0" y="530" on="1"/>
        <pt x="305" y="530" on="1"/>
        <pt x="355" y="480" on="1"/>
        <pt x="405" y="530" on="1"/>
        <pt x="1020" y="530" on="1"/>
        <pt x="1020" y="60" on="1"/>
        <pt x="375" y="-20" on="1"/>
        <pt x="375" y="-170" on="1"/>
        <pt x="125" y="-170" on="1"/>
        <pt x="125" y="400" on="1"/>
      </contour>
      <contour>
        <pt x="375" y="105" on="1"/>
        <pt x="770" y="155" on="1"/>
        <pt x="770" y="400" on="1"/>
        <pt x="375" y="400" on="1"/>
      </contour>
    </TTGlyph>
    <TTGlyph name="paragraph" xMin="60" yMin="-300" xMax="995" yMax="700">
      <contour>
        <pt x="60" y="275" on="1"/>
        <pt x="60" y="635" on="1"/>
        <pt x="341" y="700" on="1"/>
        <pt x="995" y="700" on="1"/>
        <pt x="995" y="558" on="1"/>
        <pt x="853" y="558" on="1"/>
        <pt x="853" y="-300" on="1"/>
        <pt x="711" y="-300" on="1"/>
        <pt x="711" y="558" on="1"/>
        <pt x="602" y="558" on="1"/>
        <pt x="602" y="-300" on="1"/>
        <pt x="341" y="-300" on="1"/>
        <pt x="341" y="210" on="1"/>
      </contour>
    </TTGlyph>
    <TTGlyph name="parenleft" xMin="100" yMin="-267" xMax="459" yMax="907">
      <contour>
        <pt x="100" y="-75" on="1"/>
        <pt x="100" y="715" on="1"/>
        <pt x="459" y="907" on="1"/>
        <pt x="459" y="728" on="1"/>
        <pt x="331" y="660" on="1"/>
        <pt x="331" y="-20" on="1"/>
        <pt x="459" y="-88" on="1"/>
        <pt x="459" y="-267" on="1"/>
      </contour>
    </TTGlyph>
    <TTGlyph name="parenright" xMin="0" yMin="-267" xMax="359" yMax="907">
      <contour>
        <pt x="0" y="-88" on="1"/>
        <pt x="128" y="-20" on="1"/>
        <pt x="128" y="660" on="1"/>
        <pt x="0" y="728" on="1"/>
        <pt x="0" y="907" on="1"/>
        <pt x="359" y="715" on="1"/>
        <pt x="359" y="-75" on="1"/>
        <pt x="0" y="-267" on="1"/>
      </contour>
    </TTGlyph>
    <TTGlyph name="percent" xMin="50" yMin="0" xMax="1408" yMax="700">
      <contour>
        <pt x="50" y="320" on="1"/>
        <pt x="50" y="700" on="1"/>
        <pt x="549" y="700" on="1"/>
        <pt x="549" y="320" on="1"/>
      </contour>
      <contour>
        <pt x="212" y="427" on="1"/>
        <pt x="387" y="427" on="1"/>
        <pt x="387" y="593" on="1"/>
        <pt x="212" y="593" on="1"/>
      </contour>
      <contour>
        <pt x="339" y="0" on="1"/>
        <pt x="879" y="700" on="1"/>
        <pt x="1119" y="700" on="1"/>
        <pt x="579" y="0" on="1"/>
      </contour>
      <contour>
        <pt x="909" y="0" on="1"/>
        <pt x="909" y="380" on="1"/>
        <pt x="1408" y="380" on="1"/>
        <pt x="1408" y="0" on="1"/>
      </contour>
      <contour>
        <pt x="1071" y="107" on="1"/>
        <pt x="1246" y="107" on="1"/>
        <pt x="1246" y="273" on="1"/>
        <pt x="1071" y="273" on="1"/>
      </contour>
    </TTGlyph>
    <TTGlyph name="period" xMin="50" yMin="0" xMax="311" yMax="162">
      <contour>
        <pt x="50" y="0" on="1"/>
        <pt x="50" y="162" on="1"/>
        <pt x="311" y="162" on="1"/>
        <pt x="311" y="0" on="1"/>
      </contour>
    </TTGlyph>
    <TTGlyph name="periodcentered" xMin="120" yMin="269" xMax="381" yMax="431">
      <contour>
        <pt x="120" y="269" on="1"/>
        <pt x="120" y="431" on="1"/>
        <pt x="381" y="431" on="1"/>
        <pt x="381" y="269" on="1"/>
      </contour>
    </TTGlyph>
    <TTGlyph name="perthousand" xMin="50" yMin="0" xMax="1715" yMax="700">
      <contour>
        <pt x="50" y="320" on="1"/>
        <pt x="50" y="700" on="1"/>
        <pt x="549" y="700" on="1"/>
        <pt x="549" y="320" on="1"/>
      </contour>
      <contour>
        <pt x="212" y="427" on="1"/>
        <pt x="387" y="427" on="1"/>
        <pt x="387" y="593" on="1"/>
        <pt x="212" y="593" on="1"/>
      </contour>
      <contour>
        <pt x="339" y="0" on="1"/>
        <pt x="879" y="700" on="1"/>
        <pt x="1119" y="700" on="1"/>
        <pt x="579" y="0" on="1"/>
      </contour>
      <contour>
        <pt x="909" y="0" on="1"/>
        <pt x="909" y="380" on="1"/>
        <pt x="1715" y="380" on="1"/>
        <pt x="1715" y="0" on="1"/>
      </contour>
      <contour>
        <pt x="1071" y="107" on="1"/>
        <pt x="1226" y="107" on="1"/>
        <pt x="1226" y="273" on="1"/>
        <pt x="1071" y="273" on="1"/>
      </contour>
      <contour>
        <pt x="1398" y="107" on="1"/>
        <pt x="1553" y="107" on="1"/>
        <pt x="1553" y="273" on="1"/>
        <pt x="1398" y="273" on="1"/>
      </contour>
    </TTGlyph>
    <TTGlyph name="plus" xMin="50" yMin="0" xMax="780" yMax="700">
      <contour>
        <pt x="50" y="279" on="1"/>
        <pt x="50" y="421" on="1"/>
        <pt x="344" y="421" on="1"/>
        <pt x="344" y="700" on="1"/>
        <pt x="486" y="700" on="1"/>
        <pt x="486" y="421" on="1"/>
        <pt x="780" y="421" on="1"/>
        <pt x="780" y="279" on="1"/>
        <pt x="486" y="279" on="1"/>
        <pt x="486" y="0" on="1"/>
        <pt x="344" y="0" on="1"/>
        <pt x="344" y="279" on="1"/>
      </contour>
    </TTGlyph>
    <TTGlyph name="plusminus" xMin="50" yMin="40" xMax="780" yMax="700">
      <contour>
        <pt x="50" y="326" on="1"/>
        <pt x="50" y="468" on="1"/>
        <pt x="344" y="468" on="1"/>
        <pt x="344" y="700" on="1"/>
        <pt x="486" y="700" on="1"/>
        <pt x="486" y="468" on="1"/>
        <pt x="780" y="468" on="1"/>
        <pt x="780" y="326" on="1"/>
        <pt x="486" y="326" on="1"/>
        <pt x="486" y="60" on="1"/>
        <pt x="344" y="60" on="1"/>
        <pt x="344" y="326" on="1"/>
      </contour>
      <contour>
        <pt x="55" y="40" on="1"/>
        <pt x="55" y="182" on="1"/>
        <pt x="775" y="182" on="1"/>
        <pt x="775" y="40" on="1"/>
      </contour>
    </TTGlyph>
    <TTGlyph name="q" xMin="90" yMin="-170" xMax="985" yMax="530">
      <contour>
        <pt x="90" y="60" on="1"/>
        <pt x="90" y="530" on="1"/>
        <pt x="705" y="530" on="1"/>
        <pt x="755" y="480" on="1"/>
        <pt x="806" y="530" on="1"/>
        <pt x="985" y="530" on="1"/>
        <pt x="985" y="-170" on="1"/>
        <pt x="735" y="-170" on="1"/>
        <pt x="735" y="-20" on="1"/>
      </contour>
      <contour>
        <pt x="340" y="155" on="1"/>
        <pt x="735" y="105" on="1"/>
        <pt x="735" y="400" on="1"/>
        <pt x="340" y="400" on="1"/>
      </contour>
    </TTGlyph>
    <TTGlyph name="question" xMin="40" yMin="0" xMax="1087" yMax="700">
      <contour>
        <pt x="40" y="441" on="1"/>
        <pt x="40" y="700" on="1"/>
        <pt x="1087" y="700" on="1"/>
        <pt x="1087" y="331" on="1"/>
        <pt x="687" y="264" on="1"/>
        <pt x="687" y="202" on="1"/>
        <pt x="426" y="202" on="1"/>
        <pt x="426" y="376" on="1"/>
        <pt x="826" y="444" on="1"/>
        <pt x="826" y="558" on="1"/>
        <pt x="301" y="558" on="1"/>
        <pt x="301" y="481" on="1"/>
      </contour>
      <contour>
        <pt x="426" y="0" on="1"/>
        <pt x="426" y="142" on="1"/>
        <pt x="687" y="142" on="1"/>
        <pt x="687" y="0" on="1"/>
      </contour>
    </TTGlyph>
</ttFont>
